{"glyphs":{"0":{"ha":833,"x_min":51,"x_max":782,"o":"m 51 486 q 147 863 51 736 q 417 989 242 989 q 693 865 604 989 q 782 486 782 740 q 686 110 782 236 q 407 -17 590 -17 q 244 17 311 -17 q 134 116 176 51 q 72 274 92 181 q 51 486 51 367 m 207 486 q 217 304 207 386 q 252 164 228 222 q 314 74 276 106 q 406 42 351 42 q 577 149 528 42 q 626 486 626 257 q 617 668 626 586 q 584 808 608 750 q 519 899 560 867 q 417 931 479 931 q 254 823 301 931 q 207 486 207 715 z "},"1":{"ha":833,"x_min":163,"x_max":665,"o":"m 665 0 l 206 0 l 206 89 l 364 89 l 364 872 l 200 786 l 163 854 l 364 972 l 510 972 l 510 89 l 665 89 l 665 0 z "},"2":{"ha":833,"x_min":89,"x_max":719,"o":"m 236 740 l 103 740 l 103 894 q 233 961 157 936 q 401 986 310 986 q 536 967 479 986 q 630 915 593 947 q 684 839 667 882 q 701 747 701 796 q 658 572 701 660 q 550 407 615 485 q 407 264 485 329 q 258 153 329 199 l 228 133 q 206 119 217 126 q 190 108 194 111 l 190 103 l 281 111 l 603 111 l 631 139 l 631 272 l 719 272 l 719 0 l 89 0 l 89 117 q 173 172 125 138 q 272 253 221 207 q 374 353 324 299 q 463 469 424 408 q 526 592 501 529 q 550 719 550 656 q 538 794 550 760 q 503 856 526 829 q 447 897 481 882 q 369 911 413 911 q 294 904 324 911 q 236 886 264 897 l 236 740 z "},"3":{"ha":833,"x_min":93,"x_max":760,"o":"m 376 61 q 469 77 428 61 q 542 121 511 93 q 589 185 572 149 q 606 265 606 222 q 588 353 606 315 q 538 417 569 392 q 465 456 507 443 q 376 469 424 469 l 278 469 l 278 564 l 590 864 l 590 869 l 507 861 l 228 861 l 200 833 l 200 722 l 111 722 l 111 972 l 711 972 l 711 864 l 450 619 q 418 590 433 604 q 395 569 406 579 q 382 558 385 560 l 382 556 q 392 557 383 556 q 410 561 400 558 q 435 565 421 564 q 568 544 508 563 q 671 490 628 525 q 737 403 714 454 q 760 286 760 353 q 730 161 760 217 q 649 67 700 106 q 528 7 597 28 q 379 -14 458 -14 q 302 -8 343 -14 q 222 6 261 -3 q 149 28 183 15 q 93 58 115 42 l 93 222 l 226 222 l 226 99 q 287 73 246 85 q 376 61 328 61 z "},"4":{"ha":833,"x_min":19,"x_max":814,"o":"m 761 0 l 353 0 l 353 89 l 496 89 l 496 268 l 19 268 l 19 357 l 496 972 l 642 972 l 642 357 l 814 357 l 814 268 l 642 268 l 642 89 l 761 89 l 761 0 m 496 763 l 506 863 l 501 863 l 447 763 l 158 393 l 107 347 l 207 357 l 496 357 l 496 763 z "},"5":{"ha":833,"x_min":114,"x_max":715,"o":"m 608 1042 l 697 1042 l 697 861 l 274 861 l 274 597 l 363 597 q 506 578 440 597 q 617 522 571 558 q 690 432 664 486 q 715 310 715 378 q 684 169 715 229 q 601 67 653 108 q 483 6 550 26 q 344 -14 415 -14 q 219 0 281 -14 q 114 46 158 14 l 114 194 l 247 194 l 247 74 q 289 66 263 71 q 343 61 315 61 q 436 77 394 61 q 508 122 478 93 q 553 191 538 151 q 569 279 569 231 q 547 374 569 335 q 486 440 525 414 q 395 477 447 465 q 283 489 343 489 l 185 489 l 185 972 l 581 972 l 608 1000 l 608 1042 z "},"6":{"ha":833,"x_min":75,"x_max":785,"o":"m 785 294 q 760 172 785 229 q 690 74 735 115 q 581 8 644 32 q 438 -17 517 -17 q 282 10 350 -17 q 168 86 214 38 q 99 201 122 135 q 75 347 75 268 q 123 585 75 478 q 251 772 171 692 q 436 906 332 853 q 653 982 540 958 l 672 913 q 527 854 600 892 q 394 763 454 817 q 291 638 333 708 q 239 479 249 567 q 274 515 251 497 q 328 547 297 533 q 397 570 358 561 q 478 579 435 579 q 601 560 544 579 q 699 504 658 540 q 762 415 739 468 q 785 294 785 363 m 629 282 q 577 443 629 382 q 431 504 525 504 q 307 472 357 504 q 233 400 257 440 q 231 354 231 381 q 231 313 231 328 q 244 222 231 268 q 283 137 257 175 q 351 74 310 99 q 446 49 392 49 q 529 69 494 49 q 586 122 564 89 q 619 197 608 156 q 629 282 629 239 z "},"7":{"ha":833,"x_min":99,"x_max":751,"o":"m 188 721 l 99 721 l 99 972 l 751 972 l 751 863 l 403 0 l 256 0 l 639 803 l 686 868 l 607 861 l 215 861 l 188 833 l 188 721 z "},"8":{"ha":833,"x_min":76,"x_max":761,"o":"m 76 218 q 94 308 76 265 q 142 385 111 350 q 215 449 174 421 q 306 499 257 478 q 167 596 218 539 q 117 744 117 653 q 138 843 117 799 q 200 920 160 888 q 298 971 240 953 q 426 989 356 989 q 642 927 565 989 q 719 768 719 865 q 667 620 719 688 q 525 519 615 553 q 698 401 635 467 q 761 238 761 335 q 738 139 761 185 q 670 58 715 93 q 560 3 625 24 q 410 -17 494 -17 q 263 3 325 -17 q 158 54 200 22 q 97 129 117 86 q 76 218 76 172 m 618 213 q 597 297 618 260 q 541 365 576 335 q 460 419 506 394 q 365 465 415 444 q 293 413 322 442 q 247 353 264 385 q 222 292 229 322 q 215 235 215 261 q 226 168 215 201 q 262 108 238 135 q 326 65 286 82 q 422 49 365 49 q 508 63 471 49 q 569 101 544 78 q 606 153 593 124 q 618 213 618 183 m 260 764 q 276 690 260 722 q 322 632 293 657 q 388 586 350 607 q 467 547 425 565 q 556 641 532 594 q 581 744 581 688 q 540 877 581 831 q 424 924 499 924 q 351 910 382 924 q 301 874 321 896 q 270 823 281 851 q 260 764 260 794 z "},"9":{"ha":833,"x_min":72,"x_max":775,"o":"m 72 676 q 96 801 72 744 q 164 900 119 858 q 274 965 208 942 q 422 989 339 989 q 580 962 514 989 q 690 886 646 935 q 754 767 733 838 q 775 613 775 697 q 731 374 775 483 q 610 183 686 265 q 431 49 533 100 q 213 -14 329 -1 l 193 56 q 481 203 376 92 q 611 471 586 314 q 526 415 575 438 q 394 392 476 392 q 265 410 324 392 q 163 466 206 429 q 97 556 121 503 q 72 676 72 608 m 228 678 q 242 599 228 638 q 281 532 256 561 q 344 485 307 503 q 426 467 381 467 q 547 489 499 467 q 619 546 596 511 q 623 590 622 564 q 624 633 624 617 q 613 735 624 683 q 576 829 601 788 q 512 897 551 871 q 417 924 472 924 q 276 858 324 924 q 228 678 228 792 z "}," ":{"ha":381,"x_min":0,"x_max":0,"o":""},"!":{"ha":511,"x_min":185,"x_max":401,"o":"m 271 303 l 218 549 l 218 972 l 364 972 l 364 549 l 313 303 l 271 303 m 185 81 q 215 149 185 124 q 292 174 244 174 q 371 149 340 174 q 401 81 401 124 q 371 14 401 39 q 292 -11 340 -11 q 215 14 244 -11 q 185 81 185 39 z "},"\"":{"ha":594,"x_min":135,"x_max":461,"o":"m 325 972 l 461 972 l 424 699 l 363 699 l 325 972 m 135 972 l 271 972 l 233 699 l 172 699 l 135 972 z "},"#":{"ha":833,"x_min":50,"x_max":776,"o":"m 479 324 l 257 324 l 193 81 l 111 81 l 175 324 l 50 324 l 74 389 l 192 389 l 247 596 l 128 596 l 151 661 l 267 661 l 328 892 l 410 892 l 349 661 l 569 661 l 632 892 l 714 892 l 651 661 l 776 661 l 749 596 l 633 596 l 578 389 l 699 389 l 669 324 l 561 324 l 497 81 l 415 81 l 479 324 m 276 389 l 496 389 l 551 596 l 329 596 l 276 389 z "},"$":{"ha":833,"x_min":79,"x_max":757,"o":"m 371 -17 q 282 -8 324 -17 q 206 13 240 0 q 146 41 172 26 q 103 68 119 56 l 103 261 l 203 261 l 203 122 l 231 86 q 285 65 256 74 q 371 56 314 57 l 371 450 q 360 453 369 450 q 313 472 350 457 q 225 513 267 490 q 151 566 183 535 q 99 640 118 597 q 79 740 79 682 q 101 833 79 790 q 161 910 122 876 q 253 963 200 943 q 371 988 307 983 l 371 1056 l 454 1056 l 454 988 q 583 970 529 983 q 678 939 636 957 l 678 757 l 578 757 l 578 871 l 550 899 q 454 915 501 915 l 454 546 q 576 492 521 518 q 672 432 632 465 q 735 353 713 399 q 757 244 757 308 q 677 72 757 142 q 454 -12 597 3 l 454 -97 l 371 -97 l 371 -17 m 611 233 q 599 297 611 269 q 565 347 586 325 q 514 385 543 368 q 451 417 485 403 l 451 64 q 567 124 522 81 q 611 233 611 167 m 225 764 q 267 650 225 692 q 374 578 310 608 l 374 914 q 265 865 304 907 q 225 764 225 822 z "},"%":{"ha":1261,"x_min":81,"x_max":1179,"o":"m 1051 992 l 1108 939 l 196 -14 l 142 40 l 1051 992 m 81 753 q 101 850 81 807 q 158 924 122 893 q 245 972 194 956 q 354 989 296 989 q 464 974 414 989 q 550 931 514 960 q 606 857 586 901 q 626 753 626 813 q 606 655 626 699 q 550 581 586 611 q 464 533 514 550 q 354 517 414 517 q 245 531 296 517 q 158 575 194 546 q 101 649 122 604 q 81 753 81 693 m 214 753 q 250 619 214 669 q 354 569 286 569 q 493 753 493 569 q 354 936 493 936 q 250 890 286 936 q 214 753 214 844 m 633 221 q 654 318 633 275 q 711 392 675 361 q 798 440 747 424 q 907 457 849 457 q 1017 442 967 457 q 1103 399 1067 428 q 1159 325 1139 369 q 1179 221 1179 281 q 1159 123 1179 167 q 1103 49 1139 79 q 1017 1 1067 18 q 907 -15 967 -15 q 798 -1 849 -15 q 711 43 747 14 q 654 117 675 72 q 633 221 633 161 m 767 221 q 803 88 767 138 q 907 38 839 38 q 1046 221 1046 38 q 907 404 1046 404 q 803 358 839 404 q 767 221 767 313 z "},"&":{"ha":1357,"x_min":185,"x_max":1308,"o":"m 840 171 q 738 259 793 208 q 632 362 683 310 q 538 463 581 414 q 471 543 494 511 q 375 431 406 486 q 344 304 344 376 q 364 206 344 251 q 418 128 383 161 q 501 77 453 96 q 607 58 550 58 q 735 86 675 58 q 840 171 794 114 m 443 810 q 454 757 443 785 q 483 701 465 729 q 522 647 500 672 q 563 600 543 621 q 650 694 619 642 q 681 825 681 746 q 651 900 681 869 q 561 931 622 931 q 505 920 528 931 q 469 892 482 910 q 449 853 456 875 q 443 810 443 832 m 1083 0 q 1002 48 1051 19 q 894 125 953 76 q 840 75 874 100 q 763 29 807 50 q 665 -4 719 8 q 547 -17 610 -17 q 395 6 463 -17 q 281 67 328 29 q 210 153 235 104 q 185 254 185 201 q 213 376 185 322 q 278 472 240 431 q 359 542 317 514 q 431 589 401 571 q 355 692 386 633 q 324 803 324 751 q 339 872 324 838 q 385 931 354 906 q 460 973 415 957 q 561 989 504 989 q 729 949 665 989 q 793 833 793 908 q 775 749 793 788 q 729 676 757 710 q 666 615 701 643 q 596 564 631 588 q 743 419 660 493 q 919 269 826 344 q 947 315 931 283 q 979 389 964 346 q 1006 483 994 432 q 1017 586 1017 533 q 1017 606 1017 596 q 1015 625 1017 615 l 924 625 l 924 694 l 1243 694 l 1243 625 l 1139 625 q 1104 478 1125 544 q 1060 360 1083 411 q 1016 274 1038 310 q 982 222 994 239 q 1097 142 1040 179 q 1224 69 1154 104 l 1308 69 l 1308 0 l 1083 0 z "},"'":{"ha":347,"x_min":135,"x_max":271,"o":"m 135 972 l 271 972 l 233 699 l 172 699 l 135 972 z "},"(":{"ha":540,"x_min":93,"x_max":517,"o":"m 474 -292 q 325 -181 394 -242 q 204 -44 256 -119 q 123 126 153 32 q 93 338 93 221 q 124 544 93 451 q 206 713 154 636 q 328 853 258 789 q 478 975 399 917 l 517 933 q 402 813 454 874 q 313 683 350 753 q 254 529 275 614 q 233 338 233 444 q 256 149 233 235 q 316 -7 278 64 q 405 -137 354 -78 q 514 -246 456 -196 l 474 -292 z "},")":{"ha":540,"x_min":24,"x_max":447,"o":"m 28 -250 q 137 -138 86 -200 q 226 -2 188 -76 q 285 160 264 72 q 307 351 307 249 q 286 540 307 458 q 228 690 265 622 q 138 816 190 758 q 24 933 86 874 l 63 975 q 213 860 143 922 q 335 724 283 799 q 417 557 388 649 q 447 351 447 465 q 419 141 447 236 q 339 -33 390 46 q 218 -176 288 -112 q 65 -292 149 -240 l 28 -250 z "},"*":{"ha":725,"x_min":78,"x_max":640,"o":"m 640 701 l 554 551 l 411 708 l 433 747 l 640 701 m 553 963 l 639 810 l 435 772 l 410 807 l 553 963 m 271 1032 l 449 1032 l 383 826 l 335 826 l 271 1032 m 78 810 l 172 963 l 311 808 l 289 772 l 78 810 m 171 551 l 78 701 l 290 750 l 311 710 l 171 551 m 449 485 l 271 485 l 335 690 l 383 690 l 449 485 z "},"+":{"ha":833,"x_min":94,"x_max":739,"o":"m 94 515 l 375 515 l 375 806 l 458 806 l 458 515 l 739 515 l 739 440 l 458 440 l 458 142 l 375 142 l 375 440 l 94 440 l 94 515 z "},",":{"ha":443,"x_min":85,"x_max":324,"o":"m 85 -200 q 138 -170 114 -190 q 181 -125 163 -150 q 210 -71 200 -100 q 221 -12 221 -42 l 221 0 l 124 0 q 104 42 110 22 q 99 81 99 61 q 106 125 99 104 q 124 167 113 146 l 299 167 q 318 99 313 132 q 324 36 324 67 q 306 -67 324 -19 q 259 -151 289 -114 q 191 -212 229 -187 q 111 -249 153 -237 l 85 -200 z "},"-":{"ha":660,"x_min":111,"x_max":550,"o":"m 111 436 l 550 436 l 550 347 l 111 347 l 111 436 z "},".":{"ha":436,"x_min":111,"x_max":328,"o":"m 111 81 q 140 149 111 124 q 218 174 169 174 q 297 149 267 174 q 328 81 328 124 q 297 14 328 39 q 218 -11 267 -11 q 140 14 169 -11 q 111 81 111 39 z "},"/":{"ha":536,"x_min":-60,"x_max":576,"o":"m 508 990 l 576 964 l 7 -181 l -60 -153 l 508 990 z "},":":{"ha":511,"x_min":186,"x_max":403,"o":"m 186 613 q 215 681 186 656 q 293 706 244 706 q 372 681 342 706 q 403 613 403 656 q 372 546 403 571 q 293 521 342 521 q 215 546 244 521 q 186 613 186 571 m 186 81 q 215 149 186 124 q 293 174 244 174 q 372 149 342 174 q 403 81 403 124 q 372 14 403 39 q 293 -11 342 -11 q 215 14 244 -11 q 186 81 186 39 z "},";":{"ha":518,"x_min":165,"x_max":408,"o":"m 192 613 q 221 681 192 656 q 299 706 250 706 q 378 681 347 706 q 408 613 408 656 q 378 546 408 571 q 299 521 347 521 q 221 546 250 521 q 192 613 192 571 m 165 -200 q 219 -170 194 -190 q 262 -125 243 -150 q 291 -71 281 -100 q 301 -12 301 -42 l 301 0 l 204 0 q 185 42 190 22 q 179 81 179 61 q 186 125 179 104 q 204 167 193 146 l 379 167 q 399 99 393 132 q 404 36 404 67 q 387 -67 404 -19 q 340 -151 369 -114 q 272 -212 310 -187 q 192 -249 233 -237 l 165 -200 z "},"<":{"ha":833,"x_min":72,"x_max":721,"o":"m 72 450 l 72 493 l 671 819 l 713 738 l 225 479 l 721 221 l 669 143 l 72 450 z "},"=":{"ha":833,"x_min":65,"x_max":767,"o":"m 65 628 l 767 628 l 767 553 l 65 553 l 65 628 m 65 403 l 767 403 l 767 328 l 65 328 l 65 403 z "},">":{"ha":833,"x_min":115,"x_max":765,"o":"m 765 513 l 765 469 l 165 143 l 119 219 l 611 489 l 115 743 l 167 819 l 765 513 z "},"?":{"ha":738,"x_min":108,"x_max":686,"o":"m 242 761 l 108 761 l 108 929 q 231 975 167 961 q 369 989 294 989 q 610 915 533 989 q 686 708 686 840 q 665 594 686 647 q 602 500 643 542 q 503 430 561 458 q 369 392 444 401 l 369 253 l 281 253 l 281 450 q 390 482 343 463 q 467 532 436 501 q 515 606 499 563 q 531 711 531 650 q 521 785 531 749 q 490 851 511 822 q 437 899 469 881 q 358 917 404 917 q 283 909 310 917 q 242 890 256 901 l 242 761 m 215 81 q 244 149 215 124 q 322 174 274 174 q 401 149 371 174 q 432 81 432 124 q 401 14 432 39 q 322 -11 371 -11 q 244 14 274 -11 q 215 81 215 39 z "},"@":{"ha":1543,"x_min":125,"x_max":1418,"o":"m 1100 681 l 1021 285 l 1021 79 l 1039 79 q 1155 106 1101 79 q 1247 183 1208 133 q 1307 301 1285 232 q 1329 453 1329 369 q 1287 644 1329 558 q 1172 790 1244 729 q 1002 882 1100 850 q 794 914 904 914 q 556 869 663 914 q 373 747 449 825 q 256 563 297 668 q 214 336 214 457 q 263 117 214 213 q 392 -42 311 22 q 576 -141 472 -107 q 789 -175 679 -175 q 891 -165 833 -175 q 996 -136 949 -156 l 1021 -200 q 900 -239 965 -228 q 756 -250 835 -250 q 610 -234 685 -250 q 465 -186 535 -218 q 333 -106 394 -154 q 225 7 271 -57 q 152 151 179 71 q 125 328 125 232 q 179 601 125 479 q 326 810 233 724 q 541 942 418 896 q 801 989 664 989 q 1045 952 932 989 q 1241 847 1158 915 q 1371 678 1324 778 q 1418 453 1418 579 q 1395 290 1418 371 q 1322 144 1372 208 q 1190 41 1271 81 q 994 1 1110 1 q 948 3 971 1 q 899 8 925 6 l 899 253 l 890 253 q 842 165 872 208 q 774 87 813 122 q 691 30 735 51 q 601 8 647 8 q 458 66 508 8 q 407 219 407 124 q 440 392 407 307 q 528 543 472 476 q 659 650 585 610 q 817 690 733 690 q 907 681 872 690 q 978 657 942 672 l 1100 681 m 951 590 q 901 611 928 604 q 838 618 875 618 q 726 581 778 618 q 635 488 674 544 q 573 364 596 432 q 550 235 550 296 q 574 132 550 168 q 660 96 597 96 q 723 121 689 96 q 790 187 757 146 q 855 278 824 228 q 911 382 886 329 l 951 590 z "},"A":{"ha":1049,"x_min":0,"x_max":1049,"o":"m 340 0 l 0 0 l 0 78 l 108 78 l 468 972 l 615 972 l 944 78 l 1049 78 l 1049 0 l 651 0 l 651 78 l 775 78 l 685 322 l 315 322 l 221 78 l 340 78 l 340 0 m 347 400 l 661 400 l 547 721 l 513 868 l 507 868 l 467 718 l 347 400 z "},"B":{"ha":958,"x_min":44,"x_max":882,"o":"m 44 0 l 44 78 l 171 78 l 171 894 l 44 894 l 44 972 l 226 972 q 282 974 256 972 q 338 976 308 975 q 401 979 367 978 q 476 981 435 981 q 601 972 538 981 q 717 938 665 963 q 801 867 768 913 q 833 750 833 822 q 820 676 833 713 q 781 610 807 640 q 717 556 756 579 q 626 521 678 532 l 626 515 q 718 492 672 508 q 801 447 764 475 q 860 376 838 418 q 882 276 882 335 q 845 147 882 201 q 749 58 808 93 q 613 8 689 24 q 460 -8 538 -8 q 338 -4 406 -8 q 208 0 271 0 l 44 0 m 471 69 q 572 84 525 69 q 651 125 618 99 q 703 188 685 151 q 722 269 722 225 q 699 362 722 325 q 638 420 676 399 q 549 450 600 442 q 440 458 497 458 l 326 458 l 326 82 q 377 73 347 76 q 471 69 407 69 m 401 531 q 463 533 429 531 q 521 538 497 535 q 635 609 592 560 q 678 725 678 658 q 619 860 678 817 q 461 903 561 903 q 381 901 414 903 q 326 896 349 899 l 326 531 l 401 531 z "},"C":{"ha":969,"x_min":79,"x_max":879,"o":"m 790 256 l 879 256 l 879 38 q 765 -1 836 14 q 625 -17 694 -17 q 396 13 497 -17 q 224 103 294 42 q 117 260 154 165 q 79 486 79 354 q 121 717 79 622 q 233 873 163 813 q 397 961 304 933 q 593 989 490 989 q 683 985 643 989 q 756 975 724 982 q 817 958 789 968 q 871 938 844 949 l 871 700 l 782 700 l 782 846 l 763 874 q 715 890 747 881 q 610 900 682 900 q 469 876 535 900 q 356 803 404 853 q 281 674 308 753 q 253 486 253 596 q 353 180 253 288 q 636 72 454 72 q 720 80 686 72 q 771 100 754 88 l 790 126 l 790 256 z "},"D":{"ha":1086,"x_min":44,"x_max":1007,"o":"m 44 0 l 44 78 l 171 78 l 171 894 l 44 894 l 44 972 l 215 972 q 277 974 242 972 q 350 977 313 975 q 422 981 388 979 q 479 983 456 983 q 707 951 608 983 q 872 856 806 918 q 973 704 939 794 q 1007 499 1007 614 q 975 294 1007 388 q 875 133 943 201 q 701 26 807 64 q 447 -12 594 -12 q 396 -10 425 -12 q 334 -6 367 -8 q 268 -2 301 -4 q 206 0 235 0 l 44 0 m 458 906 q 383 904 419 906 q 326 899 347 903 l 326 71 q 354 69 335 69 q 397 67 374 68 q 440 66 419 67 q 469 65 461 65 q 643 101 574 65 q 755 195 713 136 q 815 333 797 254 q 833 499 833 411 q 816 639 833 567 q 756 771 799 711 q 640 868 713 831 q 458 906 568 906 z "},"E":{"ha":896,"x_min":44,"x_max":807,"o":"m 783 972 l 783 744 l 694 744 l 694 864 l 667 894 l 326 894 l 326 535 l 561 535 l 582 556 l 582 614 l 671 614 l 671 376 l 582 376 l 582 435 l 561 457 l 326 457 l 326 78 l 690 78 l 718 106 l 718 242 l 807 242 l 807 0 l 44 0 l 44 78 l 171 78 l 171 894 l 44 894 l 44 972 l 783 972 z "},"F":{"ha":865,"x_min":44,"x_max":796,"o":"m 326 78 l 475 78 l 475 0 l 44 0 l 44 78 l 171 78 l 171 894 l 44 894 l 44 972 l 796 972 l 796 744 l 707 744 l 707 864 l 679 894 l 326 894 l 326 514 l 578 514 l 599 535 l 599 601 l 688 601 l 688 347 l 599 347 l 599 414 l 578 436 l 326 436 l 326 78 z "},"G":{"ha":1075,"x_min":79,"x_max":1026,"o":"m 929 67 q 863 35 900 50 q 784 8 825 19 q 701 -10 743 -3 q 621 -17 660 -17 q 391 13 492 -17 q 221 105 290 43 q 115 262 151 167 q 79 486 79 357 q 123 718 79 622 q 239 874 167 814 q 405 962 311 935 q 597 989 499 989 q 767 975 700 989 q 886 938 833 961 l 886 700 l 797 700 l 797 846 l 778 874 q 746 885 765 881 q 705 894 726 890 q 660 899 683 897 q 618 900 638 900 q 475 876 542 900 q 359 803 408 853 q 281 674 310 753 q 253 486 253 596 q 351 181 253 289 q 632 72 449 72 q 710 78 678 72 q 768 94 743 85 l 789 119 l 789 382 l 642 382 l 642 460 l 1026 460 l 1026 382 l 929 382 l 929 67 z "},"H":{"ha":1139,"x_min":44,"x_max":1094,"o":"m 442 78 l 442 0 l 44 0 l 44 78 l 171 78 l 171 894 l 44 894 l 44 972 l 442 972 l 442 894 l 326 894 l 326 538 l 813 538 l 813 894 l 697 894 l 697 972 l 1094 972 l 1094 894 l 968 894 l 968 78 l 1094 78 l 1094 0 l 697 0 l 697 78 l 813 78 l 813 460 l 326 460 l 326 78 l 442 78 z "},"I":{"ha":553,"x_min":72,"x_max":481,"o":"m 481 0 l 72 0 l 72 78 l 199 78 l 199 894 l 72 894 l 72 972 l 481 972 l 481 894 l 354 894 l 354 78 l 481 78 l 481 0 z "},"J":{"ha":528,"x_min":50,"x_max":456,"o":"m 50 -157 q 96 -130 74 -146 q 135 -85 118 -114 q 163 -11 153 -57 q 174 108 174 35 l 174 894 l 58 894 l 58 972 l 456 972 l 456 894 l 329 894 l 329 122 q 303 -40 329 24 q 240 -141 278 -103 q 160 -197 203 -179 q 82 -222 117 -215 l 50 -157 z "},"K":{"ha":989,"x_min":44,"x_max":989,"o":"m 417 531 l 719 894 l 607 894 l 607 972 l 950 972 l 950 894 l 840 894 l 510 524 l 903 78 l 989 78 l 989 0 l 765 0 l 400 461 l 326 461 l 326 78 l 442 78 l 442 0 l 44 0 l 44 78 l 171 78 l 171 894 l 44 894 l 44 972 l 442 972 l 442 894 l 326 894 l 326 531 l 417 531 z "},"L":{"ha":846,"x_min":44,"x_max":824,"o":"m 44 894 l 44 972 l 476 972 l 476 894 l 326 894 l 326 78 l 696 78 l 724 108 l 724 300 l 824 300 l 824 0 l 44 0 l 44 78 l 171 78 l 171 894 l 44 894 z "},"M":{"ha":1367,"x_min":44,"x_max":1322,"o":"m 44 894 l 44 972 l 361 972 l 689 350 l 1024 972 l 1322 972 l 1322 894 l 1196 894 l 1196 78 l 1322 78 l 1322 0 l 919 0 l 919 78 l 1046 78 l 1046 697 q 1048 730 1047 704 q 1050 785 1049 756 q 1053 860 1051 819 l 1040 860 l 981 711 l 696 208 l 611 208 l 333 711 l 272 874 l 258 874 l 258 788 q 259 727 258 756 q 260 697 260 699 l 260 78 l 378 78 l 378 0 l 44 0 l 44 78 l 171 78 l 171 894 l 44 894 z "},"N":{"ha":1139,"x_min":44,"x_max":1094,"o":"m 753 972 l 1094 972 l 1094 894 l 968 894 l 968 -17 l 878 -17 l 313 746 l 251 853 l 246 853 l 260 744 l 260 78 l 386 78 l 386 0 l 44 0 l 44 78 l 171 78 l 171 894 l 44 894 l 44 972 l 322 972 l 808 318 l 881 199 l 888 199 l 879 318 l 879 894 l 753 894 l 753 972 z "},"O":{"ha":1153,"x_min":79,"x_max":1074,"o":"m 79 486 q 113 687 79 594 q 209 847 146 779 q 365 951 272 914 q 575 989 457 989 q 786 951 693 989 q 943 847 879 914 q 1040 687 1007 779 q 1074 486 1074 594 q 1040 285 1074 378 q 943 126 1007 193 q 786 21 879 58 q 575 -17 693 -17 q 365 21 457 -17 q 209 126 272 58 q 113 285 146 193 q 79 486 79 378 m 253 486 q 273 319 253 397 q 335 185 293 242 q 440 94 376 128 q 589 61 503 61 q 726 94 668 61 q 823 185 785 128 q 881 319 861 242 q 900 486 900 397 q 880 653 900 575 q 818 788 860 731 q 713 878 776 844 q 563 911 650 911 q 420 878 479 911 q 324 788 361 844 q 269 653 286 731 q 253 486 253 575 z "},"P":{"ha":926,"x_min":44,"x_max":874,"o":"m 44 894 l 44 972 l 189 972 q 324 978 251 972 q 465 983 397 983 q 615 969 542 983 q 746 919 689 954 q 838 827 803 885 q 874 683 874 769 q 838 542 874 601 q 742 446 801 483 q 606 390 683 408 q 447 372 529 372 q 422 372 439 372 q 387 373 406 372 q 351 375 368 374 q 326 378 335 376 l 326 78 l 465 78 l 465 0 l 44 0 l 44 78 l 171 78 l 171 894 l 44 894 m 326 457 q 348 453 333 454 q 379 451 363 453 q 412 450 396 450 q 436 450 428 450 q 538 463 490 450 q 622 504 586 476 q 679 576 658 532 q 700 683 700 621 q 628 851 700 797 q 433 906 557 906 q 371 903 396 906 q 326 897 346 901 l 326 457 z "},"Q":{"ha":1153,"x_min":79,"x_max":1193,"o":"m 1193 -182 q 1062 -257 1132 -233 q 917 -281 992 -281 q 778 -257 853 -281 q 622 -203 704 -233 q 453 -145 540 -174 q 274 -107 365 -117 l 285 -51 q 350 -47 318 -47 q 507 -65 429 -47 q 664 -103 585 -82 q 824 -141 743 -124 q 988 -158 904 -158 q 1078 -151 1032 -158 q 1171 -129 1124 -144 l 1193 -182 m 79 486 q 113 687 79 594 q 209 847 146 779 q 365 951 272 914 q 575 989 457 989 q 786 951 693 989 q 943 847 879 914 q 1040 687 1007 779 q 1074 486 1074 594 q 1040 285 1074 378 q 943 126 1007 193 q 786 21 879 58 q 575 -17 693 -17 q 365 21 457 -17 q 209 126 272 58 q 113 285 146 193 q 79 486 79 378 m 253 486 q 273 319 253 397 q 335 185 293 242 q 440 94 376 128 q 589 61 503 61 q 726 94 668 61 q 823 185 785 128 q 881 319 861 242 q 900 486 900 397 q 880 653 900 575 q 818 788 860 731 q 713 878 776 844 q 563 911 650 911 q 420 878 479 911 q 324 788 361 844 q 269 653 286 731 q 253 486 253 575 z "},"R":{"ha":983,"x_min":44,"x_max":969,"o":"m 326 78 l 446 78 l 446 0 l 44 0 l 44 78 l 171 78 l 171 894 l 44 894 l 44 972 l 185 972 q 321 978 247 972 q 465 983 394 983 q 609 967 542 983 q 725 918 676 951 q 802 833 774 885 q 831 708 831 781 q 769 538 831 608 q 607 439 707 468 l 883 78 l 969 78 l 969 0 l 744 0 l 468 419 l 326 419 l 326 78 m 436 492 q 603 550 543 492 q 664 708 664 608 q 600 858 664 811 q 431 906 536 906 q 370 903 394 906 q 326 897 346 900 l 326 492 l 436 492 z "},"S":{"ha":828,"x_min":86,"x_max":751,"o":"m 175 136 l 200 103 q 269 73 225 85 q 365 61 313 61 q 458 72 415 61 q 532 103 500 82 q 582 156 564 124 q 600 232 600 188 q 562 326 600 289 q 467 393 524 364 q 343 450 410 422 q 219 515 276 478 q 124 606 163 553 q 86 739 86 658 q 176 923 86 857 q 418 989 265 989 q 583 976 514 989 q 701 943 653 964 l 701 704 l 613 704 l 613 854 l 590 889 q 514 906 564 900 q 415 911 464 911 q 285 873 332 911 q 238 765 238 835 q 276 670 238 708 q 371 601 314 632 q 494 542 428 571 q 618 477 561 514 q 713 389 675 440 q 751 261 751 338 q 647 55 751 126 q 363 -17 543 -17 q 192 4 264 -17 q 86 49 119 25 l 86 301 l 175 301 l 175 136 z "},"T":{"ha":969,"x_min":31,"x_max":939,"o":"m 706 0 l 264 0 l 264 78 l 407 78 l 407 894 l 158 894 l 131 864 l 131 685 l 31 685 l 31 972 l 939 972 l 939 685 l 839 685 l 839 864 l 811 894 l 563 894 l 563 78 l 706 78 l 706 0 z "},"U":{"ha":1058,"x_min":17,"x_max":1042,"o":"m 915 332 q 889 178 915 243 q 815 72 863 114 q 699 8 767 29 q 547 -12 631 -12 q 247 66 350 -12 q 143 308 143 144 l 143 894 l 17 894 l 17 972 l 411 972 l 411 894 l 299 894 l 299 338 q 317 216 299 265 q 369 137 335 167 q 453 94 403 107 q 567 81 503 81 q 758 142 689 81 q 826 342 826 203 l 826 894 l 714 894 l 714 972 l 1042 972 l 1042 894 l 915 894 l 915 332 l 915 332 z "},"V":{"ha":1071,"x_min":0,"x_max":1071,"o":"m 853 894 l 726 894 l 726 972 l 1071 972 l 1071 894 l 957 894 l 635 0 l 481 0 l 119 894 l 0 894 l 0 972 l 426 972 l 426 894 l 293 894 l 543 246 l 583 114 l 589 114 l 631 249 l 853 894 z "},"W":{"ha":1467,"x_min":0,"x_max":1467,"o":"m 1246 894 l 1125 894 l 1125 972 l 1467 972 l 1467 894 l 1351 894 l 1119 0 l 958 0 l 742 769 l 524 0 l 363 0 l 119 894 l 0 894 l 0 972 l 415 972 l 415 894 l 283 894 l 432 300 l 468 115 l 474 115 l 528 303 q 536 334 528 304 q 558 411 544 364 q 589 519 572 458 q 624 642 606 579 q 718 972 665 789 l 821 972 l 1018 303 l 1061 118 l 1068 118 l 1110 306 l 1246 894 z "},"X":{"ha":1050,"x_min":14,"x_max":1033,"o":"m 624 972 l 974 972 l 974 894 l 860 894 l 588 521 l 907 78 l 1033 78 l 1033 0 l 629 0 l 629 78 l 731 78 l 486 421 l 256 78 l 363 78 l 363 0 l 14 0 l 14 78 l 131 78 l 435 489 l 143 894 l 19 894 l 19 972 l 433 972 l 433 894 l 322 894 l 538 585 l 746 894 l 624 894 l 624 972 z "},"Y":{"ha":1010,"x_min":0,"x_max":1010,"o":"m 664 972 l 1010 972 l 1010 894 l 892 894 l 596 413 l 596 78 l 722 78 l 722 0 l 314 0 l 314 78 l 440 78 l 440 411 l 126 894 l 0 894 l 0 972 l 419 972 l 419 894 l 303 894 l 554 490 l 792 894 l 664 894 l 664 972 z "},"Z":{"ha":933,"x_min":56,"x_max":878,"o":"m 56 78 l 692 894 l 218 894 l 190 864 l 190 690 l 90 690 l 90 972 l 869 972 l 869 894 l 233 78 l 750 78 l 778 108 l 778 282 l 878 282 l 878 0 l 56 0 l 56 78 z "},"[":{"ha":481,"x_min":128,"x_max":426,"o":"m 128 972 l 426 972 l 426 914 l 267 914 l 267 -261 l 426 -261 l 426 -319 l 128 -319 l 128 972 z "},"\\":{"ha":594,"x_min":-75,"x_max":638,"o":"m 638 -149 l 557 -186 l -75 957 l 6 997 l 638 -149 z "},"]":{"ha":481,"x_min":54,"x_max":353,"o":"m 353 -319 l 54 -319 l 54 -261 l 214 -261 l 214 914 l 54 914 l 54 972 l 353 972 l 353 -319 z "},"^":{"ha":833,"x_min":106,"x_max":714,"o":"m 394 988 l 449 988 l 714 603 l 572 603 l 397 879 l 194 603 l 106 603 l 394 988 z "},"_":{"ha":639,"x_min":0,"x_max":639,"o":"m 0 -196 l 639 -196 l 639 -272 l 0 -272 l 0 -196 z "},"`":{"ha":478,"x_min":83,"x_max":394,"o":"m 394 854 l 356 822 l 83 985 l 83 1042 l 258 1042 l 394 854 z "},"a":{"ha":790,"x_min":60,"x_max":742,"o":"m 644 193 q 646 128 644 161 q 650 69 647 96 l 742 69 l 742 0 l 524 0 l 510 132 l 503 132 q 477 78 496 104 q 430 31 458 51 q 363 -3 401 10 q 276 -15 324 -15 q 190 -1 229 -15 q 121 38 150 13 q 76 98 92 63 q 60 178 60 133 q 88 290 60 246 q 172 360 117 335 q 311 397 228 386 q 506 410 394 408 q 508 452 508 432 q 508 492 508 472 q 479 623 508 578 q 375 668 450 668 q 315 665 347 668 q 257 649 283 663 l 257 521 l 132 521 l 132 675 q 250 722 182 701 q 410 743 318 743 q 537 723 489 743 q 610 670 585 703 q 644 597 636 638 q 651 515 651 556 q 648 348 651 428 q 644 193 644 268 m 340 78 q 400 88 374 78 q 447 115 426 99 q 481 150 467 131 q 506 188 496 169 l 506 353 q 359 341 415 353 q 271 310 303 329 q 227 263 239 290 q 215 206 215 236 q 249 110 215 143 q 340 78 282 78 z "},"b":{"ha":853,"x_min":0,"x_max":790,"o":"m 118 972 l 0 972 l 0 1042 l 264 1042 l 264 586 l 268 586 q 357 701 294 660 q 497 743 419 743 q 715 654 639 743 q 790 378 790 565 q 685 85 790 185 q 386 -14 581 -14 q 308 -9 347 -14 q 231 3 268 -4 q 165 21 194 11 q 118 42 136 31 l 118 972 m 451 650 q 331 605 376 650 q 264 489 286 560 l 264 85 q 331 60 292 69 q 417 51 371 51 q 576 135 519 51 q 633 378 633 218 q 624 485 633 435 q 592 572 614 535 q 535 629 569 608 q 451 650 501 650 z "},"c":{"ha":726,"x_min":63,"x_max":669,"o":"m 669 93 q 577 19 640 53 q 428 -15 514 -15 q 267 12 336 -15 q 153 88 199 39 q 85 208 107 138 q 63 364 63 278 q 160 646 63 549 q 426 743 258 743 q 553 733 503 743 q 644 703 603 724 l 644 522 l 519 522 l 519 656 q 436 668 499 668 q 343 653 383 668 q 275 603 303 638 q 233 510 247 568 q 219 367 219 451 q 235 260 219 311 q 281 172 250 210 q 358 111 311 133 q 467 89 404 89 q 526 96 500 89 q 571 110 551 103 q 606 128 590 118 q 635 149 621 138 l 669 93 z "},"d":{"ha":868,"x_min":63,"x_max":824,"o":"m 581 144 q 553 83 572 113 q 508 32 535 54 q 446 -3 481 10 q 371 -15 411 -15 q 140 76 217 -15 q 63 360 63 167 q 88 524 63 453 q 161 644 114 596 q 275 718 208 693 q 424 743 342 743 q 474 742 453 743 q 513 738 494 740 q 547 730 531 735 q 583 719 564 725 l 583 972 l 465 972 l 465 1042 l 729 1042 l 729 69 l 824 69 l 824 0 l 599 0 l 586 144 l 581 144 m 403 78 q 522 121 479 78 q 583 240 565 164 l 583 650 q 522 671 556 664 q 432 678 488 678 q 341 656 381 678 q 274 592 301 633 q 233 491 247 550 q 219 360 219 432 q 230 250 219 301 q 263 160 240 199 q 319 100 285 122 q 403 78 354 78 z "},"e":{"ha":786,"x_min":63,"x_max":714,"o":"m 693 96 q 591 15 657 44 q 438 -15 525 -15 q 276 12 346 -15 q 158 88 206 39 q 87 208 111 138 q 63 364 63 278 q 156 647 63 550 q 417 743 249 743 q 526 729 472 743 q 621 683 579 715 q 688 599 663 651 q 714 468 714 546 q 711 418 714 444 q 703 363 708 392 l 219 363 q 235 251 219 301 q 284 165 251 201 q 365 109 317 129 q 481 89 414 89 q 581 107 535 89 q 656 149 628 125 l 693 96 m 411 678 q 335 665 368 678 q 279 624 303 653 q 242 547 256 594 q 224 428 228 499 l 558 428 q 560 453 560 440 q 561 478 561 467 q 524 624 561 569 q 411 678 488 678 z "},"f":{"ha":535,"x_min":49,"x_max":626,"o":"m 482 1042 q 569 1033 531 1042 q 626 1018 607 1025 l 626 883 l 493 883 l 493 972 q 413 964 447 972 q 357 932 379 956 q 324 867 335 908 q 313 760 313 826 l 313 729 l 490 729 l 490 640 l 313 640 l 313 69 l 461 69 l 461 0 l 64 0 l 64 69 l 167 69 l 167 640 l 49 640 l 49 729 l 167 729 l 167 751 q 251 967 167 892 q 482 1042 335 1042 z "},"g":{"ha":822,"x_min":44,"x_max":808,"o":"m 808 729 l 808 640 l 646 640 q 682 586 665 621 q 699 503 699 551 q 618 338 699 400 q 386 275 538 275 q 339 276 358 275 q 297 282 319 276 q 280 252 290 268 q 269 218 269 236 q 306 174 269 189 q 396 148 342 160 q 514 124 450 136 q 633 90 578 113 q 724 29 688 67 q 760 -69 760 -8 q 733 -162 760 -122 q 656 -227 706 -201 q 539 -265 607 -253 q 390 -278 471 -278 q 131 -232 217 -278 q 44 -106 44 -186 q 97 14 44 -28 q 246 83 150 56 q 188 117 210 99 q 165 171 165 135 q 174 205 165 188 q 196 238 182 222 q 226 267 210 254 q 258 289 243 281 q 122 369 169 313 q 74 506 74 426 q 153 668 74 607 q 386 729 232 729 l 808 729 m 614 -103 q 581 -30 614 -57 q 499 15 549 -3 q 393 43 450 32 q 286 69 336 54 q 209 -1 228 35 q 190 -76 190 -36 q 249 -174 190 -135 q 418 -212 307 -212 q 513 -203 475 -212 q 573 -179 550 -194 q 605 -144 596 -164 q 614 -103 614 -125 m 219 506 q 228 439 219 469 q 255 387 236 408 q 306 353 274 365 q 386 340 338 340 q 514 385 475 340 q 553 506 553 431 q 551 554 553 535 q 545 589 549 574 q 538 616 542 604 q 529 640 533 628 q 461 659 497 654 q 386 664 425 664 q 256 625 292 664 q 219 506 219 586 z "},"h":{"ha":918,"x_min":21,"x_max":892,"o":"m 892 0 l 551 0 l 551 69 l 643 69 l 643 411 q 613 588 643 526 q 504 650 582 650 q 426 636 463 650 q 363 600 390 622 q 315 551 335 578 q 285 497 294 524 l 285 69 l 376 69 l 376 0 l 36 0 l 36 69 l 139 69 l 139 972 l 21 972 l 21 1042 l 285 1042 l 285 582 l 286 582 q 387 697 318 650 q 551 743 456 743 q 650 730 606 743 q 725 682 694 717 q 772 589 756 647 q 789 440 789 531 l 789 69 l 892 69 l 892 0 z "},"i":{"ha":471,"x_min":63,"x_max":414,"o":"m 414 0 l 63 0 l 63 69 l 165 69 l 165 660 l 63 660 l 63 729 l 311 729 l 311 69 l 414 69 l 414 0 m 135 954 q 163 1018 135 994 q 236 1042 192 1042 q 310 1018 283 1042 q 338 954 338 994 q 310 890 338 914 q 236 867 283 867 q 163 890 192 867 q 135 954 135 914 z "},"j":{"ha":453,"x_min":38,"x_max":336,"o":"m 165 660 l 63 660 l 63 729 l 311 729 l 311 86 q 283 -86 311 -18 q 215 -197 254 -154 q 137 -259 176 -239 q 75 -286 97 -279 l 38 -226 q 78 -201 56 -218 q 119 -151 100 -183 q 152 -69 139 -119 q 165 58 165 -18 l 165 660 m 133 954 q 162 1018 133 994 q 235 1042 190 1042 q 309 1018 282 1042 q 336 954 336 994 q 309 890 336 914 q 235 867 282 867 q 162 890 190 867 q 133 954 133 914 z "},"k":{"ha":808,"x_min":21,"x_max":794,"o":"m 440 729 l 746 729 l 746 660 l 657 660 l 442 411 l 725 69 l 794 69 l 794 0 l 594 0 l 336 346 l 285 346 l 285 69 l 388 69 l 388 0 l 36 0 l 36 69 l 139 69 l 139 972 l 21 972 l 21 1042 l 285 1042 l 285 401 l 333 401 l 546 660 l 440 660 l 440 729 z "},"l":{"ha":471,"x_min":47,"x_max":414,"o":"m 414 0 l 63 0 l 63 69 l 165 69 l 165 972 l 47 972 l 47 1042 l 311 1042 l 311 69 l 414 69 l 414 0 z "},"m":{"ha":1349,"x_min":49,"x_max":1322,"o":"m 857 0 l 521 0 l 521 69 l 611 69 l 611 407 q 606 511 611 465 q 587 588 601 557 q 544 634 572 618 q 472 650 517 650 q 411 638 439 650 q 361 606 383 626 q 323 558 339 585 q 297 500 307 531 l 297 69 l 388 69 l 388 0 l 49 0 l 49 69 l 151 69 l 151 660 l 49 660 l 49 729 l 297 729 l 297 582 l 299 582 q 383 697 322 650 q 531 743 443 743 q 602 736 567 743 q 667 710 638 729 q 717 656 696 690 q 747 567 739 622 q 784 633 761 601 q 838 690 807 665 q 908 728 869 714 q 993 743 947 743 q 1092 729 1050 743 q 1163 681 1135 715 q 1206 588 1192 647 q 1219 438 1219 529 l 1219 69 l 1322 69 l 1322 0 l 983 0 l 983 69 l 1074 69 l 1074 433 q 1068 526 1074 485 q 1047 594 1063 567 q 1004 635 1032 621 q 931 650 976 650 q 816 605 857 650 q 757 486 775 560 l 757 69 l 857 69 l 857 0 z "},"n":{"ha":931,"x_min":49,"x_max":904,"o":"m 904 0 l 564 0 l 564 69 l 656 69 l 656 418 q 622 589 656 528 q 500 650 589 650 q 428 638 461 650 q 370 604 396 625 q 326 556 344 583 q 297 497 307 528 l 297 69 l 389 69 l 389 0 l 49 0 l 49 69 l 151 69 l 151 660 l 49 660 l 49 729 l 297 729 l 297 585 l 299 585 q 392 697 331 651 q 542 743 454 743 q 653 730 604 743 q 734 682 701 717 q 784 589 767 647 q 801 440 801 531 l 801 69 l 904 69 l 904 0 z "},"o":{"ha":864,"x_min":63,"x_max":801,"o":"m 63 364 q 89 526 63 456 q 163 645 115 597 q 280 718 211 693 q 432 743 349 743 q 599 716 529 743 q 714 640 669 689 q 780 520 758 590 q 801 364 801 450 q 776 202 801 272 q 702 84 750 132 q 585 11 654 36 q 432 -14 517 -14 q 268 13 338 -14 q 153 90 199 40 q 85 208 107 139 q 63 364 63 278 m 219 364 q 232 240 219 297 q 273 142 244 183 q 347 76 301 100 q 457 51 392 51 q 592 126 539 51 q 644 364 644 201 q 632 488 644 431 q 592 588 619 546 q 523 654 565 631 q 419 678 481 678 q 274 603 328 678 q 219 364 219 528 z "},"p":{"ha":883,"x_min":47,"x_max":821,"o":"m 399 -278 l 47 -278 l 47 -208 l 150 -208 l 150 660 l 47 660 l 47 729 l 296 729 l 296 583 l 297 583 q 384 700 328 657 q 532 743 440 743 q 745 658 669 743 q 821 381 821 574 q 795 215 821 289 q 722 90 769 142 q 606 12 674 39 q 456 -15 539 -15 q 406 -14 428 -15 q 367 -10 385 -12 q 331 -1 349 -7 q 296 11 314 4 l 296 -208 l 399 -208 l 399 -278 m 478 650 q 359 608 403 650 q 296 488 315 565 l 296 81 q 358 56 324 63 q 449 50 392 50 q 540 74 500 50 q 608 142 581 99 q 651 247 636 186 q 665 381 665 307 q 656 490 665 440 q 624 574 646 539 q 567 630 603 610 q 478 650 531 650 z "},"q":{"ha":856,"x_min":63,"x_max":833,"o":"m 579 129 q 549 74 568 100 q 502 28 529 49 q 440 -3 475 8 q 363 -15 406 -15 q 139 76 215 -15 q 63 358 63 168 q 164 646 63 549 q 456 743 265 743 q 539 739 497 743 q 617 728 581 735 q 684 713 654 721 q 731 697 714 706 l 731 -208 l 833 -208 l 833 -278 l 482 -278 l 482 -208 l 585 -208 l 585 129 l 579 129 m 403 78 q 522 121 478 78 q 585 239 565 164 l 585 657 q 519 671 557 664 q 432 678 481 678 q 274 602 329 678 q 219 363 219 526 q 229 249 219 301 q 260 159 239 197 q 317 99 282 121 q 403 78 351 78 z "},"r":{"ha":601,"x_min":49,"x_max":564,"o":"m 394 604 q 342 565 363 588 q 297 501 321 543 l 297 69 l 419 69 l 419 0 l 49 0 l 49 69 l 151 69 l 151 660 l 49 660 l 49 729 l 297 729 l 297 589 l 303 589 q 358 669 326 635 q 431 729 390 703 l 564 729 l 564 604 l 394 604 z "},"s":{"ha":675,"x_min":83,"x_max":604,"o":"m 461 165 q 433 231 461 203 q 364 284 406 260 q 274 333 322 308 q 183 388 225 357 q 114 462 142 419 q 86 564 86 504 q 106 637 86 604 q 158 693 125 669 q 235 730 190 717 q 329 743 279 743 q 403 740 371 743 q 461 733 435 738 q 511 721 488 728 q 560 706 535 714 l 560 518 l 471 518 l 471 628 l 444 658 q 406 665 426 663 q 361 668 385 668 q 262 642 294 668 q 229 578 229 617 q 257 513 229 540 q 326 460 285 485 q 417 413 368 436 q 507 359 465 389 q 576 290 549 329 q 604 197 604 251 q 581 108 604 147 q 519 42 558 69 q 426 1 479 15 q 313 -14 372 -14 q 183 3 246 -14 q 83 44 119 21 l 83 226 l 172 226 l 172 121 l 200 92 q 243 69 218 78 q 308 61 268 61 q 418 89 375 61 q 461 165 461 117 z "},"t":{"ha":581,"x_min":24,"x_max":554,"o":"m 24 729 l 147 729 l 147 903 l 293 903 l 293 729 l 524 729 l 524 640 l 293 640 l 293 235 q 315 111 293 147 q 388 75 338 75 q 462 90 431 75 q 519 124 493 106 l 554 69 q 520 42 542 57 q 471 15 499 28 q 409 -6 443 3 q 339 -14 375 -14 q 197 34 246 -14 q 147 193 147 82 l 147 640 l 24 640 l 24 729 z "},"u":{"ha":899,"x_min":26,"x_max":860,"o":"m 121 289 q 125 476 121 381 q 129 660 129 572 l 26 660 l 26 729 l 274 729 q 269 522 271 621 q 267 315 267 422 q 273 215 267 258 q 297 140 279 171 q 344 94 314 110 q 422 79 375 79 q 539 124 492 79 q 611 243 586 168 l 611 660 l 510 660 l 510 729 l 757 729 l 757 69 l 860 69 l 860 0 l 628 0 l 618 158 l 611 158 q 584 99 604 129 q 533 43 564 68 q 463 2 503 18 q 375 -14 422 -14 q 265 -1 313 -14 q 186 47 218 13 q 138 140 154 82 q 121 289 121 199 z "},"v":{"ha":793,"x_min":-15,"x_max":808,"o":"m 331 0 l 64 660 l -15 660 l -15 729 l 315 729 l 315 660 l 222 660 l 389 222 l 425 71 l 432 71 l 471 222 l 626 660 l 542 660 l 542 729 l 808 729 l 808 660 l 722 660 l 481 0 l 331 0 z "},"w":{"ha":1139,"x_min":-15,"x_max":1154,"o":"m 244 0 l 68 660 l -15 660 l -15 729 l 313 729 l 313 660 l 219 660 l 335 192 l 351 85 l 360 85 l 381 193 l 547 711 l 657 711 l 799 224 l 829 85 l 836 85 l 863 221 l 972 660 l 886 660 l 886 729 l 1154 729 l 1154 660 l 1067 660 l 883 0 l 721 0 l 610 415 q 605 435 608 417 q 596 478 601 454 q 582 538 590 504 l 574 538 q 557 478 564 503 q 544 436 550 454 q 539 415 539 418 l 397 0 l 244 0 z "},"x":{"ha":814,"x_min":17,"x_max":797,"o":"m 469 390 l 715 69 l 797 69 l 797 0 l 458 0 l 458 69 l 551 69 l 381 311 l 208 69 l 285 69 l 285 0 l 17 0 l 17 69 l 104 69 l 336 361 l 103 660 l 26 660 l 26 729 l 360 729 l 360 660 l 269 660 l 429 439 l 585 660 l 508 660 l 508 729 l 769 729 l 769 660 l 683 660 l 469 390 z "},"y":{"ha":789,"x_min":-17,"x_max":806,"o":"m 65 660 l -17 660 l -17 729 l 342 729 l 342 660 l 225 660 l 414 199 l 442 93 l 449 93 l 475 200 l 624 660 l 539 660 l 539 729 l 806 729 l 806 660 l 717 660 l 489 0 q 447 -105 469 -57 q 402 -190 424 -153 q 360 -249 381 -226 q 326 -278 340 -272 l 186 -278 l 186 -153 l 328 -153 q 346 -131 338 -142 q 363 -103 354 -119 q 381 -62 371 -86 q 403 0 390 -37 l 351 0 l 65 660 z "},"z":{"ha":763,"x_min":79,"x_max":696,"o":"m 682 251 l 682 0 l 79 0 l 79 69 l 536 660 l 235 660 l 207 632 l 207 493 l 118 493 l 118 729 l 696 729 l 696 660 l 236 69 l 565 69 l 593 97 l 593 251 l 682 251 z "},"{":{"ha":543,"x_min":83,"x_max":501,"o":"m 208 153 q 176 264 208 224 q 83 304 144 304 l 83 349 q 176 391 144 349 q 208 494 208 433 l 208 825 q 246 932 208 892 q 358 972 283 972 l 501 972 l 501 914 l 428 914 q 367 894 386 914 q 347 831 347 875 l 347 507 q 331 429 347 461 q 289 377 314 397 q 233 347 264 357 q 175 333 203 336 l 175 325 q 232 311 201 322 q 288 278 263 300 q 331 223 314 256 q 347 146 347 190 l 347 -178 q 367 -241 347 -221 q 431 -261 386 -261 l 501 -261 l 501 -319 l 358 -319 q 249 -283 289 -319 q 208 -174 208 -246 l 208 153 z "},"|":{"ha":369,"x_min":143,"x_max":225,"o":"m 143 972 l 225 972 l 225 -181 l 143 -181 l 143 972 z "},"}":{"ha":543,"x_min":42,"x_max":460,"o":"m 335 501 q 367 390 335 431 q 460 350 400 350 l 460 306 q 367 263 400 306 q 335 160 335 221 l 335 -172 q 297 -279 335 -239 q 183 -319 260 -319 l 42 -319 l 42 -261 l 115 -261 q 176 -242 157 -261 q 196 -178 196 -222 l 196 147 q 210 225 196 193 q 247 277 224 257 q 297 308 269 297 q 353 321 325 318 l 353 329 q 297 343 325 332 q 247 376 269 354 q 210 431 225 399 q 196 508 196 464 l 196 831 q 177 894 196 874 q 114 914 158 914 l 42 914 l 42 972 l 185 972 q 294 935 254 972 q 335 826 335 899 l 335 501 z "},"~":{"ha":833,"x_min":85,"x_max":749,"o":"m 85 460 q 199 558 142 535 q 304 581 256 581 q 381 566 344 581 q 454 533 418 551 q 526 501 490 515 q 601 486 563 486 q 660 497 631 486 q 722 533 690 507 l 749 489 q 658 413 704 431 q 567 396 611 396 q 488 410 526 396 q 413 443 450 425 q 338 476 375 461 q 263 490 300 490 q 194 476 228 490 q 124 418 160 461 l 85 460 z "}," ":{"ha":381,"x_min":0,"x_max":0,"o":""},"¡":{"ha":511,"x_min":110,"x_max":326,"o":"m 240 397 l 293 151 l 293 -272 l 147 -272 l 147 151 l 199 397 l 240 397 m 326 619 q 297 551 326 576 q 219 526 267 526 q 140 551 171 526 q 110 619 110 576 q 140 686 110 661 q 219 711 171 711 q 297 686 267 711 q 326 619 326 661 z "},"¢":{"ha":833,"x_min":94,"x_max":760,"o":"m 760 108 q 722 61 746 83 q 665 22 697 39 q 594 -6 632 4 q 513 -17 556 -17 l 513 -236 l 424 -236 l 424 -11 q 290 26 350 -3 q 185 102 229 56 q 118 211 142 149 q 94 347 94 274 q 118 501 94 433 q 185 618 142 569 q 290 697 229 667 q 424 738 350 726 l 424 917 l 513 917 l 513 743 q 634 732 588 743 q 722 701 681 721 l 722 469 l 633 469 l 633 660 q 617 666 629 663 q 590 673 606 669 q 558 678 575 676 q 525 681 542 681 l 510 681 l 510 69 q 521 69 515 69 q 532 68 526 68 q 632 88 585 68 q 725 151 679 107 l 760 108 m 251 374 q 296 202 251 275 q 429 94 340 129 l 429 669 q 301 572 350 647 q 251 374 251 496 z "},"£":{"ha":833,"x_min":47,"x_max":761,"o":"m 47 529 l 179 529 q 138 622 156 574 q 119 742 119 671 q 143 844 119 799 q 209 922 167 890 q 310 972 251 954 q 442 989 369 989 q 610 976 538 989 q 726 943 682 963 l 726 704 l 638 704 l 638 864 l 610 897 q 581 905 594 901 q 548 910 567 908 q 503 913 529 913 q 440 914 478 914 q 376 904 407 914 q 321 875 344 894 q 283 827 297 856 q 269 761 269 799 q 290 635 269 690 q 331 529 311 581 l 571 529 l 571 457 l 358 457 q 372 388 369 422 q 375 314 375 353 q 372 270 375 292 q 356 225 368 249 q 319 175 343 201 q 257 115 296 149 l 644 115 l 672 143 l 672 272 l 761 272 l 761 0 l 51 0 l 51 46 q 201 138 151 83 q 250 275 250 192 q 242 362 250 319 q 215 457 235 404 l 47 457 l 47 529 z "},"¤":{"ha":833,"x_min":56,"x_max":776,"o":"m 56 238 l 185 350 l 238 367 q 207 419 215 390 q 199 481 199 447 q 208 542 199 513 q 238 594 218 571 l 185 611 l 57 725 l 142 803 l 269 688 l 289 640 q 348 668 317 658 q 417 678 379 678 q 544 640 494 675 l 564 688 l 690 801 l 776 724 l 649 611 l 596 596 q 624 543 615 572 q 635 481 633 514 q 596 365 635 413 l 649 350 l 776 236 l 689 158 l 563 272 l 544 319 q 417 286 492 286 q 347 295 379 286 q 285 319 315 304 l 269 274 l 140 160 l 56 238 m 417 367 q 511 399 474 367 q 549 481 549 431 q 511 564 549 531 q 417 597 474 597 q 322 564 360 597 q 285 481 285 531 q 322 399 285 431 q 417 367 360 367 z "},"¥":{"ha":833,"x_min":-74,"x_max":904,"o":"m 561 972 l 904 972 l 904 903 l 785 903 l 539 465 l 760 465 l 760 393 l 508 393 l 508 306 l 760 306 l 760 233 l 508 233 l 508 69 l 635 69 l 635 0 l 226 0 l 226 69 l 353 69 l 353 233 l 101 233 l 101 306 l 353 306 l 353 393 l 101 393 l 101 465 l 321 465 l 53 903 l -74 903 l -74 972 l 347 972 l 347 903 l 228 903 l 465 488 l 688 903 l 561 903 l 561 972 z "},"¦":{"ha":369,"x_min":143,"x_max":225,"o":"m 143 264 l 225 264 l 225 -181 l 143 -181 l 143 264 m 225 528 l 143 528 l 143 972 l 225 972 l 225 528 z "},"§":{"ha":826,"x_min":92,"x_max":733,"o":"m 542 60 q 508 126 542 101 q 425 170 475 151 q 317 206 375 189 q 208 250 258 224 q 125 317 158 276 q 92 422 92 357 q 108 487 92 457 q 151 542 124 517 q 216 587 179 567 q 296 624 253 607 q 235 654 264 638 q 186 694 207 671 q 153 747 165 717 q 140 815 140 776 q 159 885 140 853 q 212 940 178 917 q 294 976 246 963 q 400 989 342 989 q 544 981 483 989 q 654 957 604 972 l 654 815 l 554 815 l 554 903 q 506 919 538 910 q 438 928 474 928 q 367 919 396 928 q 319 896 338 910 q 292 864 300 882 q 283 828 283 846 q 317 760 283 786 q 400 713 350 733 q 508 672 450 692 q 617 627 567 653 q 700 563 667 601 q 733 468 733 525 q 715 395 733 428 q 667 337 696 363 q 602 290 638 311 q 533 256 567 269 q 592 228 564 243 q 640 194 619 214 q 673 151 661 175 q 685 94 685 126 q 663 8 685 46 q 601 -58 642 -31 q 504 -99 561 -85 q 378 -114 447 -114 q 125 -72 243 -114 l 125 74 l 225 74 l 225 -14 q 282 -39 242 -25 q 375 -53 322 -53 q 496 -19 450 -53 q 542 60 542 14 m 590 433 q 572 490 590 467 q 522 532 553 514 q 450 565 490 550 q 368 594 410 579 q 319 568 343 583 q 276 535 294 553 q 246 496 257 517 q 235 453 235 475 q 254 390 235 417 q 306 344 274 364 q 378 310 338 325 q 463 282 419 296 q 510 315 488 296 q 551 353 533 333 q 580 394 569 374 q 590 433 590 414 z "},"¨":{"ha":686,"x_min":83,"x_max":603,"o":"m 83 956 q 108 1020 83 996 q 172 1044 132 1044 q 237 1020 213 1044 q 261 956 261 996 q 237 894 261 918 q 172 869 213 869 q 108 894 132 869 q 83 956 83 918 m 425 956 q 451 1020 425 996 q 515 1044 476 1044 q 579 1020 556 1044 q 603 956 603 996 q 579 894 603 918 q 515 869 556 869 q 451 894 476 869 q 425 956 425 918 z "},"©":{"ha":1260,"x_min":108,"x_max":1138,"o":"m 108 403 q 151 609 108 518 q 267 763 194 700 q 433 858 339 825 q 629 892 528 892 q 823 858 731 892 q 985 763 915 825 q 1097 609 1056 700 q 1138 403 1138 518 q 1097 197 1138 288 q 985 43 1056 106 q 823 -53 915 -19 q 629 -86 731 -86 q 422 -53 517 -86 q 256 43 326 -19 q 147 197 186 106 q 108 403 108 288 m 183 403 q 217 229 183 307 q 310 97 250 151 q 451 11 369 42 q 629 -19 533 -19 q 806 11 726 -19 q 943 97 886 42 q 1031 229 1000 151 q 1063 403 1063 307 q 1029 576 1063 499 q 938 710 996 654 q 800 795 879 765 q 629 825 721 825 q 444 794 526 825 q 304 709 363 764 q 215 576 246 654 q 183 403 183 499 m 757 288 l 821 288 l 821 149 q 753 122 793 129 q 668 114 713 114 q 530 133 593 114 q 421 188 467 151 q 349 279 375 225 q 324 404 324 333 q 352 531 324 476 q 426 621 381 585 q 531 676 472 657 q 649 694 589 694 q 753 687 711 694 q 826 664 794 679 l 826 513 l 757 513 l 757 621 q 741 626 753 624 q 715 631 729 629 q 686 635 701 633 q 660 636 671 636 q 523 574 572 636 q 474 404 474 513 q 485 316 474 358 q 520 242 496 274 q 583 191 544 210 q 676 172 622 172 q 728 179 706 172 q 757 192 750 186 l 757 288 z "},"ª":{"ha":672,"x_min":76,"x_max":617,"o":"m 133 833 l 125 935 q 166 951 144 943 q 216 965 188 960 q 281 974 244 971 q 368 978 318 978 q 506 942 468 978 q 543 838 543 906 q 542 778 543 811 q 541 713 542 746 q 540 649 540 679 q 539 597 539 619 l 617 597 l 617 528 l 446 528 l 432 610 l 425 610 q 403 581 417 597 q 367 550 389 564 q 314 526 346 536 q 239 517 282 517 q 122 551 167 517 q 76 646 76 585 q 101 716 76 689 q 167 758 125 743 q 264 780 208 774 q 381 786 319 786 q 402 785 392 786 q 424 785 413 785 q 425 809 425 793 q 425 832 425 825 q 421 867 425 850 q 404 897 417 883 q 370 917 392 910 q 315 925 349 925 q 276 922 297 925 q 232 911 254 918 l 232 833 l 133 833 m 286 582 q 341 591 318 582 q 381 613 364 600 q 407 640 397 625 q 424 667 417 654 l 424 739 q 392 740 408 740 q 360 740 375 740 q 301 735 329 740 q 251 720 272 731 q 217 693 229 710 q 204 654 204 676 q 225 604 204 626 q 286 582 246 582 z "},"«":{"ha":736,"x_min":38,"x_max":656,"o":"m 342 360 l 607 646 l 647 618 l 482 369 l 656 107 l 618 78 l 342 360 m 38 360 l 372 649 l 413 619 l 197 368 l 422 106 l 381 75 l 38 360 z "},"¬":{"ha":833,"x_min":93,"x_max":757,"o":"m 93 539 l 757 539 l 757 275 l 658 275 l 658 450 l 93 450 l 93 539 z "},"­":{"ha":660,"x_min":111,"x_max":550,"o":"m 111 436 l 550 436 l 550 347 l 111 347 l 111 436 z "},"®":{"ha":1090,"x_min":151,"x_max":942,"o":"m 151 626 q 183 785 151 715 q 269 901 215 854 q 395 973 324 949 q 546 997 467 997 q 700 973 628 997 q 826 901 772 949 q 910 785 879 854 q 942 626 942 715 q 910 467 942 536 q 823 351 878 399 q 697 280 768 304 q 546 256 625 256 q 397 280 468 256 q 272 351 326 304 q 184 467 217 399 q 151 626 151 536 m 218 626 q 245 497 218 554 q 317 398 272 439 q 422 335 363 357 q 546 314 481 314 q 674 335 614 314 q 778 397 733 357 q 849 495 824 438 q 875 626 875 553 q 848 756 875 699 q 776 854 821 814 q 671 917 731 894 q 546 939 611 939 q 417 917 476 939 q 313 854 357 894 q 243 756 268 814 q 218 626 218 699 m 494 476 l 550 476 l 550 429 l 356 429 l 356 476 l 410 476 l 410 797 l 356 797 l 356 844 l 417 844 q 483 847 444 844 q 547 850 522 850 q 615 844 582 850 q 672 823 647 838 q 710 786 696 808 q 725 733 725 764 q 695 662 725 690 q 622 621 665 633 l 724 476 l 761 476 l 761 429 l 654 429 l 549 615 l 494 615 l 494 476 m 540 804 q 513 803 522 804 q 494 800 504 803 l 494 657 l 543 657 q 633 733 633 657 q 607 787 633 769 q 540 804 581 804 z "},"¯":{"ha":567,"x_min":83,"x_max":483,"o":"m 83 928 l 83 1004 l 483 1004 l 483 928 l 83 928 z "},"°":{"ha":658,"x_min":140,"x_max":558,"o":"m 140 793 q 156 872 140 836 q 199 934 171 908 q 265 974 226 960 q 349 989 303 989 q 499 940 440 989 q 558 793 558 890 q 499 649 558 701 q 349 597 440 597 q 265 610 303 597 q 199 649 226 624 q 156 711 171 675 q 140 793 140 747 m 224 793 q 260 702 224 738 q 349 667 296 667 q 442 699 408 667 q 475 793 475 732 q 441 885 475 851 q 349 919 407 919 q 256 885 289 919 q 224 793 224 851 z "},"±":{"ha":833,"x_min":67,"x_max":767,"o":"m 67 682 l 375 682 l 375 972 l 458 972 l 458 682 l 767 682 l 767 607 l 458 607 l 458 394 l 375 394 l 375 607 l 67 607 l 67 682 m 67 321 l 767 321 l 767 246 l 67 246 l 67 321 z "},"²":{"ha":667,"x_min":92,"x_max":592,"o":"m 199 879 l 110 879 l 110 1051 q 156 1079 133 1067 q 204 1101 178 1092 q 264 1116 231 1111 q 344 1121 297 1121 q 445 1108 404 1121 q 511 1073 486 1094 q 547 1022 536 1051 q 558 960 558 993 q 533 867 558 914 q 463 776 508 821 q 353 691 417 732 q 215 615 290 650 l 215 607 l 264 615 l 503 615 l 503 710 l 592 710 l 592 528 l 92 528 l 92 615 q 215 685 156 647 q 322 764 275 722 q 397 850 368 806 q 425 940 425 894 q 419 987 425 967 q 399 1022 414 1007 q 360 1044 385 1036 q 296 1051 335 1051 q 244 1047 268 1051 q 199 1032 219 1043 l 199 879 z "},"³":{"ha":667,"x_min":79,"x_max":593,"o":"m 321 583 q 385 593 358 583 q 428 618 411 603 q 452 652 444 633 q 460 689 460 671 q 423 772 460 747 q 301 797 386 797 l 249 797 l 249 842 l 451 1042 l 188 1042 l 188 911 l 99 911 l 99 1111 l 563 1111 l 563 1042 l 358 860 l 358 858 l 407 864 q 478 853 444 864 q 537 823 511 843 q 578 772 563 803 q 593 701 593 742 q 515 565 593 611 q 303 518 436 518 q 179 540 239 518 q 79 589 119 563 l 79 689 l 204 689 l 204 615 q 246 595 218 607 q 321 583 274 583 z "},"´":{"ha":478,"x_min":83,"x_max":394,"o":"m 219 1042 l 394 1042 l 394 985 l 122 822 l 83 854 l 219 1042 z "},"µ":{"ha":907,"x_min":26,"x_max":868,"o":"m 246 -278 l 129 -278 l 129 660 l 26 660 l 26 729 l 275 729 l 275 315 q 281 214 275 258 q 305 138 288 169 q 353 91 322 107 q 431 75 383 75 q 547 122 500 75 q 619 243 594 168 l 619 660 l 517 660 l 517 729 l 765 729 l 765 69 l 868 69 l 868 0 l 625 0 l 625 158 l 618 158 q 592 98 611 129 q 542 41 572 67 q 472 -1 511 15 q 386 -18 432 -18 q 306 -7 338 -18 q 246 26 275 4 l 246 -278 z "},"¶":{"ha":822,"x_min":93,"x_max":733,"o":"m 617 131 q 600 -22 617 38 q 554 -116 583 -81 q 485 -169 525 -151 q 400 -194 446 -186 q 326 -261 368 -239 q 244 -294 285 -283 l 213 -249 q 276 -217 247 -236 q 326 -167 306 -199 q 359 -87 347 -136 q 371 33 371 -39 l 371 431 q 272 444 321 431 q 183 490 222 458 q 118 572 143 521 q 93 694 93 622 q 113 803 93 753 q 171 892 132 854 q 269 951 210 929 q 407 972 328 972 l 733 972 l 733 903 l 617 903 l 617 131 m 431 -131 q 503 -53 479 -112 q 528 131 528 7 l 528 903 l 460 903 l 460 33 q 454 -62 460 -22 q 431 -131 449 -101 z "},"·":{"ha":374,"x_min":82,"x_max":299,"o":"m 82 428 q 111 496 82 471 q 189 521 140 521 q 268 496 238 521 q 299 428 299 471 q 268 361 299 386 q 189 336 238 336 q 111 361 140 336 q 82 428 82 386 z "},"¸":{"ha":425,"x_min":83,"x_max":342,"o":"m 174 -85 q 301 -109 261 -87 q 342 -176 342 -131 q 317 -247 342 -221 q 256 -287 293 -274 q 172 -306 218 -301 q 83 -311 126 -311 l 83 -267 q 137 -262 113 -265 q 178 -253 161 -260 q 203 -233 194 -246 q 213 -199 213 -221 q 181 -154 213 -162 q 85 -140 149 -146 l 143 1 l 214 1 l 174 -85 z "},"¹":{"ha":667,"x_min":119,"x_max":569,"o":"m 569 528 l 132 528 l 132 597 l 288 597 l 288 1026 l 150 975 l 119 1038 l 288 1111 l 414 1111 l 414 597 l 569 597 l 569 528 z "},"º":{"ha":681,"x_min":67,"x_max":613,"o":"m 67 753 q 88 850 67 807 q 144 924 108 893 q 231 972 181 956 q 340 989 282 989 q 450 974 400 989 q 536 931 500 960 q 592 857 572 901 q 613 753 613 813 q 592 655 613 699 q 536 581 572 611 q 450 533 500 550 q 340 517 400 517 q 231 531 282 517 q 144 575 181 546 q 88 649 108 604 q 67 753 67 693 m 200 753 q 236 619 200 669 q 340 569 272 569 q 479 753 479 569 q 340 936 479 936 q 236 890 272 936 q 200 753 200 844 z "},"»":{"ha":736,"x_min":82,"x_max":700,"o":"m 122 78 l 82 107 l 256 363 l 90 618 l 131 646 l 396 360 l 122 78 m 357 75 l 314 106 l 542 361 l 324 619 l 364 649 l 700 360 l 357 75 z "},"¼":{"ha":1465,"x_min":96,"x_max":1346,"o":"m 546 389 l 108 389 l 108 458 l 264 458 l 264 888 l 126 836 l 96 899 l 264 972 l 390 972 l 390 458 l 546 458 l 546 389 m 1174 992 l 1231 939 l 318 -14 l 264 40 l 1174 992 m 1307 0 l 974 0 l 974 69 l 1097 69 l 1097 165 l 750 165 l 750 235 l 1097 583 l 1214 583 l 1214 235 l 1346 235 l 1346 165 l 1214 165 l 1214 69 l 1307 69 l 1307 0 m 1097 478 l 849 235 l 1097 235 l 1097 478 z "},"½":{"ha":1568,"x_min":96,"x_max":1458,"o":"m 546 389 l 108 389 l 108 458 l 264 458 l 264 888 l 126 836 l 96 899 l 264 972 l 390 972 l 390 458 l 546 458 l 546 389 m 1174 992 l 1231 939 l 318 -14 l 264 40 l 1174 992 m 1065 351 l 976 351 l 976 524 q 1022 551 1000 539 q 1071 574 1044 564 q 1131 588 1097 583 q 1211 593 1164 593 q 1312 580 1271 593 q 1378 545 1353 567 q 1414 494 1403 524 q 1425 432 1425 465 q 1400 340 1425 386 q 1329 249 1375 293 q 1220 163 1283 204 q 1082 88 1157 122 l 1082 79 l 1131 88 l 1369 88 l 1369 182 l 1458 182 l 1458 0 l 958 0 l 958 88 q 1082 157 1022 119 q 1188 236 1142 194 q 1263 322 1235 278 q 1292 413 1292 367 q 1286 459 1292 439 q 1266 494 1281 479 q 1226 516 1251 508 q 1163 524 1201 524 q 1110 519 1135 524 q 1065 504 1086 515 l 1065 351 z "},"¾":{"ha":1543,"x_min":119,"x_max":1425,"o":"m 361 444 q 425 454 399 444 q 468 479 451 464 q 492 513 485 494 q 500 550 500 532 q 463 633 500 608 q 342 658 426 658 l 289 658 l 289 703 l 492 903 l 228 903 l 228 772 l 139 772 l 139 972 l 603 972 l 603 903 l 399 721 l 399 719 l 447 725 q 518 715 485 725 q 577 684 551 704 q 618 633 603 664 q 633 563 633 603 q 555 426 633 472 q 343 379 476 379 q 219 401 279 379 q 119 450 160 424 l 119 550 l 244 550 l 244 476 q 286 456 258 468 q 361 444 314 444 m 1251 992 l 1308 939 l 396 -14 l 342 40 l 1251 992 m 1386 0 l 1053 0 l 1053 69 l 1176 69 l 1176 165 l 829 165 l 829 235 l 1176 583 l 1293 583 l 1293 235 l 1425 235 l 1425 165 l 1293 165 l 1293 69 l 1386 69 l 1386 0 m 1176 478 l 928 235 l 1176 235 l 1176 478 z "},"¿":{"ha":738,"x_min":44,"x_max":622,"o":"m 489 -61 l 622 -61 l 622 -229 q 500 -275 564 -261 q 361 -289 436 -289 q 121 -215 197 -289 q 44 -8 44 -140 q 66 106 44 53 q 129 200 88 158 q 228 270 169 242 q 361 308 286 299 l 361 447 l 450 447 l 450 250 q 341 218 388 238 q 263 168 294 199 q 216 94 232 138 q 200 -11 200 50 q 210 -85 200 -49 q 240 -151 219 -122 q 294 -199 261 -181 q 372 -217 326 -217 q 448 -209 421 -217 q 489 -190 475 -201 l 489 -61 m 515 619 q 486 551 515 576 q 408 526 457 526 q 329 551 360 526 q 299 619 299 576 q 329 686 299 661 q 408 711 360 711 q 486 686 457 711 q 515 619 515 661 z "},"À":{"ha":1049,"x_min":0,"x_max":1049,"o":"m 340 0 l 0 0 l 0 78 l 108 78 l 468 972 l 615 972 l 944 78 l 1049 78 l 1049 0 l 651 0 l 651 78 l 775 78 l 685 322 l 315 322 l 221 78 l 340 78 l 340 0 m 347 400 l 661 400 l 547 721 l 513 868 l 507 868 l 467 718 l 347 400 m 601 1101 l 583 1068 l 228 1168 l 228 1224 l 399 1269 l 601 1101 z "},"Á":{"ha":1049,"x_min":0,"x_max":1049,"o":"m 340 0 l 0 0 l 0 78 l 108 78 l 468 972 l 615 972 l 944 78 l 1049 78 l 1049 0 l 651 0 l 651 78 l 775 78 l 685 322 l 315 322 l 221 78 l 340 78 l 340 0 m 347 400 l 661 400 l 547 721 l 513 868 l 507 868 l 467 718 l 347 400 m 674 1269 l 844 1224 l 844 1168 l 489 1068 l 471 1101 l 674 1269 z "},"Â":{"ha":1049,"x_min":0,"x_max":1049,"o":"m 340 0 l 0 0 l 0 78 l 108 78 l 468 972 l 615 972 l 944 78 l 1049 78 l 1049 0 l 651 0 l 651 78 l 775 78 l 685 322 l 315 322 l 221 78 l 340 78 l 340 0 m 347 400 l 661 400 l 547 721 l 513 868 l 507 868 l 467 718 l 347 400 m 339 1057 l 317 1085 l 514 1269 l 557 1269 l 753 1089 l 728 1058 l 531 1136 l 339 1057 z "},"Ã":{"ha":1049,"x_min":0,"x_max":1049,"o":"m 340 0 l 0 0 l 0 78 l 108 78 l 468 972 l 615 972 l 944 78 l 1049 78 l 1049 0 l 651 0 l 651 78 l 775 78 l 685 322 l 315 322 l 221 78 l 340 78 l 340 0 m 347 400 l 661 400 l 547 721 l 513 868 l 507 868 l 467 718 l 347 400 m 783 1171 q 692 1097 733 1118 q 611 1076 651 1076 q 556 1085 582 1076 q 506 1105 531 1094 q 457 1124 481 1115 q 408 1133 433 1133 q 365 1124 389 1133 q 317 1092 342 1115 l 286 1142 q 392 1221 346 1200 q 478 1242 438 1242 q 532 1233 507 1242 q 581 1215 557 1225 q 627 1196 604 1204 q 675 1188 650 1188 q 717 1194 694 1188 q 764 1221 740 1201 l 783 1171 z "},"Ä":{"ha":1049,"x_min":0,"x_max":1049,"o":"m 340 0 l 0 0 l 0 78 l 108 78 l 468 972 l 615 972 l 944 78 l 1049 78 l 1049 0 l 651 0 l 651 78 l 775 78 l 685 322 l 315 322 l 221 78 l 340 78 l 340 0 m 347 400 l 661 400 l 547 721 l 513 868 l 507 868 l 467 718 l 347 400 m 269 1106 q 295 1166 269 1146 q 360 1186 321 1186 q 426 1166 400 1186 q 453 1106 453 1146 q 426 1050 453 1069 q 360 1031 400 1031 q 295 1050 321 1031 q 269 1106 269 1069 m 619 1106 q 646 1166 619 1146 q 710 1186 672 1186 q 776 1166 750 1186 q 803 1106 803 1146 q 776 1050 803 1069 q 710 1031 750 1031 q 646 1050 672 1031 q 619 1106 619 1069 z "},"Å":{"ha":1049,"x_min":0,"x_max":1049,"o":"m 340 0 l 0 0 l 0 78 l 108 78 l 468 972 l 615 972 l 944 78 l 1049 78 l 1049 0 l 651 0 l 651 78 l 775 78 l 685 322 l 315 322 l 221 78 l 340 78 l 340 0 m 347 400 l 661 400 l 547 721 l 513 868 l 507 868 l 467 718 l 347 400 m 360 1094 q 413 1183 360 1151 q 542 1214 465 1214 q 603 1207 572 1214 q 658 1186 633 1200 q 697 1151 682 1172 q 713 1099 713 1129 q 699 1050 713 1071 q 660 1014 685 1029 q 605 991 636 999 q 540 983 574 983 q 410 1013 460 983 q 360 1094 360 1042 m 464 1094 q 484 1056 464 1071 q 532 1042 504 1042 q 590 1056 572 1042 q 608 1093 608 1069 q 588 1142 608 1129 q 538 1156 567 1156 q 482 1138 500 1156 q 464 1094 464 1121 z "},"Æ":{"ha":1426,"x_min":0,"x_max":1338,"o":"m 1310 972 l 1310 744 l 1221 744 l 1221 864 l 1193 894 l 857 894 l 857 535 l 1092 535 l 1113 556 l 1113 614 l 1201 614 l 1201 376 l 1113 376 l 1113 435 l 1092 457 l 857 457 l 857 78 l 1221 78 l 1249 106 l 1249 242 l 1338 242 l 1338 0 l 579 0 l 579 78 l 701 78 l 701 351 l 399 351 l 219 78 l 350 78 l 350 0 l 0 0 l 0 78 l 114 78 l 656 894 l 572 894 l 572 972 l 1310 972 m 446 429 l 701 429 l 701 847 l 699 847 l 636 718 l 446 429 z "},"Ç":{"ha":969,"x_min":79,"x_max":879,"o":"m 790 256 l 879 256 l 879 38 q 765 -1 836 14 q 625 -17 694 -17 l 615 -17 l 578 -89 q 718 -115 672 -92 q 764 -187 764 -137 q 736 -256 764 -229 q 666 -297 708 -282 q 574 -317 624 -311 q 479 -322 524 -322 l 479 -276 q 535 -272 510 -275 q 581 -261 561 -268 q 611 -242 600 -254 q 622 -211 622 -231 q 588 -162 622 -174 q 483 -149 553 -151 l 539 -12 q 345 30 431 -4 q 201 126 260 64 q 110 277 142 188 q 79 486 79 367 q 121 717 79 622 q 233 873 163 813 q 397 961 304 933 q 593 989 490 989 q 683 985 643 989 q 756 975 724 982 q 817 958 789 968 q 871 938 844 949 l 871 700 l 782 700 l 782 846 l 763 874 q 715 890 747 881 q 610 900 682 900 q 469 876 535 900 q 356 803 404 853 q 281 674 308 753 q 253 486 253 596 q 353 180 253 288 q 636 72 454 72 q 720 80 686 72 q 771 100 754 88 l 790 126 l 790 256 z "},"È":{"ha":896,"x_min":44,"x_max":807,"o":"m 783 972 l 783 744 l 694 744 l 694 864 l 667 894 l 326 894 l 326 535 l 561 535 l 582 556 l 582 614 l 671 614 l 671 376 l 582 376 l 582 435 l 561 457 l 326 457 l 326 78 l 690 78 l 718 106 l 718 242 l 807 242 l 807 0 l 44 0 l 44 78 l 171 78 l 171 894 l 44 894 l 44 972 l 783 972 m 571 1101 l 553 1068 l 197 1168 l 197 1224 l 368 1269 l 571 1101 z "},"É":{"ha":896,"x_min":44,"x_max":807,"o":"m 783 972 l 783 744 l 694 744 l 694 864 l 667 894 l 326 894 l 326 535 l 561 535 l 582 556 l 582 614 l 671 614 l 671 376 l 582 376 l 582 435 l 561 457 l 326 457 l 326 78 l 690 78 l 718 106 l 718 242 l 807 242 l 807 0 l 44 0 l 44 78 l 171 78 l 171 894 l 44 894 l 44 972 l 783 972 m 526 1269 l 697 1224 l 697 1168 l 342 1068 l 324 1101 l 526 1269 z "},"Ê":{"ha":896,"x_min":44,"x_max":807,"o":"m 783 972 l 783 744 l 694 744 l 694 864 l 667 894 l 326 894 l 326 535 l 561 535 l 582 556 l 582 614 l 671 614 l 671 376 l 582 376 l 582 435 l 561 457 l 326 457 l 326 78 l 690 78 l 718 106 l 718 242 l 807 242 l 807 0 l 44 0 l 44 78 l 171 78 l 171 894 l 44 894 l 44 972 l 783 972 m 251 1057 l 229 1085 l 426 1269 l 469 1269 l 665 1089 l 640 1058 l 443 1136 l 251 1057 z "},"Ë":{"ha":896,"x_min":44,"x_max":807,"o":"m 783 972 l 783 744 l 694 744 l 694 864 l 667 894 l 326 894 l 326 535 l 561 535 l 582 556 l 582 614 l 671 614 l 671 376 l 582 376 l 582 435 l 561 457 l 326 457 l 326 78 l 690 78 l 718 106 l 718 242 l 807 242 l 807 0 l 44 0 l 44 78 l 171 78 l 171 894 l 44 894 l 44 972 l 783 972 m 188 1106 q 213 1166 188 1146 q 278 1186 239 1186 q 344 1166 318 1186 q 371 1106 371 1146 q 344 1050 371 1069 q 278 1031 318 1031 q 213 1050 239 1031 q 188 1106 188 1069 m 538 1106 q 564 1166 538 1146 q 628 1186 590 1186 q 694 1166 668 1186 q 721 1106 721 1146 q 694 1050 721 1069 q 628 1031 668 1031 q 564 1050 590 1031 q 538 1106 538 1069 z "},"Ì":{"ha":553,"x_min":57,"x_max":481,"o":"m 481 0 l 72 0 l 72 78 l 199 78 l 199 894 l 72 894 l 72 972 l 481 972 l 481 894 l 354 894 l 354 78 l 481 78 l 481 0 m 431 1101 l 413 1068 l 57 1168 l 57 1224 l 228 1269 l 431 1101 z "},"Í":{"ha":553,"x_min":72,"x_max":529,"o":"m 481 0 l 72 0 l 72 78 l 199 78 l 199 894 l 72 894 l 72 972 l 481 972 l 481 894 l 354 894 l 354 78 l 481 78 l 481 0 m 358 1269 l 529 1224 l 529 1168 l 174 1068 l 156 1101 l 358 1269 z "},"Î":{"ha":553,"x_min":60,"x_max":496,"o":"m 481 0 l 72 0 l 72 78 l 199 78 l 199 894 l 72 894 l 72 972 l 481 972 l 481 894 l 354 894 l 354 78 l 481 78 l 481 0 m 82 1057 l 60 1085 l 257 1269 l 300 1269 l 496 1089 l 471 1058 l 274 1136 l 82 1057 z "},"Ï":{"ha":553,"x_min":11,"x_max":544,"o":"m 481 0 l 72 0 l 72 78 l 199 78 l 199 894 l 72 894 l 72 972 l 481 972 l 481 894 l 354 894 l 354 78 l 481 78 l 481 0 m 11 1106 q 37 1166 11 1146 q 101 1186 63 1186 q 168 1166 142 1186 q 194 1106 194 1146 q 168 1050 194 1069 q 101 1031 142 1031 q 37 1050 63 1031 q 11 1106 11 1069 m 361 1106 q 388 1166 361 1146 q 451 1186 414 1186 q 518 1166 492 1186 q 544 1106 544 1146 q 518 1050 544 1069 q 451 1031 492 1031 q 388 1050 414 1031 q 361 1106 361 1069 z "},"Ð":{"ha":1086,"x_min":32,"x_max":1007,"o":"m 44 0 l 44 78 l 171 78 l 171 460 l 32 460 l 32 535 l 171 535 l 171 894 l 44 894 l 44 972 l 215 972 q 277 974 242 972 q 350 977 313 975 q 422 981 388 979 q 479 983 456 983 q 707 951 608 983 q 872 856 806 918 q 973 704 939 794 q 1007 499 1007 614 q 975 294 1007 388 q 875 133 943 201 q 701 26 807 64 q 447 -12 594 -12 q 396 -10 425 -12 q 334 -6 367 -8 q 268 -2 301 -4 q 206 0 235 0 l 44 0 m 458 906 q 383 904 419 906 q 326 899 347 903 l 326 535 l 575 535 l 575 460 l 326 460 l 326 71 q 354 69 335 69 q 397 67 374 68 q 440 66 419 67 q 469 65 461 65 q 643 101 574 65 q 755 195 713 136 q 815 333 797 254 q 833 499 833 411 q 816 639 833 567 q 756 771 799 711 q 640 868 713 831 q 458 906 568 906 z "},"Ñ":{"ha":1139,"x_min":44,"x_max":1094,"o":"m 753 972 l 1094 972 l 1094 894 l 968 894 l 968 -17 l 878 -17 l 313 746 l 251 853 l 246 853 l 260 744 l 260 78 l 386 78 l 386 0 l 44 0 l 44 78 l 171 78 l 171 894 l 44 894 l 44 972 l 322 972 l 808 318 l 881 199 l 888 199 l 879 318 l 879 894 l 753 894 l 753 972 m 824 1171 q 733 1097 774 1118 q 651 1076 692 1076 q 597 1085 622 1076 q 546 1105 571 1094 q 497 1124 521 1115 q 449 1133 474 1133 q 406 1124 429 1133 q 357 1092 382 1115 l 326 1142 q 432 1221 386 1200 q 518 1242 478 1242 q 572 1233 547 1242 q 621 1215 597 1225 q 667 1196 644 1204 q 715 1188 690 1188 q 758 1194 735 1188 q 804 1221 781 1201 l 824 1171 z "},"Ò":{"ha":1153,"x_min":79,"x_max":1074,"o":"m 79 486 q 113 687 79 594 q 209 847 146 779 q 365 951 272 914 q 575 989 457 989 q 786 951 693 989 q 943 847 879 914 q 1040 687 1007 779 q 1074 486 1074 594 q 1040 285 1074 378 q 943 126 1007 193 q 786 21 879 58 q 575 -17 693 -17 q 365 21 457 -17 q 209 126 272 58 q 113 285 146 193 q 79 486 79 378 m 253 486 q 273 319 253 397 q 335 185 293 242 q 440 94 376 128 q 589 61 503 61 q 726 94 668 61 q 823 185 785 128 q 881 319 861 242 q 900 486 900 397 q 880 653 900 575 q 818 788 860 731 q 713 878 776 844 q 563 911 650 911 q 420 878 479 911 q 324 788 361 844 q 269 653 286 731 q 253 486 253 575 m 678 1101 l 660 1068 l 304 1168 l 304 1224 l 475 1269 l 678 1101 z "},"Ó":{"ha":1153,"x_min":79,"x_max":1074,"o":"m 79 486 q 113 687 79 594 q 209 847 146 779 q 365 951 272 914 q 575 989 457 989 q 786 951 693 989 q 943 847 879 914 q 1040 687 1007 779 q 1074 486 1074 594 q 1040 285 1074 378 q 943 126 1007 193 q 786 21 879 58 q 575 -17 693 -17 q 365 21 457 -17 q 209 126 272 58 q 113 285 146 193 q 79 486 79 378 m 253 486 q 273 319 253 397 q 335 185 293 242 q 440 94 376 128 q 589 61 503 61 q 726 94 668 61 q 823 185 785 128 q 881 319 861 242 q 900 486 900 397 q 880 653 900 575 q 818 788 860 731 q 713 878 776 844 q 563 911 650 911 q 420 878 479 911 q 324 788 361 844 q 269 653 286 731 q 253 486 253 575 m 642 1269 l 813 1224 l 813 1168 l 457 1068 l 439 1101 l 642 1269 z "},"Ô":{"ha":1153,"x_min":79,"x_max":1074,"o":"m 79 486 q 113 687 79 594 q 209 847 146 779 q 365 951 272 914 q 575 989 457 989 q 786 951 693 989 q 943 847 879 914 q 1040 687 1007 779 q 1074 486 1074 594 q 1040 285 1074 378 q 943 126 1007 193 q 786 21 879 58 q 575 -17 693 -17 q 365 21 457 -17 q 209 126 272 58 q 113 285 146 193 q 79 486 79 378 m 253 486 q 273 319 253 397 q 335 185 293 242 q 440 94 376 128 q 589 61 503 61 q 726 94 668 61 q 823 185 785 128 q 881 319 861 242 q 900 486 900 397 q 880 653 900 575 q 818 788 860 731 q 713 878 776 844 q 563 911 650 911 q 420 878 479 911 q 324 788 361 844 q 269 653 286 731 q 253 486 253 575 m 379 1057 l 357 1085 l 554 1269 l 597 1269 l 793 1089 l 768 1058 l 571 1136 l 379 1057 z "},"Õ":{"ha":1153,"x_min":79,"x_max":1074,"o":"m 79 486 q 113 687 79 594 q 209 847 146 779 q 365 951 272 914 q 575 989 457 989 q 786 951 693 989 q 943 847 879 914 q 1040 687 1007 779 q 1074 486 1074 594 q 1040 285 1074 378 q 943 126 1007 193 q 786 21 879 58 q 575 -17 693 -17 q 365 21 457 -17 q 209 126 272 58 q 113 285 146 193 q 79 486 79 378 m 253 486 q 273 319 253 397 q 335 185 293 242 q 440 94 376 128 q 589 61 503 61 q 726 94 668 61 q 823 185 785 128 q 881 319 861 242 q 900 486 900 397 q 880 653 900 575 q 818 788 860 731 q 713 878 776 844 q 563 911 650 911 q 420 878 479 911 q 324 788 361 844 q 269 653 286 731 q 253 486 253 575 m 824 1171 q 733 1097 774 1118 q 651 1076 692 1076 q 597 1085 622 1076 q 546 1105 571 1094 q 497 1124 521 1115 q 449 1133 474 1133 q 406 1124 429 1133 q 357 1092 382 1115 l 326 1142 q 432 1221 386 1200 q 518 1242 478 1242 q 572 1233 547 1242 q 621 1215 597 1225 q 667 1196 644 1204 q 715 1188 690 1188 q 758 1194 735 1188 q 804 1221 781 1201 l 824 1171 z "},"Ö":{"ha":1153,"x_min":79,"x_max":1074,"o":"m 79 486 q 113 687 79 594 q 209 847 146 779 q 365 951 272 914 q 575 989 457 989 q 786 951 693 989 q 943 847 879 914 q 1040 687 1007 779 q 1074 486 1074 594 q 1040 285 1074 378 q 943 126 1007 193 q 786 21 879 58 q 575 -17 693 -17 q 365 21 457 -17 q 209 126 272 58 q 113 285 146 193 q 79 486 79 378 m 253 486 q 273 319 253 397 q 335 185 293 242 q 440 94 376 128 q 589 61 503 61 q 726 94 668 61 q 823 185 785 128 q 881 319 861 242 q 900 486 900 397 q 880 653 900 575 q 818 788 860 731 q 713 878 776 844 q 563 911 650 911 q 420 878 479 911 q 324 788 361 844 q 269 653 286 731 q 253 486 253 575 m 310 1106 q 335 1166 310 1146 q 400 1186 361 1186 q 467 1166 440 1186 q 493 1106 493 1146 q 467 1050 493 1069 q 400 1031 440 1031 q 335 1050 361 1031 q 310 1106 310 1069 m 660 1106 q 686 1166 660 1146 q 750 1186 713 1186 q 817 1166 790 1186 q 843 1106 843 1146 q 817 1050 843 1069 q 750 1031 790 1031 q 686 1050 713 1031 q 660 1106 660 1069 z "},"×":{"ha":833,"x_min":136,"x_max":696,"o":"m 136 285 l 353 478 l 139 669 l 200 724 l 415 532 l 632 726 l 693 672 l 474 479 l 696 282 l 635 226 l 414 425 l 197 231 l 136 285 z "},"Ø":{"ha":1153,"x_min":79,"x_max":1074,"o":"m 79 486 q 113 687 79 594 q 209 847 146 779 q 365 951 272 914 q 575 989 457 989 q 715 973 650 989 q 833 929 779 957 l 906 1032 l 978 983 l 906 881 q 1031 711 988 813 q 1074 486 1074 610 q 1040 285 1074 378 q 943 126 1007 193 q 786 21 879 58 q 575 -17 693 -17 q 315 43 426 -17 l 229 -79 l 160 -29 l 244 92 q 122 260 164 160 q 79 486 79 361 m 900 486 q 883 642 900 569 q 829 772 865 715 l 379 133 q 471 78 419 97 q 589 58 522 58 q 726 92 668 58 q 823 183 785 125 q 881 319 861 242 q 900 486 900 397 m 253 486 q 269 331 253 403 q 322 201 286 258 l 771 840 q 679 894 731 875 q 563 914 628 914 q 420 881 479 914 q 324 789 361 847 q 269 653 286 731 q 253 486 253 575 z "},"Ù":{"ha":1058,"x_min":17,"x_max":1042,"o":"m 915 332 q 889 178 915 243 q 815 72 863 114 q 699 8 767 29 q 547 -12 631 -12 q 247 66 350 -12 q 143 308 143 144 l 143 894 l 17 894 l 17 972 l 411 972 l 411 894 l 299 894 l 299 338 q 317 216 299 265 q 369 137 335 167 q 453 94 403 107 q 567 81 503 81 q 758 142 689 81 q 826 342 826 203 l 826 894 l 714 894 l 714 972 l 1042 972 l 1042 894 l 915 894 l 915 332 l 915 332 m 622 1101 l 604 1068 l 249 1168 l 249 1224 l 419 1269 l 622 1101 z "},"Ú":{"ha":1058,"x_min":17,"x_max":1042,"o":"m 915 332 q 889 178 915 243 q 815 72 863 114 q 699 8 767 29 q 547 -12 631 -12 q 247 66 350 -12 q 143 308 143 144 l 143 894 l 17 894 l 17 972 l 411 972 l 411 894 l 299 894 l 299 338 q 317 216 299 265 q 369 137 335 167 q 453 94 403 107 q 567 81 503 81 q 758 142 689 81 q 826 342 826 203 l 826 894 l 714 894 l 714 972 l 1042 972 l 1042 894 l 915 894 l 915 332 l 915 332 m 715 1269 l 886 1224 l 886 1168 l 531 1068 l 513 1101 l 715 1269 z "},"Û":{"ha":1058,"x_min":17,"x_max":1042,"o":"m 915 332 q 889 178 915 243 q 815 72 863 114 q 699 8 767 29 q 547 -12 631 -12 q 247 66 350 -12 q 143 308 143 144 l 143 894 l 17 894 l 17 972 l 411 972 l 411 894 l 299 894 l 299 338 q 317 216 299 265 q 369 137 335 167 q 453 94 403 107 q 567 81 503 81 q 758 142 689 81 q 826 342 826 203 l 826 894 l 714 894 l 714 972 l 1042 972 l 1042 894 l 915 894 l 915 332 l 915 332 m 364 1057 l 342 1085 l 539 1269 l 582 1269 l 778 1089 l 753 1058 l 556 1136 l 364 1057 z "},"Ü":{"ha":1058,"x_min":17,"x_max":1042,"o":"m 915 332 q 889 178 915 243 q 815 72 863 114 q 699 8 767 29 q 547 -12 631 -12 q 247 66 350 -12 q 143 308 143 144 l 143 894 l 17 894 l 17 972 l 411 972 l 411 894 l 299 894 l 299 338 q 317 216 299 265 q 369 137 335 167 q 453 94 403 107 q 567 81 503 81 q 758 142 689 81 q 826 342 826 203 l 826 894 l 714 894 l 714 972 l 1042 972 l 1042 894 l 915 894 l 915 332 l 915 332 m 296 1106 q 322 1166 296 1146 q 386 1186 347 1186 q 453 1166 426 1186 q 479 1106 479 1146 q 453 1050 479 1069 q 386 1031 426 1031 q 322 1050 347 1031 q 296 1106 296 1069 m 646 1106 q 672 1166 646 1146 q 736 1186 699 1186 q 803 1166 776 1186 q 829 1106 829 1146 q 803 1050 829 1069 q 736 1031 776 1031 q 672 1050 699 1031 q 646 1106 646 1069 z "},"Ý":{"ha":1010,"x_min":0,"x_max":1010,"o":"m 664 972 l 1010 972 l 1010 894 l 892 894 l 596 413 l 596 78 l 722 78 l 722 0 l 314 0 l 314 78 l 440 78 l 440 411 l 126 894 l 0 894 l 0 972 l 419 972 l 419 894 l 303 894 l 554 490 l 792 894 l 664 894 l 664 972 m 700 1269 l 871 1224 l 871 1168 l 515 1068 l 497 1101 l 700 1269 z "},"Þ":{"ha":925,"x_min":44,"x_max":872,"o":"m 44 894 l 44 972 l 450 972 l 450 894 l 326 894 l 326 829 q 397 833 361 832 q 467 835 432 835 q 616 820 543 835 q 746 772 689 806 q 838 683 803 739 q 872 543 872 626 q 836 408 872 464 q 741 315 800 351 q 605 260 682 278 q 446 243 528 243 q 421 243 438 243 q 386 244 404 243 q 351 245 368 244 q 326 247 335 246 l 326 78 l 478 78 l 478 0 l 44 0 l 44 78 l 171 78 l 171 894 l 44 894 m 432 757 q 370 755 394 757 q 326 749 346 753 l 326 328 q 348 324 333 325 q 379 322 363 324 q 411 321 396 321 q 435 321 426 321 q 537 333 489 321 q 621 373 585 346 q 678 442 657 400 q 699 543 699 483 q 627 704 699 651 q 432 757 556 757 z "},"ß":{"ha":999,"x_min":49,"x_max":942,"o":"m 676 818 q 629 925 675 883 q 518 967 583 967 q 433 958 471 967 q 367 922 394 949 q 326 849 340 896 q 311 726 311 803 l 311 0 l 63 0 l 63 69 l 165 69 l 165 660 l 49 660 l 49 729 l 165 729 l 165 751 q 200 890 165 835 q 286 979 235 946 q 397 1027 338 1013 q 508 1042 457 1042 q 652 1022 593 1042 q 748 968 711 1001 q 801 890 785 935 q 819 796 818 846 q 636 744 703 781 q 569 640 569 707 q 597 563 569 596 q 666 501 625 529 q 756 444 707 472 q 845 383 804 417 q 914 305 886 349 q 942 201 942 261 q 865 42 942 99 q 650 -14 789 -14 q 583 -8 617 -14 q 520 8 550 -1 q 466 31 490 18 q 426 57 442 44 l 426 185 l 526 185 l 526 104 q 578 75 543 89 q 646 61 613 61 q 760 90 721 61 q 799 179 799 119 q 771 249 799 218 q 702 307 743 279 q 613 362 661 335 q 523 422 564 389 q 454 496 482 454 q 426 593 426 538 q 483 721 426 661 q 676 818 540 781 z "},"à":{"ha":790,"x_min":60,"x_max":742,"o":"m 644 193 q 646 128 644 161 q 650 69 647 96 l 742 69 l 742 0 l 524 0 l 510 132 l 503 132 q 477 78 496 104 q 430 31 458 51 q 363 -3 401 10 q 276 -15 324 -15 q 190 -1 229 -15 q 121 38 150 13 q 76 98 92 63 q 60 178 60 133 q 88 290 60 246 q 172 360 117 335 q 311 397 228 386 q 506 410 394 408 q 508 452 508 432 q 508 492 508 472 q 479 623 508 578 q 375 668 450 668 q 315 665 347 668 q 257 649 283 663 l 257 521 l 132 521 l 132 675 q 250 722 182 701 q 410 743 318 743 q 537 723 489 743 q 610 670 585 703 q 644 597 636 638 q 651 515 651 556 q 648 348 651 428 q 644 193 644 268 m 340 78 q 400 88 374 78 q 447 115 426 99 q 481 150 467 131 q 506 188 496 169 l 506 353 q 359 341 415 353 q 271 310 303 329 q 227 263 239 290 q 215 206 215 236 q 249 110 215 143 q 340 78 282 78 m 506 854 l 467 822 l 194 985 l 194 1042 l 369 1042 l 506 854 z "},"á":{"ha":790,"x_min":60,"x_max":742,"o":"m 644 193 q 646 128 644 161 q 650 69 647 96 l 742 69 l 742 0 l 524 0 l 510 132 l 503 132 q 477 78 496 104 q 430 31 458 51 q 363 -3 401 10 q 276 -15 324 -15 q 190 -1 229 -15 q 121 38 150 13 q 76 98 92 63 q 60 178 60 133 q 88 290 60 246 q 172 360 117 335 q 311 397 228 386 q 506 410 394 408 q 508 452 508 432 q 508 492 508 472 q 479 623 508 578 q 375 668 450 668 q 315 665 347 668 q 257 649 283 663 l 257 521 l 132 521 l 132 675 q 250 722 182 701 q 410 743 318 743 q 537 723 489 743 q 610 670 585 703 q 644 597 636 638 q 651 515 651 556 q 648 348 651 428 q 644 193 644 268 m 340 78 q 400 88 374 78 q 447 115 426 99 q 481 150 467 131 q 506 188 496 169 l 506 353 q 359 341 415 353 q 271 310 303 329 q 227 263 239 290 q 215 206 215 236 q 249 110 215 143 q 340 78 282 78 m 447 1042 l 622 1042 l 622 985 l 350 822 l 311 854 l 447 1042 z "},"â":{"ha":790,"x_min":60,"x_max":742,"o":"m 644 193 q 646 128 644 161 q 650 69 647 96 l 742 69 l 742 0 l 524 0 l 510 132 l 503 132 q 477 78 496 104 q 430 31 458 51 q 363 -3 401 10 q 276 -15 324 -15 q 190 -1 229 -15 q 121 38 150 13 q 76 98 92 63 q 60 178 60 133 q 88 290 60 246 q 172 360 117 335 q 311 397 228 386 q 506 410 394 408 q 508 452 508 432 q 508 492 508 472 q 479 623 508 578 q 375 668 450 668 q 315 665 347 668 q 257 649 283 663 l 257 521 l 132 521 l 132 675 q 250 722 182 701 q 410 743 318 743 q 537 723 489 743 q 610 670 585 703 q 644 597 636 638 q 651 515 651 556 q 648 348 651 428 q 644 193 644 268 m 340 78 q 400 88 374 78 q 447 115 426 99 q 481 150 467 131 q 506 188 496 169 l 506 353 q 359 341 415 353 q 271 310 303 329 q 227 263 239 290 q 215 206 215 236 q 249 110 215 143 q 340 78 282 78 m 247 860 l 203 883 l 376 1156 l 417 1156 l 592 885 l 547 860 l 390 1015 l 247 860 z "},"ã":{"ha":790,"x_min":60,"x_max":742,"o":"m 644 193 q 646 128 644 161 q 650 69 647 96 l 742 69 l 742 0 l 524 0 l 510 132 l 503 132 q 477 78 496 104 q 430 31 458 51 q 363 -3 401 10 q 276 -15 324 -15 q 190 -1 229 -15 q 121 38 150 13 q 76 98 92 63 q 60 178 60 133 q 88 290 60 246 q 172 360 117 335 q 311 397 228 386 q 506 410 394 408 q 508 452 508 432 q 508 492 508 472 q 479 623 508 578 q 375 668 450 668 q 315 665 347 668 q 257 649 283 663 l 257 521 l 132 521 l 132 675 q 250 722 182 701 q 410 743 318 743 q 537 723 489 743 q 610 670 585 703 q 644 597 636 638 q 651 515 651 556 q 648 348 651 428 q 644 193 644 268 m 340 78 q 400 88 374 78 q 447 115 426 99 q 481 150 467 131 q 506 188 496 169 l 506 353 q 359 341 415 353 q 271 310 303 329 q 227 263 239 290 q 215 206 215 236 q 249 110 215 143 q 340 78 282 78 m 619 979 q 527 915 569 932 q 450 897 485 897 q 397 905 422 897 q 349 922 372 913 q 303 938 325 931 q 257 946 281 946 q 216 938 238 946 q 169 910 194 931 l 139 954 q 242 1022 197 1004 q 324 1040 288 1040 q 376 1033 351 1040 q 422 1017 400 1025 q 467 1001 444 1008 q 513 993 489 993 q 553 999 532 993 q 597 1022 574 1006 l 619 979 z "},"ä":{"ha":790,"x_min":60,"x_max":742,"o":"m 644 193 q 646 128 644 161 q 650 69 647 96 l 742 69 l 742 0 l 524 0 l 510 132 l 503 132 q 477 78 496 104 q 430 31 458 51 q 363 -3 401 10 q 276 -15 324 -15 q 190 -1 229 -15 q 121 38 150 13 q 76 98 92 63 q 60 178 60 133 q 88 290 60 246 q 172 360 117 335 q 311 397 228 386 q 506 410 394 408 q 508 452 508 432 q 508 492 508 472 q 479 623 508 578 q 375 668 450 668 q 315 665 347 668 q 257 649 283 663 l 257 521 l 132 521 l 132 675 q 250 722 182 701 q 410 743 318 743 q 537 723 489 743 q 610 670 585 703 q 644 597 636 638 q 651 515 651 556 q 648 348 651 428 q 644 193 644 268 m 340 78 q 400 88 374 78 q 447 115 426 99 q 481 150 467 131 q 506 188 496 169 l 506 353 q 359 341 415 353 q 271 310 303 329 q 227 263 239 290 q 215 206 215 236 q 249 110 215 143 q 340 78 282 78 m 118 956 q 142 1020 118 996 q 207 1044 167 1044 q 272 1020 247 1044 q 296 956 296 996 q 272 894 296 918 q 207 869 247 869 q 142 894 167 869 q 118 956 118 918 m 460 956 q 485 1020 460 996 q 550 1044 511 1044 q 614 1020 590 1044 q 638 956 638 996 q 614 894 638 918 q 550 869 590 869 q 485 894 511 869 q 460 956 460 918 z "},"å":{"ha":790,"x_min":60,"x_max":742,"o":"m 644 193 q 646 128 644 161 q 650 69 647 96 l 742 69 l 742 0 l 524 0 l 510 132 l 503 132 q 477 78 496 104 q 430 31 458 51 q 363 -3 401 10 q 276 -15 324 -15 q 190 -1 229 -15 q 121 38 150 13 q 76 98 92 63 q 60 178 60 133 q 88 290 60 246 q 172 360 117 335 q 311 397 228 386 q 506 410 394 408 q 508 452 508 432 q 508 492 508 472 q 479 623 508 578 q 375 668 450 668 q 315 665 347 668 q 257 649 283 663 l 257 521 l 132 521 l 132 675 q 250 722 182 701 q 410 743 318 743 q 537 723 489 743 q 610 670 585 703 q 644 597 636 638 q 651 515 651 556 q 648 348 651 428 q 644 193 644 268 m 340 78 q 400 88 374 78 q 447 115 426 99 q 481 150 467 131 q 506 188 496 169 l 506 353 q 359 341 415 353 q 271 310 303 329 q 227 263 239 290 q 215 206 215 236 q 249 110 215 143 q 340 78 282 78 m 225 996 q 269 1097 225 1056 q 382 1138 314 1138 q 487 1101 444 1138 q 529 1000 529 1064 q 517 946 529 971 q 484 903 504 921 q 437 874 464 885 q 381 864 410 864 q 267 899 310 864 q 225 996 225 935 m 308 999 q 329 944 308 963 q 375 925 350 925 q 426 942 406 925 q 446 994 446 958 q 426 1056 446 1035 q 376 1076 407 1076 q 324 1056 340 1076 q 308 999 308 1035 z "},"æ":{"ha":1215,"x_min":60,"x_max":1143,"o":"m 340 79 q 400 90 374 79 q 447 115 426 100 q 481 150 467 131 q 504 188 494 169 l 504 353 q 359 341 415 353 q 271 310 303 329 q 227 263 239 290 q 215 206 215 236 q 249 111 215 143 q 340 79 282 79 m 543 146 q 514 101 532 128 q 467 48 496 74 q 395 4 438 22 q 294 -14 353 -14 q 123 38 186 -14 q 60 178 60 90 q 88 290 60 246 q 172 360 115 335 q 310 397 228 386 q 504 410 393 408 q 508 492 508 453 q 479 623 508 578 q 375 668 450 668 q 315 665 347 668 q 257 649 283 663 l 257 521 l 132 521 l 132 675 q 250 722 182 701 q 410 743 318 743 q 541 722 493 743 q 614 665 589 700 q 715 725 653 707 q 846 743 778 743 q 955 729 901 743 q 1050 683 1008 715 q 1117 599 1092 651 q 1143 468 1143 546 q 1140 418 1143 444 q 1132 363 1138 392 l 650 363 q 666 251 650 301 q 714 165 682 201 q 794 109 746 129 q 910 89 843 89 q 1010 107 964 89 q 1085 149 1057 125 l 1122 96 q 1020 15 1086 44 q 867 -15 954 -15 q 668 27 749 -15 q 543 146 588 69 m 840 678 q 765 665 797 678 q 708 624 732 653 q 671 547 685 594 q 653 428 657 499 l 988 428 q 990 453 989 440 q 990 478 990 467 q 953 624 990 569 q 840 678 917 678 z "},"ç":{"ha":726,"x_min":63,"x_max":669,"o":"m 669 89 q 578 17 640 49 q 432 -15 515 -15 l 426 -15 l 394 -85 q 522 -108 482 -87 q 563 -176 563 -129 q 538 -247 563 -221 q 476 -288 514 -274 q 393 -307 439 -303 q 304 -311 347 -311 l 304 -267 q 358 -262 333 -265 q 399 -253 382 -260 q 424 -233 415 -246 q 433 -199 433 -221 q 401 -154 433 -162 q 306 -140 369 -146 l 358 -11 q 135 108 208 8 q 63 364 63 208 q 160 646 63 549 q 426 743 258 743 q 553 733 503 743 q 644 703 603 724 l 644 522 l 519 522 l 519 656 q 436 668 499 668 q 343 653 383 668 q 275 603 303 638 q 233 510 247 568 q 219 367 219 451 q 235 260 219 311 q 281 172 250 210 q 358 111 311 133 q 467 89 404 89 q 526 94 500 89 q 571 106 551 99 q 606 124 590 114 q 635 144 621 133 l 669 89 z "},"è":{"ha":786,"x_min":63,"x_max":714,"o":"m 693 96 q 591 15 657 44 q 438 -15 525 -15 q 276 12 346 -15 q 158 88 206 39 q 87 208 111 138 q 63 364 63 278 q 156 647 63 550 q 417 743 249 743 q 526 729 472 743 q 621 683 579 715 q 688 599 663 651 q 714 468 714 546 q 711 418 714 444 q 703 363 708 392 l 219 363 q 235 251 219 301 q 284 165 251 201 q 365 109 317 129 q 481 89 414 89 q 581 107 535 89 q 656 149 628 125 l 693 96 m 411 678 q 335 665 368 678 q 279 624 303 653 q 242 547 256 594 q 224 428 228 499 l 558 428 q 560 453 560 440 q 561 478 561 467 q 524 624 561 569 q 411 678 488 678 m 518 854 l 479 822 l 207 985 l 207 1042 l 382 1042 l 518 854 z "},"é":{"ha":786,"x_min":63,"x_max":714,"o":"m 693 96 q 591 15 657 44 q 438 -15 525 -15 q 276 12 346 -15 q 158 88 206 39 q 87 208 111 138 q 63 364 63 278 q 156 647 63 550 q 417 743 249 743 q 526 729 472 743 q 621 683 579 715 q 688 599 663 651 q 714 468 714 546 q 711 418 714 444 q 703 363 708 392 l 219 363 q 235 251 219 301 q 284 165 251 201 q 365 109 317 129 q 481 89 414 89 q 581 107 535 89 q 656 149 628 125 l 693 96 m 411 678 q 335 665 368 678 q 279 624 303 653 q 242 547 256 594 q 224 428 228 499 l 558 428 q 560 453 560 440 q 561 478 561 467 q 524 624 561 569 q 411 678 488 678 m 471 1042 l 646 1042 l 646 985 l 374 822 l 335 854 l 471 1042 z "},"ê":{"ha":786,"x_min":63,"x_max":714,"o":"m 693 96 q 591 15 657 44 q 438 -15 525 -15 q 276 12 346 -15 q 158 88 206 39 q 87 208 111 138 q 63 364 63 278 q 156 647 63 550 q 417 743 249 743 q 526 729 472 743 q 621 683 579 715 q 688 599 663 651 q 714 468 714 546 q 711 418 714 444 q 703 363 708 392 l 219 363 q 235 251 219 301 q 284 165 251 201 q 365 109 317 129 q 481 89 414 89 q 581 107 535 89 q 656 149 628 125 l 693 96 m 411 678 q 335 665 368 678 q 279 624 303 653 q 242 547 256 594 q 224 428 228 499 l 558 428 q 560 453 560 440 q 561 478 561 467 q 524 624 561 569 q 411 678 488 678 m 260 860 l 215 883 l 389 1156 l 429 1156 l 604 885 l 560 860 l 403 1015 l 260 860 z "},"ë":{"ha":786,"x_min":63,"x_max":714,"o":"m 693 96 q 591 15 657 44 q 438 -15 525 -15 q 276 12 346 -15 q 158 88 206 39 q 87 208 111 138 q 63 364 63 278 q 156 647 63 550 q 417 743 249 743 q 526 729 472 743 q 621 683 579 715 q 688 599 663 651 q 714 468 714 546 q 711 418 714 444 q 703 363 708 392 l 219 363 q 235 251 219 301 q 284 165 251 201 q 365 109 317 129 q 481 89 414 89 q 581 107 535 89 q 656 149 628 125 l 693 96 m 411 678 q 335 665 368 678 q 279 624 303 653 q 242 547 256 594 q 224 428 228 499 l 558 428 q 560 453 560 440 q 561 478 561 467 q 524 624 561 569 q 411 678 488 678 m 143 956 q 167 1020 143 996 q 232 1044 192 1044 q 297 1020 272 1044 q 321 956 321 996 q 297 894 321 918 q 232 869 272 869 q 167 894 192 869 q 143 956 143 918 m 485 956 q 510 1020 485 996 q 575 1044 536 1044 q 639 1020 615 1044 q 663 956 663 996 q 639 894 663 918 q 575 869 615 869 q 510 894 536 869 q 485 956 485 918 z "},"ì":{"ha":471,"x_min":15,"x_max":414,"o":"m 414 0 l 63 0 l 63 69 l 165 69 l 165 660 l 63 660 l 63 729 l 311 729 l 311 69 l 414 69 l 414 0 m 326 854 l 288 822 l 15 985 l 15 1042 l 190 1042 l 326 854 z "},"í":{"ha":471,"x_min":63,"x_max":454,"o":"m 414 0 l 63 0 l 63 69 l 165 69 l 165 660 l 63 660 l 63 729 l 311 729 l 311 69 l 414 69 l 414 0 m 279 1042 l 454 1042 l 454 985 l 182 822 l 143 854 l 279 1042 z "},"î":{"ha":471,"x_min":42,"x_max":431,"o":"m 414 0 l 63 0 l 63 69 l 165 69 l 165 660 l 63 660 l 63 729 l 311 729 l 311 69 l 414 69 l 414 0 m 86 860 l 42 883 l 215 1156 l 256 1156 l 431 885 l 386 860 l 229 1015 l 86 860 z "},"ï":{"ha":471,"x_min":-24,"x_max":496,"o":"m 414 0 l 63 0 l 63 69 l 165 69 l 165 660 l 63 660 l 63 729 l 311 729 l 311 69 l 414 69 l 414 0 m -24 956 q 1 1020 -24 996 q 65 1044 25 1044 q 130 1020 106 1044 q 154 956 154 996 q 130 894 154 918 q 65 869 106 869 q 1 894 25 869 q -24 956 -24 918 m 318 956 q 344 1020 318 996 q 408 1044 369 1044 q 472 1020 449 1044 q 496 956 496 996 q 472 894 496 918 q 408 869 449 869 q 344 894 369 869 q 318 956 318 918 z "},"ð":{"ha":838,"x_min":42,"x_max":778,"o":"m 324 833 l 447 907 q 275 997 385 961 l 306 1058 q 427 1017 368 1047 q 526 958 486 988 l 667 1047 l 706 990 l 579 910 q 654 819 618 869 q 717 706 690 768 q 761 573 744 644 q 778 421 778 501 q 755 246 778 326 q 686 107 732 165 q 572 15 640 49 q 410 -18 503 -18 q 256 10 324 -18 q 140 86 188 38 q 67 203 93 135 q 42 353 42 271 q 72 514 42 446 q 149 627 101 582 q 258 694 197 672 q 381 715 318 715 q 518 700 464 715 q 607 664 572 685 q 563 766 588 718 q 493 854 538 814 l 365 776 l 324 833 m 199 353 q 213 239 199 293 q 256 143 228 185 q 325 76 283 101 q 419 51 367 51 q 576 145 521 51 q 632 400 632 239 q 626 522 632 476 q 614 588 619 568 q 536 622 588 607 q 414 638 485 638 q 327 621 367 638 q 259 569 288 604 q 215 481 231 535 q 199 353 199 426 z "},"ñ":{"ha":931,"x_min":49,"x_max":904,"o":"m 904 0 l 564 0 l 564 69 l 656 69 l 656 418 q 622 589 656 528 q 500 650 589 650 q 428 638 461 650 q 370 604 396 625 q 326 556 344 583 q 297 497 307 528 l 297 69 l 389 69 l 389 0 l 49 0 l 49 69 l 151 69 l 151 660 l 49 660 l 49 729 l 297 729 l 297 585 l 299 585 q 392 697 331 651 q 542 743 454 743 q 653 730 604 743 q 734 682 701 717 q 784 589 767 647 q 801 440 801 531 l 801 69 l 904 69 l 904 0 m 707 979 q 615 915 657 932 q 538 897 572 897 q 485 905 510 897 q 436 922 460 913 q 390 938 413 931 q 344 946 368 946 q 303 938 325 946 q 257 910 282 931 l 226 954 q 330 1022 285 1004 q 411 1040 375 1040 q 463 1033 439 1040 q 510 1017 488 1025 q 554 1001 532 1008 q 600 993 576 993 q 640 999 619 993 q 685 1022 661 1006 l 707 979 z "},"ò":{"ha":864,"x_min":63,"x_max":801,"o":"m 63 364 q 89 526 63 456 q 163 645 115 597 q 280 718 211 693 q 432 743 349 743 q 599 716 529 743 q 714 640 669 689 q 780 520 758 590 q 801 364 801 450 q 776 202 801 272 q 702 84 750 132 q 585 11 654 36 q 432 -14 517 -14 q 268 13 338 -14 q 153 90 199 40 q 85 208 107 139 q 63 364 63 278 m 219 364 q 232 240 219 297 q 273 142 244 183 q 347 76 301 100 q 457 51 392 51 q 592 126 539 51 q 644 364 644 201 q 632 488 644 431 q 592 588 619 546 q 523 654 565 631 q 419 678 481 678 q 274 603 328 678 q 219 364 219 528 m 543 854 l 504 822 l 232 985 l 232 1042 l 407 1042 l 543 854 z "},"ó":{"ha":864,"x_min":63,"x_max":801,"o":"m 63 364 q 89 526 63 456 q 163 645 115 597 q 280 718 211 693 q 432 743 349 743 q 599 716 529 743 q 714 640 669 689 q 780 520 758 590 q 801 364 801 450 q 776 202 801 272 q 702 84 750 132 q 585 11 654 36 q 432 -14 517 -14 q 268 13 338 -14 q 153 90 199 40 q 85 208 107 139 q 63 364 63 278 m 219 364 q 232 240 219 297 q 273 142 244 183 q 347 76 301 100 q 457 51 392 51 q 592 126 539 51 q 644 364 644 201 q 632 488 644 431 q 592 588 619 546 q 523 654 565 631 q 419 678 481 678 q 274 603 328 678 q 219 364 219 528 m 485 1042 l 660 1042 l 660 985 l 388 822 l 349 854 l 485 1042 z "},"ô":{"ha":864,"x_min":63,"x_max":801,"o":"m 63 364 q 89 526 63 456 q 163 645 115 597 q 280 718 211 693 q 432 743 349 743 q 599 716 529 743 q 714 640 669 689 q 780 520 758 590 q 801 364 801 450 q 776 202 801 272 q 702 84 750 132 q 585 11 654 36 q 432 -14 517 -14 q 268 13 338 -14 q 153 90 199 40 q 85 208 107 139 q 63 364 63 278 m 219 364 q 232 240 219 297 q 273 142 244 183 q 347 76 301 100 q 457 51 392 51 q 592 126 539 51 q 644 364 644 201 q 632 488 644 431 q 592 588 619 546 q 523 654 565 631 q 419 678 481 678 q 274 603 328 678 q 219 364 219 528 m 282 860 l 238 883 l 411 1156 l 451 1156 l 626 885 l 582 860 l 425 1015 l 282 860 z "},"õ":{"ha":864,"x_min":63,"x_max":801,"o":"m 63 364 q 89 526 63 456 q 163 645 115 597 q 280 718 211 693 q 432 743 349 743 q 599 716 529 743 q 714 640 669 689 q 780 520 758 590 q 801 364 801 450 q 776 202 801 272 q 702 84 750 132 q 585 11 654 36 q 432 -14 517 -14 q 268 13 338 -14 q 153 90 199 40 q 85 208 107 139 q 63 364 63 278 m 219 364 q 232 240 219 297 q 273 142 244 183 q 347 76 301 100 q 457 51 392 51 q 592 126 539 51 q 644 364 644 201 q 632 488 644 431 q 592 588 619 546 q 523 654 565 631 q 419 678 481 678 q 274 603 328 678 q 219 364 219 528 m 672 979 q 580 915 622 932 q 503 897 538 897 q 450 905 475 897 q 401 922 425 913 q 356 938 378 931 q 310 946 333 946 q 269 938 290 946 q 222 910 247 931 l 192 954 q 295 1022 250 1004 q 376 1040 340 1040 q 428 1033 404 1040 q 475 1017 453 1025 q 519 1001 497 1008 q 565 993 542 993 q 606 999 585 993 q 650 1022 626 1006 l 672 979 z "},"ö":{"ha":864,"x_min":63,"x_max":801,"o":"m 63 364 q 89 526 63 456 q 163 645 115 597 q 280 718 211 693 q 432 743 349 743 q 599 716 529 743 q 714 640 669 689 q 780 520 758 590 q 801 364 801 450 q 776 202 801 272 q 702 84 750 132 q 585 11 654 36 q 432 -14 517 -14 q 268 13 338 -14 q 153 90 199 40 q 85 208 107 139 q 63 364 63 278 m 219 364 q 232 240 219 297 q 273 142 244 183 q 347 76 301 100 q 457 51 392 51 q 592 126 539 51 q 644 364 644 201 q 632 488 644 431 q 592 588 619 546 q 523 654 565 631 q 419 678 481 678 q 274 603 328 678 q 219 364 219 528 m 172 956 q 197 1020 172 996 q 261 1044 221 1044 q 326 1020 301 1044 q 350 956 350 996 q 326 894 350 918 q 261 869 301 869 q 197 894 221 869 q 172 956 172 918 m 514 956 q 540 1020 514 996 q 604 1044 565 1044 q 668 1020 644 1044 q 692 956 692 996 q 668 894 692 918 q 604 869 644 869 q 540 894 565 869 q 514 956 514 918 z "},"÷":{"ha":833,"x_min":65,"x_max":767,"o":"m 65 518 l 767 518 l 767 443 l 65 443 l 65 518 m 308 744 q 338 813 308 788 q 415 838 367 838 q 494 813 464 838 q 525 744 525 788 q 494 678 525 703 q 415 653 464 653 q 338 678 367 653 q 308 744 308 703 m 308 215 q 338 283 308 258 q 415 308 367 308 q 494 283 464 308 q 525 215 525 258 q 494 149 525 174 q 415 124 464 124 q 338 149 367 124 q 308 215 308 174 z "},"ø":{"ha":864,"x_min":63,"x_max":801,"o":"m 181 60 q 92 189 121 111 q 63 364 63 267 q 89 526 63 456 q 163 645 115 597 q 280 718 211 693 q 432 743 349 743 q 542 734 492 743 q 631 704 592 725 l 701 807 l 764 767 l 690 665 q 775 537 749 613 q 801 364 801 461 q 776 202 801 272 q 702 84 750 132 q 585 11 654 36 q 432 -14 517 -14 q 328 -6 376 -14 q 242 22 281 3 l 164 -89 l 104 -50 l 181 60 m 219 364 q 228 260 219 308 q 258 171 238 211 l 569 618 q 505 664 542 650 q 419 678 468 678 q 274 603 328 678 q 219 364 219 528 m 644 364 q 636 464 644 417 q 610 550 628 511 l 300 106 q 367 64 328 76 q 458 51 406 51 q 592 126 540 51 q 644 364 644 201 z "},"ù":{"ha":899,"x_min":26,"x_max":860,"o":"m 121 289 q 125 476 121 381 q 129 660 129 572 l 26 660 l 26 729 l 274 729 q 269 522 271 621 q 267 315 267 422 q 273 215 267 258 q 297 140 279 171 q 344 94 314 110 q 422 79 375 79 q 539 124 492 79 q 611 243 586 168 l 611 660 l 510 660 l 510 729 l 757 729 l 757 69 l 860 69 l 860 0 l 628 0 l 618 158 l 611 158 q 584 99 604 129 q 533 43 564 68 q 463 2 503 18 q 375 -14 422 -14 q 265 -1 313 -14 q 186 47 218 13 q 138 140 154 82 q 121 289 121 199 m 560 854 l 521 822 l 249 985 l 249 1042 l 424 1042 l 560 854 z "},"ú":{"ha":899,"x_min":26,"x_max":860,"o":"m 121 289 q 125 476 121 381 q 129 660 129 572 l 26 660 l 26 729 l 274 729 q 269 522 271 621 q 267 315 267 422 q 273 215 267 258 q 297 140 279 171 q 344 94 314 110 q 422 79 375 79 q 539 124 492 79 q 611 243 586 168 l 611 660 l 510 660 l 510 729 l 757 729 l 757 69 l 860 69 l 860 0 l 628 0 l 618 158 l 611 158 q 584 99 604 129 q 533 43 564 68 q 463 2 503 18 q 375 -14 422 -14 q 265 -1 313 -14 q 186 47 218 13 q 138 140 154 82 q 121 289 121 199 m 497 1042 l 672 1042 l 672 985 l 400 822 l 361 854 l 497 1042 z "},"û":{"ha":899,"x_min":26,"x_max":860,"o":"m 121 289 q 125 476 121 381 q 129 660 129 572 l 26 660 l 26 729 l 274 729 q 269 522 271 621 q 267 315 267 422 q 273 215 267 258 q 297 140 279 171 q 344 94 314 110 q 422 79 375 79 q 539 124 492 79 q 611 243 586 168 l 611 660 l 510 660 l 510 729 l 757 729 l 757 69 l 860 69 l 860 0 l 628 0 l 618 158 l 611 158 q 584 99 604 129 q 533 43 564 68 q 463 2 503 18 q 375 -14 422 -14 q 265 -1 313 -14 q 186 47 218 13 q 138 140 154 82 q 121 289 121 199 m 299 860 l 254 883 l 428 1156 l 468 1156 l 643 885 l 599 860 l 442 1015 l 299 860 z "},"ü":{"ha":899,"x_min":26,"x_max":860,"o":"m 121 289 q 125 476 121 381 q 129 660 129 572 l 26 660 l 26 729 l 274 729 q 269 522 271 621 q 267 315 267 422 q 273 215 267 258 q 297 140 279 171 q 344 94 314 110 q 422 79 375 79 q 539 124 492 79 q 611 243 586 168 l 611 660 l 510 660 l 510 729 l 757 729 l 757 69 l 860 69 l 860 0 l 628 0 l 618 158 l 611 158 q 584 99 604 129 q 533 43 564 68 q 463 2 503 18 q 375 -14 422 -14 q 265 -1 313 -14 q 186 47 218 13 q 138 140 154 82 q 121 289 121 199 m 186 956 q 210 1020 186 996 q 275 1044 235 1044 q 340 1020 315 1044 q 364 956 364 996 q 340 894 364 918 q 275 869 315 869 q 210 894 235 869 q 186 956 186 918 m 528 956 q 553 1020 528 996 q 618 1044 579 1044 q 682 1020 658 1044 q 706 956 706 996 q 682 894 706 918 q 618 869 658 869 q 553 894 579 869 q 528 956 528 918 z "},"ý":{"ha":789,"x_min":-17,"x_max":806,"o":"m 65 660 l -17 660 l -17 729 l 342 729 l 342 660 l 225 660 l 414 199 l 442 93 l 449 93 l 475 200 l 624 660 l 539 660 l 539 729 l 806 729 l 806 660 l 717 660 l 489 0 q 447 -105 469 -57 q 402 -190 424 -153 q 360 -249 381 -226 q 326 -278 340 -272 l 186 -278 l 186 -153 l 328 -153 q 346 -131 338 -142 q 363 -103 354 -119 q 381 -62 371 -86 q 403 0 390 -37 l 351 0 l 65 660 m 461 1042 l 636 1042 l 636 985 l 364 822 l 325 854 l 461 1042 z "},"þ":{"ha":883,"x_min":47,"x_max":821,"o":"m 399 -278 l 47 -278 l 47 -208 l 150 -208 l 150 972 l 47 972 l 47 1042 l 296 1042 l 296 583 l 297 583 q 384 700 328 657 q 532 743 440 743 q 745 658 669 743 q 821 381 821 574 q 795 215 821 289 q 722 90 769 142 q 606 12 674 39 q 456 -15 539 -15 q 406 -14 428 -15 q 367 -10 385 -12 q 331 -1 349 -7 q 296 11 314 4 l 296 -208 l 399 -208 l 399 -278 m 478 650 q 359 608 403 650 q 296 488 315 565 l 296 81 q 358 56 324 63 q 449 50 392 50 q 540 74 500 50 q 608 142 581 99 q 651 247 636 186 q 665 381 665 307 q 656 490 665 440 q 624 574 646 539 q 567 630 603 610 q 478 650 531 650 z "},"ÿ":{"ha":789,"x_min":-17,"x_max":806,"o":"m 65 660 l -17 660 l -17 729 l 342 729 l 342 660 l 225 660 l 414 199 l 442 93 l 449 93 l 475 200 l 624 660 l 539 660 l 539 729 l 806 729 l 806 660 l 717 660 l 489 0 q 447 -105 469 -57 q 402 -190 424 -153 q 360 -249 381 -226 q 326 -278 340 -272 l 186 -278 l 186 -153 l 328 -153 q 346 -131 338 -142 q 363 -103 354 -119 q 381 -62 371 -86 q 403 0 390 -37 l 351 0 l 65 660 m 150 956 q 174 1020 150 996 q 239 1044 199 1044 q 303 1020 279 1044 q 328 956 328 996 q 303 894 328 918 q 239 869 279 869 q 174 894 199 869 q 150 956 150 918 m 492 956 q 517 1020 492 996 q 582 1044 543 1044 q 646 1020 622 1044 q 669 956 669 996 q 646 894 669 918 q 582 869 622 869 q 517 894 543 869 q 492 956 492 918 z "},"Ā":{"ha":1049,"x_min":0,"x_max":1049,"o":"m 340 0 l 0 0 l 0 78 l 108 78 l 468 972 l 615 972 l 944 78 l 1049 78 l 1049 0 l 651 0 l 651 78 l 775 78 l 685 322 l 315 322 l 221 78 l 340 78 l 340 0 m 347 400 l 661 400 l 547 721 l 513 868 l 507 868 l 467 718 l 347 400 m 297 1093 l 297 1182 l 769 1182 l 769 1093 l 297 1093 z "},"ā":{"ha":790,"x_min":60,"x_max":742,"o":"m 644 193 q 646 128 644 161 q 650 69 647 96 l 742 69 l 742 0 l 524 0 l 510 132 l 503 132 q 477 78 496 104 q 430 31 458 51 q 363 -3 401 10 q 276 -15 324 -15 q 190 -1 229 -15 q 121 38 150 13 q 76 98 92 63 q 60 178 60 133 q 88 290 60 246 q 172 360 117 335 q 311 397 228 386 q 506 410 394 408 q 508 452 508 432 q 508 492 508 472 q 479 623 508 578 q 375 668 450 668 q 315 665 347 668 q 257 649 283 663 l 257 521 l 132 521 l 132 675 q 250 722 182 701 q 410 743 318 743 q 537 723 489 743 q 610 670 585 703 q 644 597 636 638 q 651 515 651 556 q 648 348 651 428 q 644 193 644 268 m 340 78 q 400 88 374 78 q 447 115 426 99 q 481 150 467 131 q 506 188 496 169 l 506 353 q 359 341 415 353 q 271 310 303 329 q 227 263 239 290 q 215 206 215 236 q 249 110 215 143 q 340 78 282 78 m 192 928 l 192 1004 l 592 1004 l 592 928 l 192 928 z "},"Ă":{"ha":1049,"x_min":0,"x_max":1049,"o":"m 340 0 l 0 0 l 0 78 l 108 78 l 468 972 l 615 972 l 944 78 l 1049 78 l 1049 0 l 651 0 l 651 78 l 775 78 l 685 322 l 315 322 l 221 78 l 340 78 l 340 0 m 347 400 l 661 400 l 547 721 l 513 868 l 507 868 l 467 718 l 347 400 m 774 1236 q 738 1167 761 1200 q 685 1108 715 1133 q 617 1069 654 1083 q 542 1054 581 1054 q 459 1068 499 1054 q 388 1107 419 1082 q 332 1166 356 1132 q 299 1239 308 1200 l 364 1260 q 396 1228 375 1243 q 442 1203 417 1214 q 493 1188 467 1193 q 543 1182 519 1182 q 642 1198 593 1182 q 724 1256 692 1214 l 774 1236 z "},"ă":{"ha":790,"x_min":60,"x_max":742,"o":"m 644 193 q 646 128 644 161 q 650 69 647 96 l 742 69 l 742 0 l 524 0 l 510 132 l 503 132 q 477 78 496 104 q 430 31 458 51 q 363 -3 401 10 q 276 -15 324 -15 q 190 -1 229 -15 q 121 38 150 13 q 76 98 92 63 q 60 178 60 133 q 88 290 60 246 q 172 360 117 335 q 311 397 228 386 q 506 410 394 408 q 508 452 508 432 q 508 492 508 472 q 479 623 508 578 q 375 668 450 668 q 315 665 347 668 q 257 649 283 663 l 257 521 l 132 521 l 132 675 q 250 722 182 701 q 410 743 318 743 q 537 723 489 743 q 610 670 585 703 q 644 597 636 638 q 651 515 651 556 q 648 348 651 428 q 644 193 644 268 m 340 78 q 400 88 374 78 q 447 115 426 99 q 481 150 467 131 q 506 188 496 169 l 506 353 q 359 341 415 353 q 271 310 303 329 q 227 263 239 290 q 215 206 215 236 q 249 110 215 143 q 340 78 282 78 m 608 1050 q 574 985 594 1017 q 528 928 554 953 q 470 887 503 903 q 399 871 438 871 q 263 922 315 871 q 182 1053 210 974 l 226 1072 q 260 1034 239 1051 q 305 1004 281 1017 q 355 984 329 992 q 404 976 381 976 q 497 999 454 976 q 571 1067 540 1022 l 608 1050 z "},"Ą":{"ha":1049,"x_min":0,"x_max":1049,"o":"m 340 0 l 0 0 l 0 78 l 108 78 l 468 972 l 615 972 l 944 78 l 1049 78 l 1049 0 l 971 0 q 870 -60 907 -26 q 833 -153 833 -94 q 861 -205 833 -190 q 935 -219 889 -219 q 1022 -211 982 -219 l 1022 -254 q 965 -281 1000 -269 q 879 -293 931 -293 q 810 -286 843 -293 q 753 -265 778 -279 q 715 -230 729 -251 q 700 -178 700 -208 q 748 -70 700 -114 q 867 0 796 -26 l 651 0 l 651 78 l 775 78 l 685 322 l 315 322 l 221 78 l 340 78 l 340 0 m 347 400 l 661 400 l 547 721 l 513 868 l 507 868 l 467 718 l 347 400 z "},"ą":{"ha":790,"x_min":60,"x_max":742,"o":"m 644 193 q 646 128 644 161 q 650 69 647 96 l 742 69 l 742 0 l 725 0 q 611 -44 657 -12 q 565 -139 565 -75 q 585 -190 565 -167 q 654 -212 606 -212 q 736 -199 696 -212 l 736 -249 q 680 -269 714 -261 q 618 -278 646 -278 q 479 -248 526 -278 q 432 -162 432 -218 q 452 -97 432 -125 q 501 -50 472 -69 q 565 -19 531 -31 q 626 0 599 -7 l 524 0 l 510 132 l 503 132 q 477 78 496 104 q 430 31 458 51 q 363 -3 401 10 q 276 -15 324 -15 q 190 -1 229 -15 q 121 38 150 13 q 76 98 92 63 q 60 178 60 133 q 88 290 60 246 q 172 360 117 335 q 311 397 228 386 q 506 410 394 408 q 510 492 510 453 q 480 623 510 578 q 375 668 450 668 q 315 665 347 668 q 257 649 283 663 l 257 521 l 132 521 l 132 675 q 250 722 182 701 q 410 743 318 743 q 537 723 489 743 q 610 670 585 703 q 644 597 636 638 q 651 515 651 556 q 648 348 651 428 q 644 193 644 268 m 340 78 q 400 88 374 78 q 447 115 426 99 q 481 150 467 131 q 506 188 496 169 l 506 353 q 360 341 417 353 q 272 310 304 329 q 227 263 239 290 q 215 206 215 236 q 249 110 215 143 q 340 78 282 78 z "},"Ć":{"ha":969,"x_min":79,"x_max":879,"o":"m 790 256 l 879 256 l 879 38 q 765 -1 836 14 q 625 -17 694 -17 q 396 13 497 -17 q 224 103 294 42 q 117 260 154 165 q 79 486 79 354 q 121 717 79 622 q 233 873 163 813 q 397 961 304 933 q 593 989 490 989 q 683 985 643 989 q 756 975 724 982 q 817 958 789 968 q 871 938 844 949 l 871 700 l 782 700 l 782 846 l 763 874 q 715 890 747 881 q 610 900 682 900 q 469 876 535 900 q 356 803 404 853 q 281 674 308 753 q 253 486 253 596 q 353 180 253 288 q 636 72 454 72 q 720 80 686 72 q 771 100 754 88 l 790 126 l 790 256 m 669 1269 l 840 1224 l 840 1168 l 485 1068 l 467 1101 l 669 1269 z "},"ć":{"ha":726,"x_min":63,"x_max":669,"o":"m 669 93 q 577 19 640 53 q 428 -15 514 -15 q 267 12 336 -15 q 153 88 199 39 q 85 208 107 138 q 63 364 63 278 q 160 646 63 549 q 426 743 258 743 q 553 733 503 743 q 644 703 603 724 l 644 522 l 519 522 l 519 656 q 436 668 499 668 q 343 653 383 668 q 275 603 303 638 q 233 510 247 568 q 219 367 219 451 q 235 260 219 311 q 281 172 250 210 q 358 111 311 133 q 467 89 404 89 q 526 96 500 89 q 571 110 551 103 q 606 128 590 118 q 635 149 621 138 l 669 93 m 461 1042 l 636 1042 l 636 985 l 364 822 l 325 854 l 461 1042 z "},"Ĉ":{"ha":969,"x_min":79,"x_max":879,"o":"m 790 256 l 879 256 l 879 38 q 765 -1 836 14 q 625 -17 694 -17 q 396 13 497 -17 q 224 103 294 42 q 117 260 154 165 q 79 486 79 354 q 121 717 79 622 q 233 873 163 813 q 397 961 304 933 q 593 989 490 989 q 683 985 643 989 q 756 975 724 982 q 817 958 789 968 q 871 938 844 949 l 871 700 l 782 700 l 782 846 l 763 874 q 715 890 747 881 q 610 900 682 900 q 469 876 535 900 q 356 803 404 853 q 281 674 308 753 q 253 486 253 596 q 353 180 253 288 q 636 72 454 72 q 720 80 686 72 q 771 100 754 88 l 790 126 l 790 256 m 386 1057 l 364 1085 l 561 1269 l 604 1269 l 800 1089 l 775 1058 l 578 1136 l 386 1057 z "},"ĉ":{"ha":726,"x_min":63,"x_max":669,"o":"m 669 93 q 577 19 640 53 q 428 -15 514 -15 q 267 12 336 -15 q 153 88 199 39 q 85 208 107 138 q 63 364 63 278 q 160 646 63 549 q 426 743 258 743 q 553 733 503 743 q 644 703 603 724 l 644 522 l 519 522 l 519 656 q 436 668 499 668 q 343 653 383 668 q 275 603 303 638 q 233 510 247 568 q 219 367 219 451 q 235 260 219 311 q 281 172 250 210 q 358 111 311 133 q 467 89 404 89 q 526 96 500 89 q 571 110 551 103 q 606 128 590 118 q 635 149 621 138 l 669 93 m 260 860 l 215 883 l 389 1156 l 429 1156 l 604 885 l 560 860 l 403 1015 l 260 860 z "},"Č":{"ha":969,"x_min":79,"x_max":879,"o":"m 790 256 l 879 256 l 879 38 q 765 -1 836 14 q 625 -17 694 -17 q 396 13 497 -17 q 224 103 294 42 q 117 260 154 165 q 79 486 79 354 q 121 717 79 622 q 233 873 163 813 q 397 961 304 933 q 593 989 490 989 q 683 985 643 989 q 756 975 724 982 q 817 958 789 968 q 871 938 844 949 l 871 700 l 782 700 l 782 846 l 763 874 q 715 890 747 881 q 610 900 682 900 q 469 876 535 900 q 356 803 404 853 q 281 674 308 753 q 253 486 253 596 q 353 180 253 288 q 636 72 454 72 q 720 80 686 72 q 771 100 754 88 l 790 126 l 790 256 m 781 1276 l 819 1251 l 622 1054 l 579 1054 l 383 1247 l 422 1276 l 607 1200 l 781 1276 z "},"č":{"ha":726,"x_min":63,"x_max":669,"o":"m 669 93 q 577 19 640 53 q 428 -15 514 -15 q 267 12 336 -15 q 153 88 199 39 q 85 208 107 138 q 63 364 63 278 q 160 646 63 549 q 426 743 258 743 q 553 733 503 743 q 644 703 603 724 l 644 522 l 519 522 l 519 656 q 436 668 499 668 q 343 653 383 668 q 275 603 303 638 q 233 510 247 568 q 219 367 219 451 q 235 260 219 311 q 281 172 250 210 q 358 111 311 133 q 467 89 404 89 q 526 96 500 89 q 571 110 551 103 q 606 128 590 118 q 635 149 621 138 l 669 93 m 563 1119 l 607 1096 l 414 825 l 374 825 l 183 1094 l 239 1119 l 404 967 l 563 1119 z "},"Ď":{"ha":1086,"x_min":44,"x_max":1007,"o":"m 44 0 l 44 78 l 171 78 l 171 894 l 44 894 l 44 972 l 215 972 q 277 974 242 972 q 350 977 313 975 q 422 981 388 979 q 479 983 456 983 q 707 951 608 983 q 872 856 806 918 q 973 704 939 794 q 1007 499 1007 614 q 975 294 1007 388 q 875 133 943 201 q 701 26 807 64 q 447 -12 594 -12 q 396 -10 425 -12 q 334 -6 367 -8 q 268 -2 301 -4 q 206 0 235 0 l 44 0 m 458 906 q 383 904 419 906 q 326 899 347 903 l 326 71 q 354 69 335 69 q 397 67 374 68 q 440 66 419 67 q 469 65 461 65 q 643 101 574 65 q 755 195 713 136 q 815 333 797 254 q 833 499 833 411 q 816 639 833 567 q 756 771 799 711 q 640 868 713 831 q 458 906 568 906 m 649 1276 l 688 1251 l 490 1054 l 447 1054 l 251 1247 l 290 1276 l 475 1200 l 649 1276 z "},"ď":{"ha":868,"x_min":63,"x_max":1011,"o":"m 581 144 q 553 83 572 113 q 508 32 535 54 q 446 -3 481 10 q 371 -15 411 -15 q 140 76 217 -15 q 63 360 63 167 q 88 524 63 453 q 161 644 114 596 q 275 718 208 693 q 424 743 342 743 q 474 742 453 743 q 513 738 494 740 q 547 730 531 735 q 583 719 564 725 l 583 972 l 465 972 l 465 1042 l 729 1042 l 729 69 l 824 69 l 824 0 l 599 0 l 586 144 l 581 144 m 403 78 q 522 121 479 78 q 583 240 565 164 l 583 650 q 522 671 556 664 q 432 678 488 678 q 341 656 381 678 q 274 592 301 633 q 233 491 247 550 q 219 360 219 432 q 230 250 219 301 q 263 160 240 199 q 319 100 285 122 q 403 78 354 78 m 793 790 q 843 934 826 857 q 860 1071 860 1011 l 881 1096 q 910 1093 892 1096 q 947 1085 928 1090 q 984 1074 967 1081 q 1011 1060 1001 1068 q 984 978 1004 1019 q 938 898 964 936 q 881 828 911 860 q 826 775 851 796 l 793 790 z "},"Đ":{"ha":1086,"x_min":32,"x_max":1007,"o":"m 44 0 l 44 78 l 171 78 l 171 460 l 32 460 l 32 535 l 171 535 l 171 894 l 44 894 l 44 972 l 215 972 q 277 974 242 972 q 350 977 313 975 q 422 981 388 979 q 479 983 456 983 q 707 951 608 983 q 872 856 806 918 q 973 704 939 794 q 1007 499 1007 614 q 975 294 1007 388 q 875 133 943 201 q 701 26 807 64 q 447 -12 594 -12 q 396 -10 425 -12 q 334 -6 367 -8 q 268 -2 301 -4 q 206 0 235 0 l 44 0 m 458 906 q 383 904 419 906 q 326 899 347 903 l 326 535 l 575 535 l 575 460 l 326 460 l 326 71 q 354 69 335 69 q 397 67 374 68 q 440 66 419 67 q 469 65 461 65 q 643 101 574 65 q 755 195 713 136 q 815 333 797 254 q 833 499 833 411 q 816 639 833 567 q 756 771 799 711 q 640 868 713 831 q 458 906 568 906 z "},"đ":{"ha":868,"x_min":63,"x_max":871,"o":"m 349 907 l 583 907 l 583 972 l 467 972 l 467 1042 l 729 1042 l 729 907 l 871 907 l 871 831 l 729 831 l 729 69 l 824 69 l 824 0 l 599 0 l 585 144 l 579 144 q 552 83 571 113 q 506 32 533 54 q 445 -3 479 10 q 371 -15 411 -15 q 140 76 217 -15 q 63 360 63 167 q 88 524 63 453 q 161 644 114 596 q 275 718 208 693 q 424 743 342 743 q 474 742 453 743 q 513 738 494 740 q 547 730 531 735 q 583 719 564 725 l 583 831 l 349 831 l 349 907 m 403 78 q 522 121 479 78 q 583 240 565 164 l 583 650 q 522 671 556 664 q 432 678 488 678 q 341 656 381 678 q 274 592 301 633 q 233 491 247 550 q 219 360 219 432 q 230 250 219 301 q 263 160 240 199 q 319 100 285 122 q 403 78 354 78 z "},"Ē":{"ha":896,"x_min":44,"x_max":807,"o":"m 783 972 l 783 744 l 694 744 l 694 864 l 667 894 l 326 894 l 326 535 l 561 535 l 582 556 l 582 614 l 671 614 l 671 376 l 582 376 l 582 435 l 561 457 l 326 457 l 326 78 l 690 78 l 718 106 l 718 242 l 807 242 l 807 0 l 44 0 l 44 78 l 171 78 l 171 894 l 44 894 l 44 972 l 783 972 m 214 1093 l 214 1182 l 686 1182 l 686 1093 l 214 1093 z "},"ē":{"ha":786,"x_min":63,"x_max":714,"o":"m 693 96 q 591 15 657 44 q 438 -15 525 -15 q 276 12 346 -15 q 158 88 206 39 q 87 208 111 138 q 63 364 63 278 q 156 647 63 550 q 417 743 249 743 q 526 729 472 743 q 621 683 579 715 q 688 599 663 651 q 714 468 714 546 q 711 418 714 444 q 703 363 708 392 l 219 363 q 235 251 219 301 q 284 165 251 201 q 365 109 317 129 q 481 89 414 89 q 581 107 535 89 q 656 149 628 125 l 693 96 m 411 678 q 335 665 368 678 q 279 624 303 653 q 242 547 256 594 q 224 428 228 499 l 558 428 q 560 453 560 440 q 561 478 561 467 q 524 624 561 569 q 411 678 488 678 m 208 928 l 208 1004 l 608 1004 l 608 928 l 208 928 z "},"Ė":{"ha":896,"x_min":44,"x_max":807,"o":"m 783 972 l 783 744 l 694 744 l 694 864 l 667 894 l 326 894 l 326 535 l 561 535 l 582 556 l 582 614 l 671 614 l 671 376 l 582 376 l 582 435 l 561 457 l 326 457 l 326 78 l 690 78 l 718 106 l 718 242 l 807 242 l 807 0 l 44 0 l 44 78 l 171 78 l 171 894 l 44 894 l 44 972 l 783 972 m 347 1140 q 379 1201 347 1181 q 458 1222 411 1222 q 539 1201 507 1222 q 571 1140 571 1181 q 539 1079 571 1100 q 458 1058 507 1058 q 379 1079 411 1058 q 347 1140 347 1100 z "},"ė":{"ha":786,"x_min":63,"x_max":714,"o":"m 693 96 q 591 15 657 44 q 438 -15 525 -15 q 276 12 346 -15 q 158 88 206 39 q 87 208 111 138 q 63 364 63 278 q 156 647 63 550 q 417 743 249 743 q 526 729 472 743 q 621 683 579 715 q 688 599 663 651 q 714 468 714 546 q 711 418 714 444 q 703 363 708 392 l 219 363 q 235 251 219 301 q 284 165 251 201 q 365 109 317 129 q 481 89 414 89 q 581 107 535 89 q 656 149 628 125 l 693 96 m 411 678 q 335 665 368 678 q 279 624 303 653 q 242 547 256 594 q 224 428 228 499 l 558 428 q 560 453 560 440 q 561 478 561 467 q 524 624 561 569 q 411 678 488 678 m 303 954 q 331 1018 303 994 q 404 1042 360 1042 q 478 1018 451 1042 q 506 954 506 994 q 478 890 506 914 q 404 867 451 867 q 331 890 360 867 q 303 954 303 914 z "},"Ę":{"ha":896,"x_min":44,"x_max":807,"o":"m 783 972 l 783 744 l 694 744 l 694 864 l 667 894 l 326 894 l 326 535 l 561 535 l 582 556 l 582 614 l 671 614 l 671 376 l 582 376 l 582 435 l 561 457 l 326 457 l 326 78 l 690 78 l 718 106 l 718 242 l 807 242 l 807 0 l 729 0 q 628 -60 665 -26 q 592 -153 592 -94 q 619 -205 592 -190 q 693 -219 647 -219 q 781 -211 740 -219 l 781 -254 q 724 -281 758 -269 q 638 -293 689 -293 q 569 -286 601 -293 q 512 -265 536 -279 q 473 -230 488 -251 q 458 -178 458 -208 q 506 -70 458 -114 q 625 0 554 -26 l 44 0 l 44 78 l 171 78 l 171 894 l 44 894 l 44 972 l 783 972 z "},"ę":{"ha":786,"x_min":63,"x_max":714,"o":"m 693 96 q 563 4 647 31 q 476 -53 510 -22 q 442 -139 442 -83 q 462 -190 442 -167 q 531 -212 482 -212 q 613 -199 572 -212 l 613 -249 q 556 -269 590 -261 q 494 -278 522 -278 q 356 -248 403 -278 q 308 -162 308 -218 q 343 -74 308 -108 q 436 -15 378 -40 q 274 12 344 -15 q 158 88 204 39 q 87 208 111 138 q 63 364 63 278 q 156 647 63 550 q 417 743 249 743 q 526 729 472 743 q 621 683 579 715 q 688 599 663 651 q 714 468 714 546 q 711 418 714 444 q 703 363 708 392 l 219 363 q 235 251 219 301 q 284 165 251 201 q 365 109 317 129 q 481 89 414 89 q 581 107 535 89 q 656 149 628 125 l 693 96 m 411 678 q 335 665 368 678 q 279 624 303 653 q 242 547 256 594 q 224 428 228 499 l 558 428 q 560 453 560 440 q 561 478 561 467 q 524 624 561 569 q 411 678 488 678 z "},"Ě":{"ha":896,"x_min":44,"x_max":807,"o":"m 783 972 l 783 744 l 694 744 l 694 864 l 667 894 l 326 894 l 326 535 l 561 535 l 582 556 l 582 614 l 671 614 l 671 376 l 582 376 l 582 435 l 561 457 l 326 457 l 326 78 l 690 78 l 718 106 l 718 242 l 807 242 l 807 0 l 44 0 l 44 78 l 171 78 l 171 894 l 44 894 l 44 972 l 783 972 m 646 1276 l 685 1251 l 488 1054 l 444 1054 l 249 1247 l 288 1276 l 472 1200 l 646 1276 z "},"ě":{"ha":786,"x_min":63,"x_max":714,"o":"m 693 96 q 591 15 657 44 q 438 -15 525 -15 q 276 12 346 -15 q 158 88 206 39 q 87 208 111 138 q 63 364 63 278 q 156 647 63 550 q 417 743 249 743 q 526 729 472 743 q 621 683 579 715 q 688 599 663 651 q 714 468 714 546 q 711 418 714 444 q 703 363 708 392 l 219 363 q 235 251 219 301 q 284 165 251 201 q 365 109 317 129 q 481 89 414 89 q 581 107 535 89 q 656 149 628 125 l 693 96 m 411 678 q 335 665 368 678 q 279 624 303 653 q 242 547 256 594 q 224 428 228 499 l 558 428 q 560 453 560 440 q 561 478 561 467 q 524 624 561 569 q 411 678 488 678 m 590 1119 l 635 1096 l 442 825 l 401 825 l 211 1094 l 267 1119 l 432 967 l 590 1119 z "},"Ĝ":{"ha":1075,"x_min":79,"x_max":1026,"o":"m 929 67 q 863 35 900 50 q 784 8 825 19 q 701 -10 743 -3 q 621 -17 660 -17 q 391 13 492 -17 q 221 105 290 43 q 115 262 151 167 q 79 486 79 357 q 123 718 79 622 q 239 874 167 814 q 405 962 311 935 q 597 989 499 989 q 767 975 700 989 q 886 938 833 961 l 886 700 l 797 700 l 797 846 l 778 874 q 746 885 765 881 q 705 894 726 890 q 660 899 683 897 q 618 900 638 900 q 475 876 542 900 q 359 803 408 853 q 281 674 310 753 q 253 486 253 596 q 351 181 253 289 q 632 72 449 72 q 710 78 678 72 q 768 94 743 85 l 789 119 l 789 382 l 642 382 l 642 460 l 1026 460 l 1026 382 l 929 382 l 929 67 m 390 1057 l 368 1085 l 565 1269 l 608 1269 l 804 1089 l 779 1058 l 582 1136 l 390 1057 z "},"ĝ":{"ha":822,"x_min":44,"x_max":808,"o":"m 808 729 l 808 640 l 646 640 q 682 586 665 621 q 699 503 699 551 q 618 338 699 400 q 386 275 538 275 q 339 276 358 275 q 297 282 319 276 q 280 252 290 268 q 269 218 269 236 q 306 174 269 189 q 396 148 342 160 q 514 124 450 136 q 633 90 578 113 q 724 29 688 67 q 760 -69 760 -8 q 733 -162 760 -122 q 656 -227 706 -201 q 539 -265 607 -253 q 390 -278 471 -278 q 131 -232 217 -278 q 44 -106 44 -186 q 97 14 44 -28 q 246 83 150 56 q 188 117 210 99 q 165 171 165 135 q 174 205 165 188 q 196 238 182 222 q 226 267 210 254 q 258 289 243 281 q 122 369 169 313 q 74 506 74 426 q 153 668 74 607 q 386 729 232 729 l 808 729 m 614 -103 q 581 -30 614 -57 q 499 15 549 -3 q 393 43 450 32 q 286 69 336 54 q 209 -1 228 35 q 190 -76 190 -36 q 249 -174 190 -135 q 418 -212 307 -212 q 513 -203 475 -212 q 573 -179 550 -194 q 605 -144 596 -164 q 614 -103 614 -125 m 219 506 q 228 439 219 469 q 255 387 236 408 q 306 353 274 365 q 386 340 338 340 q 514 385 475 340 q 553 506 553 431 q 551 554 553 535 q 545 589 549 574 q 538 616 542 604 q 529 640 533 628 q 461 659 497 654 q 386 664 425 664 q 256 625 292 664 q 219 506 219 586 m 233 860 l 189 883 l 363 1156 l 403 1156 l 578 885 l 533 860 l 376 1015 l 233 860 z "},"Ğ":{"ha":1075,"x_min":79,"x_max":1026,"o":"m 929 67 q 863 35 900 50 q 784 8 825 19 q 701 -10 743 -3 q 621 -17 660 -17 q 391 13 492 -17 q 221 105 290 43 q 115 262 151 167 q 79 486 79 357 q 123 718 79 622 q 239 874 167 814 q 405 962 311 935 q 597 989 499 989 q 767 975 700 989 q 886 938 833 961 l 886 700 l 797 700 l 797 846 l 778 874 q 746 885 765 881 q 705 894 726 890 q 660 899 683 897 q 618 900 638 900 q 475 876 542 900 q 359 803 408 853 q 281 674 310 753 q 253 486 253 596 q 351 181 253 289 q 632 72 449 72 q 710 78 678 72 q 768 94 743 85 l 789 119 l 789 382 l 642 382 l 642 460 l 1026 460 l 1026 382 l 929 382 l 929 67 m 856 1236 q 820 1167 843 1200 q 767 1108 797 1133 q 699 1069 736 1083 q 624 1054 663 1054 q 541 1068 581 1054 q 469 1107 501 1082 q 414 1166 438 1132 q 381 1239 390 1200 l 446 1260 q 478 1228 457 1243 q 524 1203 499 1214 q 575 1188 549 1193 q 625 1182 601 1182 q 724 1198 675 1182 q 806 1256 774 1214 l 856 1236 z "},"ğ":{"ha":822,"x_min":44,"x_max":808,"o":"m 808 729 l 808 640 l 646 640 q 682 586 665 621 q 699 503 699 551 q 618 338 699 400 q 386 275 538 275 q 339 276 358 275 q 297 282 319 276 q 280 252 290 268 q 269 218 269 236 q 306 174 269 189 q 396 148 342 160 q 514 124 450 136 q 633 90 578 113 q 724 29 688 67 q 760 -69 760 -8 q 733 -162 760 -122 q 656 -227 706 -201 q 539 -265 607 -253 q 390 -278 471 -278 q 131 -232 217 -278 q 44 -106 44 -186 q 97 14 44 -28 q 246 83 150 56 q 188 117 210 99 q 165 171 165 135 q 174 205 165 188 q 196 238 182 222 q 226 267 210 254 q 258 289 243 281 q 122 369 169 313 q 74 506 74 426 q 153 668 74 607 q 386 729 232 729 l 808 729 m 614 -103 q 581 -30 614 -57 q 499 15 549 -3 q 393 43 450 32 q 286 69 336 54 q 209 -1 228 35 q 190 -76 190 -36 q 249 -174 190 -135 q 418 -212 307 -212 q 513 -203 475 -212 q 573 -179 550 -194 q 605 -144 596 -164 q 614 -103 614 -125 m 219 506 q 228 439 219 469 q 255 387 236 408 q 306 353 274 365 q 386 340 338 340 q 514 385 475 340 q 553 506 553 431 q 551 554 553 535 q 545 589 549 574 q 538 616 542 604 q 529 640 533 628 q 461 659 497 654 q 386 664 425 664 q 256 625 292 664 q 219 506 219 586 m 608 1050 q 574 985 594 1017 q 528 928 554 953 q 470 887 503 903 q 399 871 438 871 q 263 922 315 871 q 182 1053 210 974 l 226 1072 q 260 1034 239 1051 q 305 1004 281 1017 q 355 984 329 992 q 404 976 381 976 q 497 999 454 976 q 571 1067 540 1022 l 608 1050 z "},"Ģ":{"ha":1075,"x_min":79,"x_max":1026,"o":"m 929 67 q 863 35 900 50 q 784 8 825 19 q 701 -10 743 -3 q 621 -17 660 -17 q 391 13 492 -17 q 221 105 290 43 q 115 262 151 167 q 79 486 79 357 q 123 718 79 622 q 239 874 167 814 q 405 962 311 935 q 597 989 499 989 q 767 975 700 989 q 886 938 833 961 l 886 700 l 797 700 l 797 846 l 778 874 q 746 885 765 881 q 705 894 726 890 q 660 899 683 897 q 618 900 638 900 q 475 876 542 900 q 359 803 408 853 q 281 674 310 753 q 253 486 253 596 q 351 181 253 289 q 632 72 449 72 q 710 78 678 72 q 768 94 743 85 l 789 119 l 789 382 l 642 382 l 642 460 l 1026 460 l 1026 382 l 929 382 l 929 67 m 458 -337 q 552 -295 517 -322 q 588 -226 588 -268 l 588 -217 l 504 -217 q 485 -182 490 -200 q 479 -144 479 -164 q 504 -67 479 -103 l 679 -67 q 703 -162 703 -114 q 683 -244 703 -207 q 633 -311 664 -282 q 560 -360 601 -340 q 478 -389 519 -381 l 458 -337 z "},"ģ":{"ha":822,"x_min":44,"x_max":808,"o":"m 808 729 l 808 640 l 646 640 q 682 586 665 621 q 699 503 699 551 q 618 338 699 400 q 386 275 538 275 q 339 276 358 275 q 297 282 319 276 q 280 252 290 268 q 269 218 269 236 q 306 174 269 189 q 396 148 342 160 q 514 124 450 136 q 633 90 578 113 q 724 29 688 67 q 760 -69 760 -8 q 733 -162 760 -122 q 656 -227 706 -201 q 539 -265 607 -253 q 390 -278 471 -278 q 131 -232 217 -278 q 44 -106 44 -186 q 97 14 44 -28 q 246 83 150 56 q 188 117 210 99 q 165 171 165 135 q 174 205 165 188 q 196 238 182 222 q 226 267 210 254 q 258 289 243 281 q 122 369 169 313 q 74 506 74 426 q 153 668 74 607 q 386 729 232 729 l 808 729 m 614 -103 q 581 -30 614 -57 q 499 15 549 -3 q 393 43 450 32 q 286 69 336 54 q 209 -1 228 35 q 190 -76 190 -36 q 249 -174 190 -135 q 418 -212 307 -212 q 513 -203 475 -212 q 573 -179 550 -194 q 605 -144 596 -164 q 614 -103 614 -125 m 219 506 q 228 439 219 469 q 255 387 236 408 q 306 353 274 365 q 386 340 338 340 q 514 385 475 340 q 553 506 553 431 q 551 554 553 535 q 545 589 549 574 q 538 616 542 604 q 529 640 533 628 q 461 659 497 654 q 386 664 425 664 q 256 625 292 664 q 219 506 219 586 m 489 1126 q 395 1081 431 1111 q 360 1008 360 1050 l 360 999 l 443 999 q 463 965 457 982 q 468 931 468 947 q 443 856 468 892 l 282 856 q 263 908 268 883 q 257 957 257 933 q 274 1037 257 1000 q 322 1102 292 1074 q 390 1150 351 1131 q 469 1178 428 1169 l 489 1126 z "},"Ĥ":{"ha":1139,"x_min":44,"x_max":1094,"o":"m 442 78 l 442 0 l 44 0 l 44 78 l 171 78 l 171 894 l 44 894 l 44 972 l 442 972 l 442 894 l 326 894 l 326 538 l 813 538 l 813 894 l 697 894 l 697 972 l 1094 972 l 1094 894 l 968 894 l 968 78 l 1094 78 l 1094 0 l 697 0 l 697 78 l 813 78 l 813 460 l 326 460 l 326 78 l 442 78 m 375 1057 l 353 1085 l 550 1269 l 593 1269 l 789 1089 l 764 1058 l 567 1136 l 375 1057 z "},"ĥ":{"ha":918,"x_min":-19,"x_max":892,"o":"m 892 0 l 551 0 l 551 69 l 643 69 l 643 411 q 613 588 643 526 q 504 650 582 650 q 426 636 463 650 q 363 600 390 622 q 315 551 335 578 q 285 497 294 524 l 285 69 l 376 69 l 376 0 l 36 0 l 36 69 l 139 69 l 139 972 l 21 972 l 21 1042 l 285 1042 l 285 582 l 286 582 q 387 697 318 650 q 551 743 456 743 q 650 730 606 743 q 725 682 694 717 q 772 589 756 647 q 789 440 789 531 l 789 69 l 892 69 l 892 0 m 3 1057 l -19 1085 l 178 1269 l 221 1269 l 417 1089 l 392 1058 l 194 1136 l 3 1057 z "},"Ħ":{"ha":1139,"x_min":44,"x_max":1094,"o":"m 47 778 l 171 778 l 171 894 l 44 894 l 44 972 l 442 972 l 442 894 l 326 894 l 326 778 l 813 778 l 813 894 l 697 894 l 697 972 l 1094 972 l 1094 894 l 968 894 l 968 778 l 1092 778 l 1092 703 l 968 703 l 968 78 l 1094 78 l 1094 0 l 697 0 l 697 78 l 813 78 l 813 460 l 326 460 l 326 78 l 442 78 l 442 0 l 44 0 l 44 78 l 171 78 l 171 703 l 47 703 l 47 778 m 813 538 l 813 703 l 326 703 l 326 538 l 813 538 z "},"ħ":{"ha":918,"x_min":7,"x_max":892,"o":"m 7 907 l 139 907 l 139 972 l 21 972 l 21 1042 l 285 1042 l 285 907 l 529 907 l 529 831 l 285 831 l 285 582 l 286 582 q 387 697 318 650 q 551 743 456 743 q 650 730 606 743 q 725 682 694 717 q 772 589 756 647 q 789 440 789 531 l 789 69 l 892 69 l 892 0 l 551 0 l 551 69 l 643 69 l 643 411 q 613 588 643 526 q 504 650 582 650 q 426 636 463 650 q 363 600 390 622 q 315 551 335 578 q 285 497 294 524 l 285 69 l 376 69 l 376 0 l 36 0 l 36 69 l 139 69 l 139 831 l 7 831 l 7 907 z "},"Ī":{"ha":553,"x_min":40,"x_max":513,"o":"m 481 0 l 72 0 l 72 78 l 199 78 l 199 894 l 72 894 l 72 972 l 481 972 l 481 894 l 354 894 l 354 78 l 481 78 l 481 0 m 40 1093 l 40 1182 l 513 1182 l 513 1093 l 40 1093 z "},"ī":{"ha":471,"x_min":36,"x_max":436,"o":"m 414 0 l 63 0 l 63 69 l 165 69 l 165 660 l 63 660 l 63 729 l 311 729 l 311 69 l 414 69 l 414 0 m 36 928 l 36 1004 l 436 1004 l 436 928 l 36 928 z "},"Į":{"ha":553,"x_min":72,"x_max":481,"o":"m 481 0 l 403 0 q 302 -60 339 -26 q 265 -153 265 -94 q 293 -205 265 -190 q 367 -219 321 -219 q 454 -211 414 -219 l 454 -254 q 397 -281 432 -269 q 311 -293 363 -293 q 242 -286 275 -293 q 185 -265 210 -279 q 147 -230 161 -251 q 132 -178 132 -208 q 180 -70 132 -114 q 299 0 228 -26 l 72 0 l 72 78 l 199 78 l 199 894 l 72 894 l 72 972 l 481 972 l 481 894 l 354 894 l 354 78 l 481 78 l 481 0 z "},"į":{"ha":471,"x_min":63,"x_max":414,"o":"m 414 0 l 392 0 q 330 -24 358 -8 q 281 -58 301 -39 q 248 -97 260 -76 q 236 -139 236 -118 q 256 -190 236 -167 q 325 -212 276 -212 q 407 -199 367 -212 l 407 -249 q 351 -269 385 -261 q 289 -278 317 -278 q 150 -248 197 -278 q 103 -162 103 -218 q 151 -70 103 -106 q 299 0 199 -35 l 63 0 l 63 69 l 165 69 l 165 660 l 63 660 l 63 729 l 311 729 l 311 69 l 414 69 l 414 0 m 135 954 q 163 1018 135 994 q 236 1042 192 1042 q 310 1018 283 1042 q 338 954 338 994 q 310 890 338 914 q 236 867 283 867 q 163 890 192 867 q 135 954 135 914 z "},"İ":{"ha":553,"x_min":72,"x_max":481,"o":"m 481 0 l 72 0 l 72 78 l 199 78 l 199 894 l 72 894 l 72 972 l 481 972 l 481 894 l 354 894 l 354 78 l 481 78 l 481 0 m 163 1140 q 194 1201 163 1181 q 274 1222 226 1222 q 354 1201 322 1222 q 386 1140 386 1181 q 354 1079 386 1100 q 274 1058 322 1058 q 194 1079 226 1058 q 163 1140 163 1100 z "},"ı":{"ha":471,"x_min":63,"x_max":414,"o":"m 414 0 l 63 0 l 63 69 l 165 69 l 165 660 l 63 660 l 63 729 l 311 729 l 311 69 l 414 69 l 414 0 z "},"Ĵ":{"ha":528,"x_min":33,"x_max":469,"o":"m 50 -157 q 96 -130 74 -146 q 135 -85 118 -114 q 163 -11 153 -57 q 174 108 174 35 l 174 894 l 58 894 l 58 972 l 456 972 l 456 894 l 329 894 l 329 122 q 303 -40 329 24 q 240 -141 278 -103 q 160 -197 203 -179 q 82 -222 117 -215 l 50 -157 m 56 1057 l 33 1085 l 231 1269 l 274 1269 l 469 1089 l 444 1058 l 247 1136 l 56 1057 z "},"ĵ":{"ha":453,"x_min":38,"x_max":431,"o":"m 165 660 l 63 660 l 63 729 l 311 729 l 311 86 q 283 -86 311 -18 q 215 -197 254 -154 q 137 -259 176 -239 q 75 -286 97 -279 l 38 -226 q 78 -201 56 -218 q 119 -151 100 -183 q 152 -69 139 -119 q 165 58 165 -18 l 165 660 m 86 860 l 42 883 l 215 1156 l 256 1156 l 431 885 l 386 860 l 229 1015 l 86 860 z "},"Ķ":{"ha":989,"x_min":44,"x_max":989,"o":"m 417 531 l 719 894 l 607 894 l 607 972 l 950 972 l 950 894 l 840 894 l 510 524 l 903 78 l 989 78 l 989 0 l 765 0 l 400 461 l 326 461 l 326 78 l 442 78 l 442 0 l 44 0 l 44 78 l 171 78 l 171 894 l 44 894 l 44 972 l 442 972 l 442 894 l 326 894 l 326 531 l 417 531 m 368 -337 q 462 -295 426 -322 q 497 -226 497 -268 l 497 -217 l 414 -217 q 394 -182 400 -200 q 389 -144 389 -164 q 414 -67 389 -103 l 589 -67 q 613 -162 613 -114 q 593 -244 613 -207 q 542 -311 574 -282 q 470 -360 511 -340 q 388 -389 429 -381 l 368 -337 z "},"ķ":{"ha":808,"x_min":21,"x_max":794,"o":"m 440 729 l 746 729 l 746 660 l 657 660 l 442 411 l 725 69 l 794 69 l 794 0 l 594 0 l 336 346 l 285 346 l 285 69 l 388 69 l 388 0 l 36 0 l 36 69 l 139 69 l 139 972 l 21 972 l 21 1042 l 285 1042 l 285 401 l 333 401 l 546 660 l 440 660 l 440 729 m 276 -337 q 370 -292 335 -322 q 406 -219 406 -261 l 406 -210 l 322 -210 q 303 -176 308 -193 q 297 -142 297 -158 q 322 -67 297 -103 l 483 -67 q 503 -119 497 -94 q 508 -168 508 -144 q 491 -248 508 -211 q 444 -313 474 -285 q 376 -361 414 -342 q 296 -389 338 -381 l 276 -337 z "},"Ĺ":{"ha":846,"x_min":44,"x_max":824,"o":"m 44 894 l 44 972 l 476 972 l 476 894 l 326 894 l 326 78 l 696 78 l 724 108 l 724 300 l 824 300 l 824 0 l 44 0 l 44 78 l 171 78 l 171 894 l 44 894 m 440 1269 l 611 1224 l 611 1168 l 256 1068 l 238 1101 l 440 1269 z "},"ĺ":{"ha":471,"x_min":47,"x_max":514,"o":"m 414 0 l 63 0 l 63 69 l 165 69 l 165 972 l 47 972 l 47 1042 l 311 1042 l 311 69 l 414 69 l 414 0 m 343 1286 l 514 1240 l 514 1185 l 158 1085 l 140 1118 l 343 1286 z "},"Ļ":{"ha":846,"x_min":44,"x_max":824,"o":"m 44 894 l 44 972 l 476 972 l 476 894 l 326 894 l 326 78 l 696 78 l 724 108 l 724 300 l 824 300 l 824 0 l 44 0 l 44 78 l 171 78 l 171 894 l 44 894 m 304 -337 q 398 -295 363 -322 q 433 -226 433 -268 l 433 -217 l 350 -217 q 331 -182 336 -200 q 325 -144 325 -164 q 350 -67 325 -103 l 525 -67 q 549 -162 549 -114 q 529 -244 549 -207 q 478 -311 510 -282 q 406 -360 447 -340 q 324 -389 365 -381 l 304 -337 z "},"ļ":{"ha":471,"x_min":47,"x_max":414,"o":"m 414 0 l 63 0 l 63 69 l 165 69 l 165 972 l 47 972 l 47 1042 l 311 1042 l 311 69 l 414 69 l 414 0 m 117 -337 q 210 -292 175 -322 q 246 -219 246 -261 l 246 -210 l 163 -210 q 143 -176 149 -193 q 138 -142 138 -158 q 163 -67 138 -103 l 324 -67 q 343 -119 338 -94 q 349 -168 349 -144 q 331 -248 349 -211 q 284 -313 314 -285 q 216 -361 254 -342 q 136 -389 178 -381 l 117 -337 z "},"Ľ":{"ha":846,"x_min":44,"x_max":824,"o":"m 44 894 l 44 972 l 476 972 l 476 894 l 326 894 l 326 78 l 696 78 l 724 108 l 724 300 l 824 300 l 824 0 l 44 0 l 44 78 l 171 78 l 171 894 l 44 894 m 538 694 l 601 832 l 603 949 l 624 972 l 772 972 q 746 866 768 915 q 694 777 724 817 q 630 709 664 738 q 569 665 596 681 l 538 694 z "},"ľ":{"ha":471,"x_min":47,"x_max":597,"o":"m 414 0 l 63 0 l 63 69 l 165 69 l 165 972 l 47 972 l 47 1042 l 311 1042 l 311 69 l 414 69 l 414 0 m 379 790 q 429 934 413 857 q 446 1071 446 1011 l 467 1096 q 496 1093 478 1096 q 533 1085 514 1090 q 570 1074 553 1081 q 597 1060 588 1068 q 570 978 590 1019 q 524 898 550 936 q 467 828 497 860 q 413 775 438 796 l 379 790 z "},"Ł":{"ha":846,"x_min":26,"x_max":824,"o":"m 44 894 l 44 972 l 476 972 l 476 894 l 326 894 l 326 561 l 535 676 l 535 569 l 326 454 l 326 78 l 696 78 l 724 108 l 724 300 l 824 300 l 824 0 l 44 0 l 44 78 l 171 78 l 171 369 l 26 290 l 26 396 l 171 475 l 171 894 l 44 894 z "},"ł":{"ha":500,"x_min":38,"x_max":471,"o":"m 38 431 l 185 515 l 185 972 l 67 972 l 67 1042 l 331 1042 l 331 599 l 471 681 l 471 585 l 331 503 l 331 69 l 433 69 l 433 0 l 82 0 l 82 69 l 185 69 l 185 418 l 38 333 l 38 431 z "},"Ń":{"ha":1139,"x_min":44,"x_max":1094,"o":"m 753 972 l 1094 972 l 1094 894 l 968 894 l 968 -17 l 878 -17 l 313 746 l 251 853 l 246 853 l 260 744 l 260 78 l 386 78 l 386 0 l 44 0 l 44 78 l 171 78 l 171 894 l 44 894 l 44 972 l 322 972 l 808 318 l 881 199 l 888 199 l 879 318 l 879 894 l 753 894 l 753 972 m 688 1269 l 858 1224 l 858 1168 l 503 1068 l 485 1101 l 688 1269 z "},"ń":{"ha":931,"x_min":49,"x_max":904,"o":"m 904 0 l 564 0 l 564 69 l 656 69 l 656 418 q 622 589 656 528 q 500 650 589 650 q 428 638 461 650 q 370 604 396 625 q 326 556 344 583 q 297 497 307 528 l 297 69 l 389 69 l 389 0 l 49 0 l 49 69 l 151 69 l 151 660 l 49 660 l 49 729 l 297 729 l 297 585 l 299 585 q 392 697 331 651 q 542 743 454 743 q 653 730 604 743 q 734 682 701 717 q 784 589 767 647 q 801 440 801 531 l 801 69 l 904 69 l 904 0 m 558 1042 l 733 1042 l 733 985 l 461 822 l 422 854 l 558 1042 z "},"Ņ":{"ha":1139,"x_min":44,"x_max":1094,"o":"m 753 972 l 1094 972 l 1094 894 l 968 894 l 968 -17 l 878 -17 l 313 746 l 251 853 l 246 853 l 260 744 l 260 78 l 386 78 l 386 0 l 44 0 l 44 78 l 171 78 l 171 894 l 44 894 l 44 972 l 322 972 l 808 318 l 881 199 l 888 199 l 879 318 l 879 894 l 753 894 l 753 972 m 440 -337 q 534 -295 499 -322 q 569 -226 569 -268 l 569 -217 l 486 -217 q 467 -182 472 -200 q 461 -144 461 -164 q 486 -67 461 -103 l 661 -67 q 685 -162 685 -114 q 665 -244 685 -207 q 615 -311 646 -282 q 542 -360 583 -340 q 460 -389 501 -381 l 440 -337 z "},"ņ":{"ha":931,"x_min":49,"x_max":904,"o":"m 904 0 l 564 0 l 564 69 l 656 69 l 656 418 q 622 589 656 528 q 500 650 589 650 q 428 638 461 650 q 370 604 396 625 q 326 556 344 583 q 297 497 307 528 l 297 69 l 389 69 l 389 0 l 49 0 l 49 69 l 151 69 l 151 660 l 49 660 l 49 729 l 297 729 l 297 585 l 299 585 q 392 697 331 651 q 542 743 454 743 q 653 730 604 743 q 734 682 701 717 q 784 589 767 647 q 801 440 801 531 l 801 69 l 904 69 l 904 0 m 351 -337 q 445 -292 410 -322 q 481 -219 481 -261 l 481 -210 l 397 -210 q 378 -176 383 -193 q 372 -142 372 -158 q 397 -67 372 -103 l 558 -67 q 578 -119 572 -94 q 583 -168 583 -144 q 566 -248 583 -211 q 519 -313 549 -285 q 451 -361 489 -342 q 371 -389 413 -381 l 351 -337 z "},"Ň":{"ha":1139,"x_min":44,"x_max":1094,"o":"m 753 972 l 1094 972 l 1094 894 l 968 894 l 968 -17 l 878 -17 l 313 746 l 251 853 l 246 853 l 260 744 l 260 78 l 386 78 l 386 0 l 44 0 l 44 78 l 171 78 l 171 894 l 44 894 l 44 972 l 322 972 l 808 318 l 881 199 l 888 199 l 879 318 l 879 894 l 753 894 l 753 972 m 754 1276 l 793 1251 l 596 1054 l 553 1054 l 357 1247 l 396 1276 l 581 1200 l 754 1276 z "},"ň":{"ha":931,"x_min":49,"x_max":904,"o":"m 904 0 l 564 0 l 564 69 l 656 69 l 656 418 q 622 589 656 528 q 500 650 589 650 q 428 638 461 650 q 370 604 396 625 q 326 556 344 583 q 297 497 307 528 l 297 69 l 389 69 l 389 0 l 49 0 l 49 69 l 151 69 l 151 660 l 49 660 l 49 729 l 297 729 l 297 585 l 299 585 q 392 697 331 651 q 542 743 454 743 q 653 730 604 743 q 734 682 701 717 q 784 589 767 647 q 801 440 801 531 l 801 69 l 904 69 l 904 0 m 632 1119 l 676 1096 l 483 825 l 443 825 l 253 1094 l 308 1119 l 474 967 l 632 1119 z "},"Ō":{"ha":1153,"x_min":79,"x_max":1074,"o":"m 79 486 q 113 687 79 594 q 209 847 146 779 q 365 951 272 914 q 575 989 457 989 q 786 951 693 989 q 943 847 879 914 q 1040 687 1007 779 q 1074 486 1074 594 q 1040 285 1074 378 q 943 126 1007 193 q 786 21 879 58 q 575 -17 693 -17 q 365 21 457 -17 q 209 126 272 58 q 113 285 146 193 q 79 486 79 378 m 253 486 q 273 319 253 397 q 335 185 293 242 q 440 94 376 128 q 589 61 503 61 q 726 94 668 61 q 823 185 785 128 q 881 319 861 242 q 900 486 900 397 q 880 653 900 575 q 818 788 860 731 q 713 878 776 844 q 563 911 650 911 q 420 878 479 911 q 324 788 361 844 q 269 653 286 731 q 253 486 253 575 m 340 1093 l 340 1182 l 813 1182 l 813 1093 l 340 1093 z "},"ō":{"ha":864,"x_min":63,"x_max":801,"o":"m 63 364 q 89 526 63 456 q 163 645 115 597 q 280 718 211 693 q 432 743 349 743 q 599 716 529 743 q 714 640 669 689 q 780 520 758 590 q 801 364 801 450 q 776 202 801 272 q 702 84 750 132 q 585 11 654 36 q 432 -14 517 -14 q 268 13 338 -14 q 153 90 199 40 q 85 208 107 139 q 63 364 63 278 m 219 364 q 232 240 219 297 q 273 142 244 183 q 347 76 301 100 q 457 51 392 51 q 592 126 539 51 q 644 364 644 201 q 632 488 644 431 q 592 588 619 546 q 523 654 565 631 q 419 678 481 678 q 274 603 328 678 q 219 364 219 528 m 232 928 l 232 1004 l 632 1004 l 632 928 l 232 928 z "},"Ő":{"ha":1153,"x_min":79,"x_max":1074,"o":"m 79 486 q 113 687 79 594 q 209 847 146 779 q 365 951 272 914 q 575 989 457 989 q 786 951 693 989 q 943 847 879 914 q 1040 687 1007 779 q 1074 486 1074 594 q 1040 285 1074 378 q 943 126 1007 193 q 786 21 879 58 q 575 -17 693 -17 q 365 21 457 -17 q 209 126 272 58 q 113 285 146 193 q 79 486 79 378 m 253 486 q 273 319 253 397 q 335 185 293 242 q 440 94 376 128 q 589 61 503 61 q 726 94 668 61 q 823 185 785 128 q 881 319 861 242 q 900 486 900 397 q 880 653 900 575 q 818 788 860 731 q 713 878 776 844 q 563 911 650 911 q 420 878 479 911 q 324 788 361 844 q 269 653 286 731 q 253 486 253 575 m 531 1261 l 671 1228 l 671 1194 l 425 1051 l 394 1078 l 531 1261 m 804 1261 l 951 1231 l 951 1196 l 632 1049 l 597 1075 l 804 1261 z "},"ő":{"ha":864,"x_min":63,"x_max":801,"o":"m 63 364 q 89 526 63 456 q 163 645 115 597 q 280 718 211 693 q 432 743 349 743 q 599 716 529 743 q 714 640 669 689 q 780 520 758 590 q 801 364 801 450 q 776 202 801 272 q 702 84 750 132 q 585 11 654 36 q 432 -14 517 -14 q 268 13 338 -14 q 153 90 199 40 q 85 208 107 139 q 63 364 63 278 m 219 364 q 232 240 219 297 q 273 142 244 183 q 347 76 301 100 q 457 51 392 51 q 592 126 539 51 q 644 364 644 201 q 632 488 644 431 q 592 588 619 546 q 523 654 565 631 q 419 678 481 678 q 274 603 328 678 q 219 364 219 528 m 382 1119 l 517 1089 l 517 1053 l 301 872 l 264 894 l 382 1119 m 654 1119 l 790 1079 l 790 1044 l 479 872 l 447 897 l 654 1119 z "},"Œ":{"ha":1478,"x_min":79,"x_max":1389,"o":"m 575 989 q 660 985 611 989 q 753 972 708 981 l 1361 972 l 1361 744 l 1272 744 l 1272 864 l 1244 894 l 908 894 l 908 535 l 1143 535 l 1164 556 l 1164 614 l 1253 614 l 1253 376 l 1164 376 l 1164 435 l 1143 457 l 908 457 l 908 78 l 1272 78 l 1300 106 l 1300 242 l 1389 242 l 1389 0 l 754 0 q 666 -12 714 -7 q 575 -17 618 -17 q 365 21 457 -17 q 209 126 272 58 q 113 285 146 193 q 79 486 79 378 q 113 687 79 594 q 209 847 146 779 q 365 951 272 914 q 575 989 457 989 m 589 58 q 672 65 629 58 q 753 86 714 71 l 753 879 q 664 904 713 894 q 563 914 615 914 q 420 881 479 914 q 324 789 361 847 q 269 653 286 731 q 253 486 253 575 q 273 319 253 397 q 335 183 293 242 q 440 92 376 125 q 589 58 503 58 z "},"œ":{"ha":1367,"x_min":63,"x_max":1294,"o":"m 219 364 q 232 240 219 297 q 273 142 244 183 q 347 76 301 100 q 458 51 393 51 q 593 126 540 51 q 646 364 646 201 q 633 488 646 431 q 594 588 621 546 q 524 654 567 631 q 419 678 481 678 q 274 603 328 678 q 219 364 219 528 m 724 110 q 662 51 696 75 q 590 13 628 28 q 511 -8 551 -1 q 432 -14 471 -14 q 268 13 338 -14 q 153 90 199 40 q 85 208 107 139 q 63 364 63 278 q 89 526 63 456 q 163 645 115 597 q 280 718 211 693 q 432 743 349 743 q 516 737 474 743 q 596 716 558 731 q 665 678 633 701 q 721 622 697 656 q 772 676 740 653 q 840 714 803 699 q 918 736 878 729 q 999 743 958 743 q 1107 730 1054 743 q 1201 685 1160 717 q 1269 600 1243 653 q 1294 468 1294 547 q 1292 418 1294 444 q 1283 363 1289 392 l 800 363 q 816 249 800 301 q 865 160 832 197 q 947 101 897 122 q 1063 79 996 79 q 1162 101 1115 79 q 1239 157 1208 124 l 1281 108 q 1241 61 1268 83 q 1179 22 1214 39 q 1103 -4 1144 6 q 1019 -14 1061 -14 q 931 -6 976 -14 q 845 19 886 3 q 772 58 804 35 q 724 110 740 81 m 993 678 q 917 665 950 678 q 860 624 883 653 q 822 547 836 594 q 804 428 808 499 l 1140 428 q 1142 453 1142 440 q 1142 476 1142 465 q 1106 624 1142 569 q 993 678 1069 678 z "},"Ŕ":{"ha":983,"x_min":44,"x_max":969,"o":"m 326 78 l 446 78 l 446 0 l 44 0 l 44 78 l 171 78 l 171 894 l 44 894 l 44 972 l 185 972 q 321 978 247 972 q 465 983 394 983 q 609 967 542 983 q 725 918 676 951 q 802 833 774 885 q 831 708 831 781 q 769 538 831 608 q 607 439 707 468 l 883 78 l 969 78 l 969 0 l 744 0 l 468 419 l 326 419 l 326 78 m 436 492 q 603 550 543 492 q 664 708 664 608 q 600 858 664 811 q 431 906 536 906 q 370 903 394 906 q 326 897 346 900 l 326 492 l 436 492 m 579 1269 l 750 1224 l 750 1168 l 394 1068 l 376 1101 l 579 1269 z "},"ŕ":{"ha":601,"x_min":49,"x_max":574,"o":"m 394 604 q 342 565 363 588 q 297 501 321 543 l 297 69 l 419 69 l 419 0 l 49 0 l 49 69 l 151 69 l 151 660 l 49 660 l 49 729 l 297 729 l 297 589 l 303 589 q 358 669 326 635 q 431 729 390 703 l 564 729 l 564 604 l 394 604 m 399 1042 l 574 1042 l 574 985 l 301 822 l 263 854 l 399 1042 z "},"Ŗ":{"ha":983,"x_min":44,"x_max":969,"o":"m 326 78 l 446 78 l 446 0 l 44 0 l 44 78 l 171 78 l 171 894 l 44 894 l 44 972 l 185 972 q 321 978 247 972 q 465 983 394 983 q 609 967 542 983 q 725 918 676 951 q 802 833 774 885 q 831 708 831 781 q 769 538 831 608 q 607 439 707 468 l 883 78 l 969 78 l 969 0 l 744 0 l 468 419 l 326 419 l 326 78 m 436 492 q 603 550 543 492 q 664 708 664 608 q 600 858 664 811 q 431 906 536 906 q 370 903 394 906 q 326 897 346 900 l 326 492 l 436 492 m 365 -337 q 459 -295 424 -322 q 494 -226 494 -268 l 494 -217 l 411 -217 q 392 -182 397 -200 q 386 -144 386 -164 q 411 -67 386 -103 l 586 -67 q 610 -162 610 -114 q 590 -244 610 -207 q 540 -311 571 -282 q 467 -360 508 -340 q 385 -389 426 -381 l 365 -337 z "},"ŗ":{"ha":601,"x_min":49,"x_max":564,"o":"m 394 604 q 342 565 363 588 q 297 501 321 543 l 297 69 l 419 69 l 419 0 l 49 0 l 49 69 l 151 69 l 151 660 l 49 660 l 49 729 l 297 729 l 297 589 l 303 589 q 358 669 326 635 q 431 729 390 703 l 564 729 l 564 604 l 394 604 m 135 -337 q 228 -292 193 -322 q 264 -219 264 -261 l 264 -210 l 181 -210 q 161 -176 167 -193 q 156 -142 156 -158 q 181 -67 156 -103 l 342 -67 q 361 -119 356 -94 q 367 -168 367 -144 q 349 -248 367 -211 q 302 -313 332 -285 q 234 -361 272 -342 q 154 -389 196 -381 l 135 -337 z "},"Ř":{"ha":983,"x_min":44,"x_max":969,"o":"m 326 78 l 446 78 l 446 0 l 44 0 l 44 78 l 171 78 l 171 894 l 44 894 l 44 972 l 185 972 q 321 978 247 972 q 465 983 394 983 q 609 967 542 983 q 725 918 676 951 q 802 833 774 885 q 831 708 831 781 q 769 538 831 608 q 607 439 707 468 l 883 78 l 969 78 l 969 0 l 744 0 l 468 419 l 326 419 l 326 78 m 436 492 q 603 550 543 492 q 664 708 664 608 q 600 858 664 811 q 431 906 536 906 q 370 903 394 906 q 326 897 346 900 l 326 492 l 436 492 m 624 1276 l 663 1251 l 465 1054 l 422 1054 l 226 1247 l 265 1276 l 450 1200 l 624 1276 z "},"ř":{"ha":601,"x_min":49,"x_max":564,"o":"m 394 604 q 342 565 363 588 q 297 501 321 543 l 297 69 l 419 69 l 419 0 l 49 0 l 49 69 l 151 69 l 151 660 l 49 660 l 49 729 l 297 729 l 297 589 l 303 589 q 358 669 326 635 q 431 729 390 703 l 564 729 l 564 604 l 394 604 m 510 1119 l 554 1096 l 361 825 l 321 825 l 131 1094 l 186 1119 l 351 967 l 510 1119 z "},"Ś":{"ha":828,"x_min":86,"x_max":751,"o":"m 175 136 l 200 103 q 269 73 225 85 q 365 61 313 61 q 458 72 415 61 q 532 103 500 82 q 582 156 564 124 q 600 232 600 188 q 562 326 600 289 q 467 393 524 364 q 343 450 410 422 q 219 515 276 478 q 124 606 163 553 q 86 739 86 658 q 176 923 86 857 q 418 989 265 989 q 583 976 514 989 q 701 943 653 964 l 701 704 l 613 704 l 613 854 l 590 889 q 514 906 564 900 q 415 911 464 911 q 285 873 332 911 q 238 765 238 835 q 276 670 238 708 q 371 601 314 632 q 494 542 428 571 q 618 477 561 514 q 713 389 675 440 q 751 261 751 338 q 647 55 751 126 q 363 -17 543 -17 q 192 4 264 -17 q 86 49 119 25 l 86 301 l 175 301 l 175 136 m 549 1269 l 719 1224 l 719 1168 l 364 1068 l 346 1101 l 549 1269 z "},"ś":{"ha":675,"x_min":83,"x_max":604,"o":"m 461 165 q 433 231 461 203 q 364 284 406 260 q 274 333 322 308 q 183 388 225 357 q 114 462 142 419 q 86 564 86 504 q 106 637 86 604 q 158 693 125 669 q 235 730 190 717 q 329 743 279 743 q 403 740 371 743 q 461 733 435 738 q 511 721 488 728 q 560 706 535 714 l 560 518 l 471 518 l 471 628 l 444 658 q 406 665 426 663 q 361 668 385 668 q 262 642 294 668 q 229 578 229 617 q 257 513 229 540 q 326 460 285 485 q 417 413 368 436 q 507 359 465 389 q 576 290 549 329 q 604 197 604 251 q 581 108 604 147 q 519 42 558 69 q 426 1 479 15 q 313 -14 372 -14 q 183 3 246 -14 q 83 44 119 21 l 83 226 l 172 226 l 172 121 l 200 92 q 243 69 218 78 q 308 61 268 61 q 418 89 375 61 q 461 165 461 117 m 403 1042 l 578 1042 l 578 985 l 306 822 l 267 854 l 403 1042 z "},"Ŝ":{"ha":828,"x_min":86,"x_max":751,"o":"m 175 136 l 200 103 q 269 73 225 85 q 365 61 313 61 q 458 72 415 61 q 532 103 500 82 q 582 156 564 124 q 600 232 600 188 q 562 326 600 289 q 467 393 524 364 q 343 450 410 422 q 219 515 276 478 q 124 606 163 553 q 86 739 86 658 q 176 923 86 857 q 418 989 265 989 q 583 976 514 989 q 701 943 653 964 l 701 704 l 613 704 l 613 854 l 590 889 q 514 906 564 900 q 415 911 464 911 q 285 873 332 911 q 238 765 238 835 q 276 670 238 708 q 371 601 314 632 q 494 542 428 571 q 618 477 561 514 q 713 389 675 440 q 751 261 751 338 q 647 55 751 126 q 363 -17 543 -17 q 192 4 264 -17 q 86 49 119 25 l 86 301 l 175 301 l 175 136 m 243 1057 l 221 1085 l 418 1269 l 461 1269 l 657 1089 l 632 1058 l 435 1136 l 243 1057 z "},"ŝ":{"ha":675,"x_min":83,"x_max":604,"o":"m 461 165 q 433 231 461 203 q 364 284 406 260 q 274 333 322 308 q 183 388 225 357 q 114 462 142 419 q 86 564 86 504 q 106 637 86 604 q 158 693 125 669 q 235 730 190 717 q 329 743 279 743 q 403 740 371 743 q 461 733 435 738 q 511 721 488 728 q 560 706 535 714 l 560 518 l 471 518 l 471 628 l 444 658 q 406 665 426 663 q 361 668 385 668 q 262 642 294 668 q 229 578 229 617 q 257 513 229 540 q 326 460 285 485 q 417 413 368 436 q 507 359 465 389 q 576 290 549 329 q 604 197 604 251 q 581 108 604 147 q 519 42 558 69 q 426 1 479 15 q 313 -14 372 -14 q 183 3 246 -14 q 83 44 119 21 l 83 226 l 172 226 l 172 121 l 200 92 q 243 69 218 78 q 308 61 268 61 q 418 89 375 61 q 461 165 461 117 m 190 860 l 146 883 l 319 1156 l 360 1156 l 535 885 l 490 860 l 333 1015 l 190 860 z "},"Ş":{"ha":828,"x_min":86,"x_max":751,"o":"m 175 136 l 200 103 q 269 73 225 85 q 365 61 313 61 q 458 72 415 61 q 532 103 500 82 q 582 156 564 124 q 600 232 600 188 q 562 326 600 289 q 467 393 524 364 q 343 450 410 422 q 219 515 276 478 q 124 606 163 553 q 86 739 86 658 q 176 923 86 857 q 418 989 265 989 q 583 976 514 989 q 701 943 653 964 l 701 704 l 613 704 l 613 854 l 590 889 q 514 906 564 900 q 415 911 464 911 q 285 873 332 911 q 238 765 238 835 q 276 670 238 708 q 371 601 314 632 q 494 542 428 571 q 618 477 561 514 q 713 389 675 440 q 751 261 751 338 q 665 68 751 139 q 426 -14 579 -3 l 389 -89 q 529 -115 483 -92 q 575 -187 575 -137 q 547 -256 575 -229 q 477 -297 519 -282 q 385 -317 435 -311 q 290 -322 335 -322 l 290 -276 q 347 -272 321 -275 q 392 -261 372 -268 q 422 -242 411 -254 q 433 -211 433 -231 q 399 -162 433 -174 q 294 -149 364 -151 l 349 -17 q 187 6 256 -14 q 86 49 118 26 l 86 301 l 175 301 l 175 136 z "},"ş":{"ha":675,"x_min":83,"x_max":604,"o":"m 461 165 q 433 231 461 203 q 364 284 406 260 q 274 333 322 308 q 183 388 225 357 q 114 462 142 419 q 86 564 86 504 q 106 637 86 604 q 158 693 125 669 q 235 730 190 717 q 329 743 279 743 q 403 740 371 743 q 461 733 435 738 q 511 721 488 728 q 560 706 535 714 l 560 518 l 471 518 l 471 628 l 444 658 q 406 665 426 663 q 361 668 385 668 q 262 642 294 668 q 229 578 229 617 q 257 513 229 540 q 326 460 285 485 q 417 413 368 436 q 507 359 465 389 q 576 290 549 329 q 604 197 604 251 q 584 114 604 151 q 528 49 564 76 q 446 6 493 22 q 344 -14 399 -10 l 311 -85 q 439 -108 399 -87 q 479 -176 479 -129 q 455 -246 479 -219 q 393 -287 431 -272 q 310 -306 356 -301 q 221 -311 264 -311 l 221 -267 q 274 -262 250 -265 q 315 -253 299 -260 q 341 -233 332 -246 q 350 -199 350 -221 q 318 -154 350 -162 q 222 -140 286 -146 l 275 -14 q 165 8 217 -8 q 83 44 114 24 l 83 226 l 172 226 l 172 121 l 200 92 q 243 69 218 78 q 308 61 268 61 q 418 89 375 61 q 461 165 461 117 z "},"Š":{"ha":828,"x_min":86,"x_max":751,"o":"m 175 136 l 200 103 q 269 73 225 85 q 365 61 313 61 q 458 72 415 61 q 532 103 500 82 q 582 156 564 124 q 600 232 600 188 q 562 326 600 289 q 467 393 524 364 q 343 450 410 422 q 219 515 276 478 q 124 606 163 553 q 86 739 86 658 q 176 923 86 857 q 418 989 265 989 q 583 976 514 989 q 701 943 653 964 l 701 704 l 613 704 l 613 854 l 590 889 q 514 906 564 900 q 415 911 464 911 q 285 873 332 911 q 238 765 238 835 q 276 670 238 708 q 371 601 314 632 q 494 542 428 571 q 618 477 561 514 q 713 389 675 440 q 751 261 751 338 q 647 55 751 126 q 363 -17 543 -17 q 192 4 264 -17 q 86 49 119 25 l 86 301 l 175 301 l 175 136 m 604 1276 l 643 1251 l 446 1054 l 403 1054 l 207 1247 l 246 1276 l 431 1200 l 604 1276 z "},"š":{"ha":675,"x_min":83,"x_max":604,"o":"m 461 165 q 433 231 461 203 q 364 284 406 260 q 274 333 322 308 q 183 388 225 357 q 114 462 142 419 q 86 564 86 504 q 106 637 86 604 q 158 693 125 669 q 235 730 190 717 q 329 743 279 743 q 403 740 371 743 q 461 733 435 738 q 511 721 488 728 q 560 706 535 714 l 560 518 l 471 518 l 471 628 l 444 658 q 406 665 426 663 q 361 668 385 668 q 262 642 294 668 q 229 578 229 617 q 257 513 229 540 q 326 460 285 485 q 417 413 368 436 q 507 359 465 389 q 576 290 549 329 q 604 197 604 251 q 581 108 604 147 q 519 42 558 69 q 426 1 479 15 q 313 -14 372 -14 q 183 3 246 -14 q 83 44 119 21 l 83 226 l 172 226 l 172 121 l 200 92 q 243 69 218 78 q 308 61 268 61 q 418 89 375 61 q 461 165 461 117 m 506 1119 l 550 1096 l 357 825 l 317 825 l 126 1094 l 182 1119 l 347 967 l 506 1119 z "},"Ţ":{"ha":969,"x_min":31,"x_max":939,"o":"m 706 0 l 524 0 l 478 -89 q 618 -115 572 -92 q 664 -187 664 -137 q 636 -256 664 -229 q 566 -297 608 -282 q 474 -317 524 -311 q 379 -322 424 -322 l 379 -276 q 435 -272 410 -275 q 481 -261 461 -268 q 511 -242 500 -254 q 522 -211 522 -231 q 488 -162 522 -174 q 383 -149 453 -151 l 444 0 l 264 0 l 264 78 l 407 78 l 407 894 l 158 894 l 131 864 l 131 685 l 31 685 l 31 972 l 939 972 l 939 685 l 839 685 l 839 864 l 811 894 l 563 894 l 563 78 l 706 78 l 706 0 z "},"ţ":{"ha":581,"x_min":24,"x_max":554,"o":"m 24 729 l 147 729 l 147 903 l 293 903 l 293 729 l 524 729 l 524 640 l 293 640 l 293 235 q 315 111 293 147 q 388 75 338 75 q 462 90 431 75 q 519 124 493 106 l 554 69 q 521 43 542 57 q 473 17 500 29 q 413 -4 446 4 q 344 -14 379 -12 l 311 -85 q 439 -108 399 -87 q 479 -176 479 -129 q 455 -247 479 -221 q 393 -287 431 -274 q 310 -306 356 -301 q 221 -311 264 -311 l 221 -267 q 274 -262 250 -265 q 315 -253 299 -260 q 341 -233 332 -246 q 350 -199 350 -221 q 318 -154 350 -162 q 222 -140 286 -146 l 276 -7 q 181 54 214 7 q 147 193 147 101 l 147 640 l 24 640 l 24 729 z "},"Ť":{"ha":969,"x_min":31,"x_max":939,"o":"m 706 0 l 264 0 l 264 78 l 407 78 l 407 894 l 158 894 l 131 864 l 131 685 l 31 685 l 31 972 l 939 972 l 939 685 l 839 685 l 839 864 l 811 894 l 563 894 l 563 78 l 706 78 l 706 0 m 665 1276 l 704 1251 l 507 1054 l 464 1054 l 268 1247 l 307 1276 l 492 1200 l 665 1276 z "},"ť":{"ha":581,"x_min":24,"x_max":583,"o":"m 24 729 l 147 729 l 147 903 l 293 903 l 293 729 l 524 729 l 524 640 l 293 640 l 293 235 q 315 111 293 147 q 388 75 338 75 q 462 90 431 75 q 519 124 493 106 l 554 69 q 520 42 542 57 q 471 15 499 28 q 409 -6 443 3 q 339 -14 375 -14 q 197 34 246 -14 q 147 193 147 82 l 147 640 l 24 640 l 24 729 m 365 793 q 415 937 399 860 q 432 1074 432 1014 l 453 1099 q 482 1096 464 1099 q 519 1088 500 1093 q 556 1077 539 1083 q 583 1063 574 1071 q 556 981 576 1022 q 510 901 536 939 q 453 831 483 863 q 399 778 424 799 l 365 793 z "},"Ū":{"ha":1058,"x_min":17,"x_max":1042,"o":"m 915 332 q 889 178 915 243 q 815 72 863 114 q 699 8 767 29 q 547 -12 631 -12 q 247 66 350 -12 q 143 308 143 144 l 143 894 l 17 894 l 17 972 l 411 972 l 411 894 l 299 894 l 299 338 q 317 216 299 265 q 369 137 335 167 q 453 94 403 107 q 567 81 503 81 q 758 142 689 81 q 826 342 826 203 l 826 894 l 714 894 l 714 972 l 1042 972 l 1042 894 l 915 894 l 915 332 l 915 332 m 319 1093 l 319 1182 l 792 1182 l 792 1093 l 319 1093 z "},"ū":{"ha":899,"x_min":26,"x_max":860,"o":"m 121 289 q 125 476 121 381 q 129 660 129 572 l 26 660 l 26 729 l 274 729 q 269 522 271 621 q 267 315 267 422 q 273 215 267 258 q 297 140 279 171 q 344 94 314 110 q 422 79 375 79 q 539 124 492 79 q 611 243 586 168 l 611 660 l 510 660 l 510 729 l 757 729 l 757 69 l 860 69 l 860 0 l 628 0 l 618 158 l 611 158 q 584 99 604 129 q 533 43 564 68 q 463 2 503 18 q 375 -14 422 -14 q 265 -1 313 -14 q 186 47 218 13 q 138 140 154 82 q 121 289 121 199 m 249 928 l 249 1004 l 649 1004 l 649 928 l 249 928 z "},"Ŭ":{"ha":1058,"x_min":17,"x_max":1042,"o":"m 915 332 q 889 178 915 243 q 815 72 863 114 q 699 8 767 29 q 547 -12 631 -12 q 247 66 350 -12 q 143 308 143 144 l 143 894 l 17 894 l 17 972 l 411 972 l 411 894 l 299 894 l 299 338 q 317 216 299 265 q 369 137 335 167 q 453 94 403 107 q 567 81 503 81 q 758 142 689 81 q 826 342 826 203 l 826 894 l 714 894 l 714 972 l 1042 972 l 1042 894 l 915 894 l 915 332 l 915 332 m 782 1236 q 747 1167 769 1200 q 693 1108 724 1133 q 626 1069 663 1083 q 550 1054 589 1054 q 467 1068 507 1054 q 396 1107 428 1082 q 340 1166 364 1132 q 307 1239 317 1200 l 372 1260 q 404 1228 383 1243 q 450 1203 425 1214 q 501 1188 475 1193 q 551 1182 528 1182 q 651 1198 601 1182 q 732 1256 700 1214 l 782 1236 z "},"ŭ":{"ha":899,"x_min":26,"x_max":860,"o":"m 121 289 q 125 476 121 381 q 129 660 129 572 l 26 660 l 26 729 l 274 729 q 269 522 271 621 q 267 315 267 422 q 273 215 267 258 q 297 140 279 171 q 344 94 314 110 q 422 79 375 79 q 539 124 492 79 q 611 243 586 168 l 611 660 l 510 660 l 510 729 l 757 729 l 757 69 l 860 69 l 860 0 l 628 0 l 618 158 l 611 158 q 584 99 604 129 q 533 43 564 68 q 463 2 503 18 q 375 -14 422 -14 q 265 -1 313 -14 q 186 47 218 13 q 138 140 154 82 q 121 289 121 199 m 658 1050 q 624 985 644 1017 q 578 928 604 953 q 520 887 553 903 q 449 871 488 871 q 313 922 365 871 q 232 1053 260 974 l 276 1072 q 310 1034 289 1051 q 355 1004 331 1017 q 405 984 379 992 q 454 976 431 976 q 547 999 504 976 q 621 1067 590 1022 l 658 1050 z "},"Ů":{"ha":1058,"x_min":17,"x_max":1042,"o":"m 915 332 q 889 178 915 243 q 815 72 863 114 q 699 8 767 29 q 547 -12 631 -12 q 247 66 350 -12 q 143 308 143 144 l 143 894 l 17 894 l 17 972 l 411 972 l 411 894 l 299 894 l 299 338 q 317 216 299 265 q 369 137 335 167 q 453 94 403 107 q 567 81 503 81 q 758 142 689 81 q 826 342 826 203 l 826 894 l 714 894 l 714 972 l 1042 972 l 1042 894 l 915 894 l 915 332 l 915 332 m 383 1094 q 436 1183 383 1151 q 565 1214 489 1214 q 626 1207 596 1214 q 681 1186 657 1200 q 721 1151 706 1172 q 736 1099 736 1129 q 722 1050 736 1071 q 684 1014 708 1029 q 628 991 660 999 q 564 983 597 983 q 433 1013 483 983 q 383 1094 383 1042 m 488 1094 q 508 1056 488 1071 q 556 1042 528 1042 q 614 1056 596 1042 q 632 1093 632 1069 q 611 1142 632 1129 q 561 1156 590 1156 q 506 1138 524 1156 q 488 1094 488 1121 z "},"ů":{"ha":899,"x_min":26,"x_max":860,"o":"m 121 289 q 125 476 121 381 q 129 660 129 572 l 26 660 l 26 729 l 274 729 q 269 522 271 621 q 267 315 267 422 q 273 215 267 258 q 297 140 279 171 q 344 94 314 110 q 422 79 375 79 q 539 124 492 79 q 611 243 586 168 l 611 660 l 510 660 l 510 729 l 757 729 l 757 69 l 860 69 l 860 0 l 628 0 l 618 158 l 611 158 q 584 99 604 129 q 533 43 564 68 q 463 2 503 18 q 375 -14 422 -14 q 265 -1 313 -14 q 186 47 218 13 q 138 140 154 82 q 121 289 121 199 m 296 996 q 340 1097 296 1056 q 453 1138 385 1138 q 558 1101 515 1138 q 600 1000 600 1064 q 588 946 600 971 q 555 903 575 921 q 508 874 535 885 q 451 864 481 864 q 338 899 381 864 q 296 996 296 935 m 379 999 q 400 944 379 963 q 446 925 421 925 q 497 942 476 925 q 517 994 517 958 q 497 1056 517 1035 q 447 1076 478 1076 q 395 1056 411 1076 q 379 999 379 1035 z "},"Ű":{"ha":1058,"x_min":17,"x_max":1042,"o":"m 915 332 q 889 178 915 243 q 815 72 863 114 q 699 8 767 29 q 547 -12 631 -12 q 247 66 350 -12 q 143 308 143 144 l 143 894 l 17 894 l 17 972 l 411 972 l 411 894 l 299 894 l 299 338 q 317 216 299 265 q 369 137 335 167 q 453 94 403 107 q 567 81 503 81 q 758 142 689 81 q 826 342 826 203 l 826 894 l 714 894 l 714 972 l 1042 972 l 1042 894 l 915 894 l 915 332 l 915 332 m 511 1261 l 651 1228 l 651 1194 l 406 1051 l 375 1078 l 511 1261 m 785 1261 l 932 1231 l 932 1196 l 613 1049 l 578 1075 l 785 1261 z "},"ű":{"ha":899,"x_min":26,"x_max":860,"o":"m 121 289 q 125 476 121 381 q 129 660 129 572 l 26 660 l 26 729 l 274 729 q 269 522 271 621 q 267 315 267 422 q 273 215 267 258 q 297 140 279 171 q 344 94 314 110 q 422 79 375 79 q 539 124 492 79 q 611 243 586 168 l 611 660 l 510 660 l 510 729 l 757 729 l 757 69 l 860 69 l 860 0 l 628 0 l 618 158 l 611 158 q 584 99 604 129 q 533 43 564 68 q 463 2 503 18 q 375 -14 422 -14 q 265 -1 313 -14 q 186 47 218 13 q 138 140 154 82 q 121 289 121 199 m 381 1119 l 515 1089 l 515 1053 l 300 872 l 263 894 l 381 1119 m 653 1119 l 789 1079 l 789 1044 l 478 872 l 446 897 l 653 1119 z "},"Ų":{"ha":1058,"x_min":17,"x_max":1042,"o":"m 915 332 q 851 110 915 190 q 675 1 788 29 q 573 -59 610 -24 q 536 -153 536 -94 q 564 -205 536 -190 q 638 -219 592 -219 q 725 -211 685 -219 l 725 -254 q 668 -281 703 -269 q 582 -293 633 -293 q 513 -286 546 -293 q 456 -265 481 -279 q 417 -230 432 -251 q 403 -178 403 -208 q 441 -81 403 -121 q 539 -12 479 -40 q 244 68 346 -10 q 143 308 143 146 l 143 894 l 17 894 l 17 972 l 411 972 l 411 894 l 299 894 l 299 338 q 317 216 299 265 q 369 137 335 167 q 453 94 403 107 q 567 81 503 81 q 758 142 689 81 q 826 342 826 203 l 826 894 l 714 894 l 714 972 l 1042 972 l 1042 894 l 915 894 l 915 332 l 915 332 z "},"ų":{"ha":899,"x_min":26,"x_max":860,"o":"m 121 289 q 125 476 121 381 q 129 660 129 572 l 26 660 l 26 729 l 274 729 q 269 522 271 621 q 267 315 267 422 q 273 215 267 258 q 297 140 279 171 q 344 94 314 110 q 422 79 375 79 q 539 124 492 79 q 611 243 586 168 l 611 660 l 510 660 l 510 729 l 757 729 l 757 69 l 860 69 l 860 0 l 842 0 q 728 -44 774 -12 q 682 -139 682 -75 q 702 -190 682 -167 q 771 -212 722 -212 q 853 -199 813 -212 l 853 -249 q 797 -269 831 -261 q 735 -278 763 -278 q 596 -248 643 -278 q 549 -162 549 -218 q 569 -97 549 -125 q 618 -50 589 -69 q 681 -19 647 -31 q 743 0 715 -7 l 628 0 l 618 158 l 611 158 q 584 99 604 129 q 533 43 564 68 q 463 2 503 18 q 375 -14 422 -14 q 265 -1 313 -14 q 186 47 218 13 q 138 140 154 82 q 121 289 121 199 z "},"Ÿ":{"ha":1010,"x_min":0,"x_max":1010,"o":"m 664 972 l 1010 972 l 1010 894 l 892 894 l 596 413 l 596 78 l 722 78 l 722 0 l 314 0 l 314 78 l 440 78 l 440 411 l 126 894 l 0 894 l 0 972 l 419 972 l 419 894 l 303 894 l 554 490 l 792 894 l 664 894 l 664 972 m 276 1106 q 302 1166 276 1146 q 367 1186 328 1186 q 433 1166 407 1186 q 460 1106 460 1146 q 433 1050 460 1069 q 367 1031 407 1031 q 302 1050 328 1031 q 276 1106 276 1069 m 626 1106 q 653 1166 626 1146 q 717 1186 679 1186 q 783 1166 757 1186 q 810 1106 810 1146 q 783 1050 810 1069 q 717 1031 757 1031 q 653 1050 679 1031 q 626 1106 626 1069 z "},"Ź":{"ha":933,"x_min":56,"x_max":878,"o":"m 56 78 l 692 894 l 218 894 l 190 864 l 190 690 l 90 690 l 90 972 l 869 972 l 869 894 l 233 78 l 750 78 l 778 108 l 778 282 l 878 282 l 878 0 l 56 0 l 56 78 m 606 1269 l 776 1224 l 776 1168 l 421 1068 l 403 1101 l 606 1269 z "},"ź":{"ha":763,"x_min":79,"x_max":696,"o":"m 682 251 l 682 0 l 79 0 l 79 69 l 536 660 l 235 660 l 207 632 l 207 493 l 118 493 l 118 729 l 696 729 l 696 660 l 236 69 l 565 69 l 593 97 l 593 251 l 682 251 m 432 1042 l 607 1042 l 607 985 l 335 822 l 296 854 l 432 1042 z "},"Ż":{"ha":933,"x_min":56,"x_max":878,"o":"m 56 78 l 692 894 l 218 894 l 190 864 l 190 690 l 90 690 l 90 972 l 869 972 l 869 894 l 233 78 l 750 78 l 778 108 l 778 282 l 878 282 l 878 0 l 56 0 l 56 78 m 351 1140 q 383 1201 351 1181 q 463 1222 415 1222 q 543 1201 511 1222 q 575 1140 575 1181 q 543 1079 575 1100 q 463 1058 511 1058 q 383 1079 415 1058 q 351 1140 351 1100 z "},"ż":{"ha":763,"x_min":79,"x_max":696,"o":"m 682 251 l 682 0 l 79 0 l 79 69 l 536 660 l 235 660 l 207 632 l 207 493 l 118 493 l 118 729 l 696 729 l 696 660 l 236 69 l 565 69 l 593 97 l 593 251 l 682 251 m 279 954 q 308 1018 279 994 q 381 1042 336 1042 q 455 1018 428 1042 q 482 954 482 994 q 455 890 482 914 q 381 867 428 867 q 308 890 336 867 q 279 954 279 914 z "},"Ž":{"ha":933,"x_min":56,"x_max":878,"o":"m 56 78 l 692 894 l 218 894 l 190 864 l 190 690 l 90 690 l 90 972 l 869 972 l 869 894 l 233 78 l 750 78 l 778 108 l 778 282 l 878 282 l 878 0 l 56 0 l 56 78 m 651 1276 l 690 1251 l 493 1054 l 450 1054 l 254 1247 l 293 1276 l 478 1200 l 651 1276 z "},"ž":{"ha":763,"x_min":79,"x_max":696,"o":"m 682 251 l 682 0 l 79 0 l 79 69 l 536 660 l 235 660 l 207 632 l 207 493 l 118 493 l 118 729 l 696 729 l 696 660 l 236 69 l 565 69 l 593 97 l 593 251 l 682 251 m 550 1119 l 594 1096 l 401 825 l 361 825 l 171 1094 l 226 1119 l 392 967 l 550 1119 z "},"ſ":{"ha":535,"x_min":49,"x_max":596,"o":"m 426 1042 q 476 1038 450 1042 q 524 1028 501 1035 q 566 1015 547 1022 q 596 999 585 1007 l 596 869 l 463 869 l 463 961 q 438 965 447 964 q 414 967 428 967 q 333 917 353 967 q 313 760 313 868 l 313 69 l 461 69 l 461 0 l 64 0 l 64 69 l 167 69 l 167 660 l 49 660 l 49 729 l 167 729 l 167 751 q 189 890 167 835 q 247 979 211 946 q 331 1027 283 1013 q 426 1042 378 1042 z "},"ƒ":{"ha":833,"x_min":22,"x_max":779,"o":"m 304 660 l 193 660 l 193 729 l 322 729 l 326 749 q 440 967 357 892 q 653 1042 524 1042 q 683 1040 665 1042 q 717 1035 700 1038 q 751 1028 735 1032 q 779 1018 767 1024 l 779 903 l 643 903 l 643 967 q 572 956 600 967 q 524 920 543 944 q 490 856 504 896 q 463 758 476 817 l 456 729 l 613 729 l 613 660 l 440 660 l 342 63 q 285 -106 325 -40 q 198 -209 244 -171 q 107 -264 151 -247 q 38 -287 63 -281 l 22 -249 q 67 -222 42 -240 q 119 -170 93 -203 q 169 -87 146 -137 q 204 35 192 -37 l 304 660 z "},"Ǵ":{"ha":1075,"x_min":79,"x_max":1026,"o":"m 929 67 q 863 35 900 50 q 784 8 825 19 q 701 -10 743 -3 q 621 -17 660 -17 q 391 13 492 -17 q 221 105 290 43 q 115 262 151 167 q 79 486 79 357 q 123 718 79 622 q 239 874 167 814 q 405 962 311 935 q 597 989 499 989 q 767 975 700 989 q 886 938 833 961 l 886 700 l 797 700 l 797 846 l 778 874 q 746 885 765 881 q 705 894 726 890 q 660 899 683 897 q 618 900 638 900 q 475 876 542 900 q 359 803 408 853 q 281 674 310 753 q 253 486 253 596 q 351 181 253 289 q 632 72 449 72 q 710 78 678 72 q 768 94 743 85 l 789 119 l 789 382 l 642 382 l 642 460 l 1026 460 l 1026 382 l 929 382 l 929 67 m 715 1269 l 886 1224 l 886 1168 l 531 1068 l 513 1101 l 715 1269 z "},"ǵ":{"ha":822,"x_min":44,"x_max":808,"o":"m 808 729 l 808 640 l 646 640 q 682 586 665 621 q 699 503 699 551 q 618 338 699 400 q 386 275 538 275 q 339 276 358 275 q 297 282 319 276 q 280 252 290 268 q 269 218 269 236 q 306 174 269 189 q 396 148 342 160 q 514 124 450 136 q 633 90 578 113 q 724 29 688 67 q 760 -69 760 -8 q 733 -162 760 -122 q 656 -227 706 -201 q 539 -265 607 -253 q 390 -278 471 -278 q 131 -232 217 -278 q 44 -106 44 -186 q 97 14 44 -28 q 246 83 150 56 q 188 117 210 99 q 165 171 165 135 q 174 205 165 188 q 196 238 182 222 q 226 267 210 254 q 258 289 243 281 q 122 369 169 313 q 74 506 74 426 q 153 668 74 607 q 386 729 232 729 l 808 729 m 614 -103 q 581 -30 614 -57 q 499 15 549 -3 q 393 43 450 32 q 286 69 336 54 q 209 -1 228 35 q 190 -76 190 -36 q 249 -174 190 -135 q 418 -212 307 -212 q 513 -203 475 -212 q 573 -179 550 -194 q 605 -144 596 -164 q 614 -103 614 -125 m 219 506 q 228 439 219 469 q 255 387 236 408 q 306 353 274 365 q 386 340 338 340 q 514 385 475 340 q 553 506 553 431 q 551 554 553 535 q 545 589 549 574 q 538 616 542 604 q 529 640 533 628 q 461 659 497 654 q 386 664 425 664 q 256 625 292 664 q 219 506 219 586 m 490 1042 l 665 1042 l 665 985 l 393 822 l 354 854 l 490 1042 z "},"Ș":{"ha":828,"x_min":86,"x_max":751,"o":"m 175 136 l 200 103 q 269 73 225 85 q 365 61 313 61 q 458 72 415 61 q 532 103 500 82 q 582 156 564 124 q 600 232 600 188 q 562 326 600 289 q 467 393 524 364 q 343 450 410 422 q 219 515 276 478 q 124 606 163 553 q 86 739 86 658 q 176 923 86 857 q 418 989 265 989 q 583 976 514 989 q 701 943 653 964 l 701 704 l 613 704 l 613 854 l 590 889 q 514 906 564 900 q 415 911 464 911 q 285 873 332 911 q 238 765 238 835 q 276 670 238 708 q 371 601 314 632 q 494 542 428 571 q 618 477 561 514 q 713 389 675 440 q 751 261 751 338 q 647 55 751 126 q 363 -17 543 -17 q 192 4 264 -17 q 86 49 119 25 l 86 301 l 175 301 l 175 136 m 281 -337 q 374 -295 339 -322 q 410 -226 410 -268 l 410 -217 l 326 -217 q 307 -182 313 -200 q 301 -144 301 -164 q 326 -67 301 -103 l 501 -67 q 525 -162 525 -114 q 506 -244 525 -207 q 455 -311 486 -282 q 383 -360 424 -340 q 300 -389 342 -381 l 281 -337 z "},"ș":{"ha":675,"x_min":83,"x_max":604,"o":"m 461 165 q 433 231 461 203 q 364 284 406 260 q 274 333 322 308 q 183 388 225 357 q 114 462 142 419 q 86 564 86 504 q 106 637 86 604 q 158 693 125 669 q 235 730 190 717 q 329 743 279 743 q 403 740 371 743 q 461 733 435 738 q 511 721 488 728 q 560 706 535 714 l 560 518 l 471 518 l 471 628 l 444 658 q 406 665 426 663 q 361 668 385 668 q 262 642 294 668 q 229 578 229 617 q 257 513 229 540 q 326 460 285 485 q 417 413 368 436 q 507 359 465 389 q 576 290 549 329 q 604 197 604 251 q 581 108 604 147 q 519 42 558 69 q 426 1 479 15 q 313 -14 372 -14 q 183 3 246 -14 q 83 44 119 21 l 83 226 l 172 226 l 172 121 l 200 92 q 243 69 218 78 q 308 61 268 61 q 418 89 375 61 q 461 165 461 117 m 193 -337 q 287 -292 251 -322 q 322 -219 322 -261 l 322 -210 l 239 -210 q 219 -176 225 -193 q 214 -142 214 -158 q 239 -67 214 -103 l 400 -67 q 419 -119 414 -94 q 425 -168 425 -144 q 408 -248 425 -211 q 360 -313 390 -285 q 292 -361 331 -342 q 213 -389 254 -381 l 193 -337 z "},"Ț":{"ha":969,"x_min":31,"x_max":939,"o":"m 706 0 l 264 0 l 264 78 l 407 78 l 407 894 l 158 894 l 131 864 l 131 685 l 31 685 l 31 972 l 939 972 l 939 685 l 839 685 l 839 864 l 811 894 l 563 894 l 563 78 l 706 78 l 706 0 m 365 -337 q 459 -295 424 -322 q 494 -226 494 -268 l 494 -217 l 411 -217 q 392 -182 397 -200 q 386 -144 386 -164 q 411 -67 386 -103 l 586 -67 q 610 -162 610 -114 q 590 -244 610 -207 q 540 -311 571 -282 q 467 -360 508 -340 q 385 -389 426 -381 l 365 -337 z "},"ț":{"ha":581,"x_min":24,"x_max":554,"o":"m 24 729 l 147 729 l 147 903 l 293 903 l 293 729 l 524 729 l 524 640 l 293 640 l 293 235 q 315 111 293 147 q 388 75 338 75 q 462 90 431 75 q 519 124 493 106 l 554 69 q 520 42 542 57 q 471 15 499 28 q 409 -6 443 3 q 339 -14 375 -14 q 197 34 246 -14 q 147 193 147 82 l 147 640 l 24 640 l 24 729 m 181 -337 q 274 -292 239 -322 q 310 -219 310 -261 l 310 -210 l 226 -210 q 207 -176 213 -193 q 201 -142 201 -158 q 226 -67 201 -103 l 388 -67 q 407 -119 401 -94 q 413 -168 413 -144 q 395 -248 413 -211 q 348 -313 378 -285 q 280 -361 318 -342 q 200 -389 242 -381 l 181 -337 z "},"ȷ":{"ha":453,"x_min":38,"x_max":311,"o":"m 165 660 l 63 660 l 63 729 l 311 729 l 311 86 q 283 -86 311 -18 q 215 -197 254 -154 q 137 -259 176 -239 q 75 -286 97 -279 l 38 -226 q 78 -201 56 -218 q 119 -151 100 -183 q 152 -69 139 -119 q 165 58 165 -18 l 165 660 z "},"ʼ":{"ha":390,"x_min":85,"x_max":308,"o":"m 85 642 q 138 668 114 650 q 178 709 161 686 q 202 758 194 732 q 208 810 210 785 l 129 810 q 111 844 118 826 q 104 881 104 861 q 108 912 104 897 q 117 939 111 926 q 129 963 122 951 l 283 963 q 301 908 294 935 q 308 854 308 882 q 295 772 308 815 q 256 696 282 729 q 198 640 235 668 q 110 601 161 613 l 85 642 z "},"ˆ":{"ha":556,"x_min":83,"x_max":472,"o":"m 128 860 l 83 883 l 257 1156 l 297 1156 l 472 885 l 428 860 l 271 1015 l 128 860 z "},"ˇ":{"ha":590,"x_min":83,"x_max":507,"o":"m 463 1119 l 507 1096 l 314 825 l 274 825 l 83 1094 l 139 1119 l 304 967 l 463 1119 z "},"˘":{"ha":593,"x_min":83,"x_max":510,"o":"m 510 1050 q 476 985 496 1017 q 430 928 456 953 q 372 887 404 903 q 300 871 339 871 q 164 922 217 871 q 83 1053 111 974 l 128 1072 q 161 1034 140 1051 q 206 1004 182 1017 q 256 984 231 992 q 306 976 282 976 q 399 999 356 976 q 472 1067 442 1022 l 510 1050 z "},"˙":{"ha":463,"x_min":135,"x_max":338,"o":"m 135 954 q 163 1018 135 994 q 236 1042 192 1042 q 310 1018 283 1042 q 338 954 338 994 q 310 890 338 914 q 236 867 283 867 q 163 890 192 867 q 135 954 135 914 z "},"˚":{"ha":471,"x_min":83,"x_max":388,"o":"m 83 996 q 128 1097 83 1056 q 240 1138 172 1138 q 345 1101 303 1138 q 388 1000 388 1064 q 375 946 388 971 q 342 903 363 921 q 295 874 322 885 q 239 864 268 864 q 126 899 168 864 q 83 996 83 935 m 167 999 q 188 944 167 963 q 233 925 208 925 q 284 942 264 925 q 304 994 304 958 q 285 1056 304 1035 q 235 1076 265 1076 q 183 1056 199 1076 q 167 999 167 1035 z "},"˛":{"ha":653,"x_min":271,"x_max":581,"o":"m 581 29 q 511 -3 543 13 q 456 -38 479 -19 q 418 -81 432 -57 q 404 -139 404 -106 q 424 -190 404 -167 q 493 -212 444 -212 q 575 -199 535 -212 l 575 -249 q 519 -269 553 -261 q 457 -278 485 -278 q 318 -248 365 -278 q 271 -162 271 -218 q 290 -95 271 -124 q 343 -45 310 -67 q 422 -6 376 -24 q 521 29 468 11 l 581 29 z "},"˜":{"ha":647,"x_min":83,"x_max":564,"o":"m 564 979 q 472 915 514 932 q 394 897 429 897 q 342 905 367 897 q 293 922 317 913 q 247 938 269 931 q 201 946 225 946 q 160 938 182 946 q 114 910 139 931 l 83 954 q 187 1022 142 1004 q 268 1040 232 1040 q 320 1033 296 1040 q 367 1017 344 1025 q 411 1001 389 1008 q 457 993 433 993 q 497 999 476 993 q 542 1022 518 1006 l 564 979 z "},"˝":{"ha":693,"x_min":83,"x_max":610,"o":"m 201 1119 l 336 1089 l 336 1053 l 121 872 l 83 894 l 201 1119 m 474 1119 l 610 1079 l 610 1044 l 299 872 l 267 897 l 474 1119 z "},"́":{"ha":3,"x_min":-451,"x_max":-140,"o":"m -315 1042 l -140 1042 l -140 985 l -412 822 l -451 854 l -315 1042 z "},"Δ":{"ha":1011,"x_min":31,"x_max":981,"o":"m 31 0 l 31 44 l 488 972 l 533 972 l 981 44 l 981 0 l 31 0 m 478 776 l 143 86 l 794 86 l 478 776 z "},"Ω":{"ha":1243,"x_min":88,"x_max":1160,"o":"m 88 0 l 88 203 l 176 203 l 176 108 l 463 108 q 331 169 393 131 q 220 260 268 207 q 144 379 172 313 q 117 526 117 446 q 153 716 117 631 q 256 862 189 801 q 418 955 322 922 q 633 988 514 988 q 847 956 754 988 q 1002 865 939 924 q 1098 724 1065 807 q 1131 540 1131 642 q 1100 383 1131 454 q 1021 258 1069 313 q 913 165 972 203 q 794 108 853 128 l 1071 108 l 1071 203 l 1160 203 l 1160 0 l 713 0 l 713 118 q 792 165 750 132 q 872 250 835 199 q 933 370 908 301 q 957 524 957 439 q 938 676 957 604 q 878 801 918 747 q 776 885 838 854 q 633 915 715 915 q 475 885 540 915 q 369 803 410 854 q 309 683 328 751 q 290 539 290 615 q 316 382 290 453 q 381 257 342 311 q 464 167 419 203 q 546 118 508 132 l 546 0 l 88 0 z "},"π":{"ha":963,"x_min":28,"x_max":928,"o":"m 869 69 l 869 0 l 611 0 l 611 636 l 319 636 l 319 363 q 315 264 319 314 q 303 167 311 214 q 283 76 294 119 q 257 0 271 33 l 90 0 q 149 133 121 54 q 197 301 176 213 q 231 478 218 390 q 243 636 243 565 l 217 636 q 138 615 172 636 q 67 550 103 594 l 28 569 q 50 638 36 607 q 89 692 64 669 q 155 726 114 714 q 260 738 196 738 q 323 736 276 738 q 431 733 369 735 q 563 731 493 732 q 697 729 633 729 q 781 730 747 729 q 837 735 814 731 q 875 747 860 739 q 906 767 890 754 l 928 754 q 887 671 921 706 q 786 636 853 636 l 767 636 l 767 69 l 869 69 z "},"Ё":{"ha":896,"x_min":44,"x_max":807,"o":"m 783 972 l 783 744 l 694 744 l 694 864 l 667 894 l 326 894 l 326 535 l 561 535 l 582 556 l 582 614 l 671 614 l 671 376 l 582 376 l 582 435 l 561 457 l 326 457 l 326 78 l 690 78 l 718 106 l 718 242 l 807 242 l 807 0 l 44 0 l 44 78 l 171 78 l 171 894 l 44 894 l 44 972 l 783 972 m 185 1106 q 210 1166 185 1146 q 275 1186 236 1186 q 342 1166 315 1186 q 368 1106 368 1146 q 342 1050 368 1069 q 275 1031 315 1031 q 210 1050 236 1031 q 185 1106 185 1069 m 535 1106 q 561 1166 535 1146 q 625 1186 588 1186 q 692 1166 665 1186 q 718 1106 718 1146 q 692 1050 718 1069 q 625 1031 665 1031 q 561 1050 588 1031 q 535 1106 535 1069 z "},"Ђ":{"ha":1169,"x_min":17,"x_max":1117,"o":"m 657 0 l 247 0 l 247 78 l 393 78 l 393 894 l 144 894 l 117 864 l 117 685 l 17 685 l 17 972 l 925 972 l 925 685 l 825 685 l 825 864 l 797 894 l 549 894 l 549 540 q 661 582 592 561 q 821 603 731 603 q 940 591 885 603 q 1033 549 994 579 q 1094 465 1072 518 q 1117 329 1117 413 q 1092 160 1117 225 q 1025 59 1068 96 q 922 9 982 22 q 790 -4 861 -4 l 785 47 q 854 69 822 54 q 910 115 886 85 q 948 194 935 146 q 961 315 961 242 q 918 470 961 413 q 774 528 875 528 q 650 512 708 528 q 549 472 592 496 l 549 78 l 657 78 l 657 0 z "},"Ѓ":{"ha":774,"x_min":44,"x_max":757,"o":"m 44 894 l 44 972 l 757 972 l 757 685 l 657 685 l 657 864 l 629 894 l 326 894 l 326 78 l 476 78 l 476 0 l 44 0 l 44 78 l 171 78 l 171 894 l 44 894 m 561 1269 l 732 1224 l 732 1168 l 376 1068 l 358 1101 l 561 1269 z "},"Є":{"ha":969,"x_min":79,"x_max":879,"o":"m 790 256 l 879 256 l 879 38 q 765 -1 836 14 q 625 -17 694 -17 q 396 13 497 -17 q 224 103 294 42 q 117 260 154 165 q 79 486 79 354 q 121 717 79 622 q 233 873 163 813 q 397 961 304 933 q 593 989 490 989 q 683 985 643 989 q 756 975 724 982 q 817 958 789 968 q 871 938 844 949 l 871 700 l 782 700 l 782 846 l 763 874 q 715 890 747 881 q 610 900 682 900 q 478 880 540 900 q 370 817 417 860 q 293 706 324 774 q 256 544 263 639 l 722 544 l 722 456 l 253 456 q 362 172 261 271 q 636 72 463 72 q 720 80 686 72 q 771 100 754 88 l 790 126 l 790 256 z "},"Ѕ":{"ha":828,"x_min":86,"x_max":751,"o":"m 175 136 l 200 103 q 269 73 225 85 q 365 61 313 61 q 458 72 415 61 q 532 103 500 82 q 582 156 564 124 q 600 232 600 188 q 562 326 600 289 q 467 393 524 364 q 343 450 410 422 q 219 515 276 478 q 124 606 163 553 q 86 739 86 658 q 176 923 86 857 q 418 989 265 989 q 583 976 514 989 q 701 943 653 964 l 701 704 l 613 704 l 613 854 l 590 889 q 514 906 564 900 q 415 911 464 911 q 285 873 332 911 q 238 765 238 835 q 276 670 238 708 q 371 601 314 632 q 494 542 428 571 q 618 477 561 514 q 713 389 675 440 q 751 261 751 338 q 647 55 751 126 q 363 -17 543 -17 q 192 4 264 -17 q 86 49 119 25 l 86 301 l 175 301 l 175 136 z "},"І":{"ha":553,"x_min":72,"x_max":481,"o":"m 481 0 l 72 0 l 72 78 l 199 78 l 199 894 l 72 894 l 72 972 l 481 972 l 481 894 l 354 894 l 354 78 l 481 78 l 481 0 z "},"Ї":{"ha":553,"x_min":44,"x_max":507,"o":"m 44 1096 q 70 1148 44 1131 q 135 1165 96 1165 q 201 1148 175 1165 q 228 1096 228 1131 q 201 1047 228 1064 q 135 1031 175 1031 q 70 1047 96 1031 q 44 1096 44 1064 m 324 1096 q 350 1148 324 1131 q 414 1165 376 1165 q 481 1148 454 1165 q 507 1096 507 1131 q 481 1047 507 1064 q 414 1031 454 1031 q 350 1047 376 1031 q 324 1096 324 1064 m 481 0 l 72 0 l 72 78 l 199 78 l 199 894 l 72 894 l 72 972 l 481 972 l 481 894 l 354 894 l 354 78 l 481 78 l 481 0 z "},"Ј":{"ha":528,"x_min":50,"x_max":456,"o":"m 50 -157 q 96 -130 74 -146 q 135 -85 118 -114 q 163 -11 153 -57 q 174 108 174 35 l 174 894 l 58 894 l 58 972 l 456 972 l 456 894 l 329 894 l 329 122 q 303 -40 329 24 q 240 -141 278 -103 q 160 -197 203 -179 q 82 -222 117 -215 l 50 -157 z "},"Љ":{"ha":1435,"x_min":35,"x_max":1382,"o":"m 856 579 q 924 586 883 583 q 996 589 964 589 q 1144 576 1074 589 q 1267 531 1214 564 q 1351 443 1319 499 q 1382 303 1382 388 q 1349 163 1382 221 q 1260 68 1317 106 q 1130 13 1204 31 q 971 -4 1056 -4 q 947 -3 964 -4 q 908 -2 931 -3 q 860 -1 886 -1 q 811 0 835 0 l 574 0 l 574 78 l 700 78 l 700 894 l 410 894 q 388 567 403 699 q 355 347 374 436 q 313 199 336 257 q 264 94 289 142 q 233 47 251 71 q 196 0 215 24 l 35 0 l 35 175 l 196 175 q 238 267 217 210 q 276 412 260 325 q 303 618 293 499 q 314 894 314 738 l 169 894 l 169 972 l 994 972 l 994 894 l 856 894 l 856 579 m 961 511 q 899 509 924 511 q 856 503 875 507 l 856 81 q 878 77 864 78 q 910 75 893 76 q 942 74 926 74 q 965 74 957 74 q 1063 86 1018 74 q 1140 126 1107 99 q 1190 198 1172 154 q 1208 304 1208 242 q 1147 464 1208 417 q 961 511 1085 511 z "},"Њ":{"ha":1549,"x_min":44,"x_max":1496,"o":"m 968 551 q 1036 558 996 556 q 1108 561 1076 561 q 1255 549 1185 561 q 1378 505 1325 536 q 1464 420 1432 474 q 1496 285 1496 367 q 1460 150 1496 206 q 1367 60 1425 94 q 1235 11 1308 26 q 1085 -4 1161 -4 q 1054 -3 1076 -4 q 1003 -2 1032 -3 q 943 -1 974 -1 q 889 0 913 0 l 697 0 l 697 78 l 813 78 l 813 460 l 326 460 l 326 78 l 442 78 l 442 0 l 44 0 l 44 78 l 171 78 l 171 894 l 44 894 l 44 972 l 442 972 l 442 894 l 326 894 l 326 538 l 813 538 l 813 894 l 697 894 l 697 972 l 1108 972 l 1108 894 l 968 894 l 968 551 m 1072 483 q 1012 482 1036 483 q 968 475 988 481 l 968 81 q 990 77 975 78 q 1021 75 1004 76 q 1053 74 1038 74 q 1076 74 1068 74 q 1174 85 1129 74 q 1252 122 1219 97 q 1303 188 1285 147 q 1322 286 1322 228 q 1260 433 1322 382 q 1072 483 1199 483 z "},"Ћ":{"ha":1231,"x_min":17,"x_max":1214,"o":"m 657 0 l 247 0 l 247 78 l 393 78 l 393 894 l 144 894 l 117 864 l 117 685 l 17 685 l 17 972 l 925 972 l 925 685 l 825 685 l 825 864 l 797 894 l 549 894 l 549 539 q 654 581 592 561 q 804 601 717 601 q 922 590 869 601 q 1012 550 975 579 q 1068 471 1049 521 q 1088 343 1088 421 l 1088 78 l 1214 78 l 1214 0 l 932 0 l 932 311 q 924 399 932 360 q 897 465 917 438 q 843 508 876 493 q 760 524 810 524 q 642 507 693 524 q 549 467 592 490 l 549 78 l 657 78 l 657 0 z "},"Ќ":{"ha":989,"x_min":44,"x_max":989,"o":"m 417 531 l 719 894 l 607 894 l 607 972 l 950 972 l 950 894 l 840 894 l 510 524 l 903 78 l 989 78 l 989 0 l 765 0 l 400 461 l 326 461 l 326 78 l 442 78 l 442 0 l 44 0 l 44 78 l 171 78 l 171 894 l 44 894 l 44 972 l 442 972 l 442 894 l 326 894 l 326 531 l 417 531 m 638 1269 l 808 1224 l 808 1168 l 453 1068 l 435 1101 l 638 1269 z "},"Ў":{"ha":1031,"x_min":0,"x_max":1031,"o":"m 811 894 l 682 894 l 682 972 l 1031 972 l 1031 894 l 918 894 l 619 279 q 535 120 576 192 q 453 0 494 49 l 321 0 l 321 171 l 475 171 q 507 235 497 204 l 118 894 l 0 894 l 0 972 l 417 972 l 417 894 l 292 894 l 546 442 l 578 353 l 581 353 l 613 444 l 811 894 m 551 1032 q 340 1079 408 1032 q 272 1224 272 1126 l 433 1224 l 433 1114 q 485 1099 453 1104 q 553 1094 517 1094 q 615 1099 579 1094 q 672 1110 651 1103 l 672 1224 l 826 1224 q 762 1080 826 1128 q 551 1032 697 1032 z "},"Џ":{"ha":1122,"x_min":44,"x_max":1078,"o":"m 796 78 l 796 894 l 681 894 l 681 972 l 1078 972 l 1078 894 l 951 894 l 951 78 l 1078 78 l 1078 0 l 617 0 l 617 -278 l 506 -278 l 506 0 l 44 0 l 44 78 l 171 78 l 171 894 l 44 894 l 44 972 l 442 972 l 442 894 l 326 894 l 326 78 l 796 78 z "},"А":{"ha":1049,"x_min":0,"x_max":1049,"o":"m 340 0 l 0 0 l 0 78 l 108 78 l 468 972 l 615 972 l 944 78 l 1049 78 l 1049 0 l 651 0 l 651 78 l 775 78 l 685 322 l 315 322 l 221 78 l 340 78 l 340 0 m 347 400 l 661 400 l 547 721 l 513 868 l 507 868 l 467 718 l 347 400 z "},"Б":{"ha":924,"x_min":44,"x_max":857,"o":"m 326 565 q 395 572 354 568 q 468 575 436 575 q 615 560 544 575 q 739 513 685 546 q 825 424 793 479 q 857 289 857 369 q 824 158 857 213 q 733 67 790 103 q 602 13 676 31 q 444 -4 528 -4 q 413 -3 436 -4 q 359 -2 389 -3 q 297 -1 329 -1 q 242 0 265 0 l 44 0 l 44 78 l 171 78 l 171 894 l 44 894 l 44 972 l 790 972 l 790 718 l 690 718 l 690 864 l 663 894 l 326 894 l 326 565 m 432 497 q 371 496 396 497 q 326 489 346 494 l 326 81 q 349 77 333 78 q 381 75 364 76 q 413 74 397 74 q 436 74 428 74 q 535 86 490 74 q 613 126 581 99 q 665 193 646 153 q 683 290 683 233 q 621 444 683 392 q 432 497 558 497 z "},"В":{"ha":958,"x_min":44,"x_max":882,"o":"m 44 0 l 44 78 l 171 78 l 171 894 l 44 894 l 44 972 l 226 972 q 282 974 256 972 q 338 976 308 975 q 401 979 367 978 q 476 981 435 981 q 601 972 538 981 q 717 938 665 963 q 801 867 768 913 q 833 750 833 822 q 820 676 833 713 q 781 610 807 640 q 717 556 756 579 q 626 521 678 532 l 626 515 q 718 492 672 508 q 801 447 764 475 q 860 376 838 418 q 882 276 882 335 q 845 147 882 201 q 749 58 808 93 q 613 8 689 24 q 460 -8 538 -8 q 338 -4 406 -8 q 208 0 271 0 l 44 0 m 471 69 q 572 84 525 69 q 651 125 618 99 q 703 188 685 151 q 722 269 722 225 q 699 362 722 325 q 638 420 676 399 q 549 450 600 442 q 440 458 497 458 l 326 458 l 326 82 q 377 73 347 76 q 471 69 407 69 m 401 531 q 463 533 429 531 q 521 538 497 535 q 635 609 592 560 q 678 725 678 658 q 619 860 678 817 q 461 903 561 903 q 381 901 414 903 q 326 896 349 899 l 326 531 l 401 531 z "},"Г":{"ha":774,"x_min":44,"x_max":757,"o":"m 44 894 l 44 972 l 757 972 l 757 685 l 657 685 l 657 864 l 629 894 l 326 894 l 326 78 l 476 78 l 476 0 l 44 0 l 44 78 l 171 78 l 171 894 l 44 894 z "},"Д":{"ha":1068,"x_min":14,"x_max":1031,"o":"m 1013 894 l 886 894 l 886 78 l 1031 78 l 1031 -225 l 926 -225 l 926 -31 l 899 0 l 146 0 l 118 -31 l 118 -225 l 14 -225 l 14 78 l 150 78 q 224 228 189 136 q 284 428 258 319 q 325 658 310 538 q 340 894 340 778 l 190 894 l 190 972 l 1013 972 l 1013 894 m 731 78 l 731 894 l 436 894 q 408 591 428 724 q 362 358 388 458 q 308 190 336 258 q 257 78 279 121 l 731 78 z "},"Е":{"ha":896,"x_min":44,"x_max":807,"o":"m 783 972 l 783 744 l 694 744 l 694 864 l 667 894 l 326 894 l 326 535 l 561 535 l 582 556 l 582 614 l 671 614 l 671 376 l 582 376 l 582 435 l 561 457 l 326 457 l 326 78 l 690 78 l 718 106 l 718 242 l 807 242 l 807 0 l 44 0 l 44 78 l 171 78 l 171 894 l 44 894 l 44 972 l 783 972 z "},"Ж":{"ha":1463,"x_min":0,"x_max":1463,"o":"m 560 461 l 213 0 l 0 0 l 0 78 l 83 78 q 268 294 186 199 q 335 374 303 335 q 394 443 368 413 q 437 492 421 474 q 453 511 453 511 l 143 894 l 35 894 l 35 972 l 381 972 l 381 894 l 276 894 l 547 531 l 651 531 l 651 894 l 544 894 l 544 972 l 908 972 l 908 894 l 801 894 l 801 531 l 911 531 l 1183 894 l 1072 894 l 1072 972 l 1418 972 l 1418 894 l 1300 894 l 1001 522 l 1379 78 l 1463 78 l 1463 0 l 1250 0 l 896 461 l 801 461 l 801 78 l 908 78 l 908 0 l 544 0 l 544 78 l 651 78 l 651 461 l 560 461 z "},"З":{"ha":849,"x_min":76,"x_max":771,"o":"m 363 -17 q 203 -1 276 -17 q 76 38 129 14 l 76 269 l 165 269 l 165 114 l 186 88 q 220 76 199 81 q 266 67 242 71 q 315 63 290 64 q 360 61 340 61 q 463 76 417 61 q 542 119 510 92 q 593 185 575 147 q 611 269 611 224 q 592 360 611 324 q 542 417 574 396 q 469 447 511 439 q 382 456 428 456 l 261 456 l 261 544 l 438 544 q 546 613 508 567 q 583 725 583 658 q 527 863 583 815 q 368 911 471 911 q 278 903 322 911 q 217 883 235 894 l 199 857 l 199 719 l 110 719 l 110 932 q 167 959 135 949 q 234 976 199 969 q 306 986 269 983 q 375 989 342 989 q 503 979 439 989 q 620 942 568 969 q 706 869 672 915 q 739 750 739 822 q 692 617 739 679 q 546 521 646 554 l 546 515 q 634 491 593 508 q 706 445 675 474 q 753 375 736 417 q 771 276 771 333 q 738 146 771 201 q 648 54 704 90 q 518 1 592 18 q 363 -17 444 -17 z "},"И":{"ha":1157,"x_min":44,"x_max":1113,"o":"m 442 0 l 44 0 l 44 78 l 171 78 l 171 894 l 44 894 l 44 972 l 442 972 l 442 894 l 326 894 l 326 299 l 310 194 l 385 304 l 839 864 l 839 894 l 713 894 l 713 972 l 1113 972 l 1113 894 l 986 894 l 986 78 l 1113 78 l 1113 0 l 713 0 l 713 78 l 831 78 l 831 672 l 846 776 l 778 672 l 317 106 l 317 78 l 442 78 l 442 0 z "},"Й":{"ha":1157,"x_min":44,"x_max":1113,"o":"m 442 0 l 44 0 l 44 78 l 171 78 l 171 894 l 44 894 l 44 972 l 442 972 l 442 894 l 326 894 l 326 299 l 310 194 l 385 304 l 839 864 l 839 894 l 713 894 l 713 972 l 1113 972 l 1113 894 l 986 894 l 986 78 l 1113 78 l 1113 0 l 713 0 l 713 78 l 831 78 l 831 672 l 846 776 l 778 672 l 317 106 l 317 78 l 442 78 l 442 0 m 586 1032 q 375 1079 443 1032 q 307 1224 307 1126 l 468 1224 l 468 1114 q 519 1099 488 1104 q 588 1094 551 1094 q 650 1099 614 1094 q 707 1110 686 1103 l 707 1224 l 861 1224 q 797 1080 861 1128 q 586 1032 732 1032 z "},"К":{"ha":989,"x_min":44,"x_max":989,"o":"m 417 531 l 719 894 l 607 894 l 607 972 l 950 972 l 950 894 l 840 894 l 510 524 l 903 78 l 989 78 l 989 0 l 765 0 l 400 461 l 326 461 l 326 78 l 442 78 l 442 0 l 44 0 l 44 78 l 171 78 l 171 894 l 44 894 l 44 972 l 442 972 l 442 894 l 326 894 l 326 531 l 417 531 z "},"Л":{"ha":1026,"x_min":35,"x_max":982,"o":"m 410 894 q 388 567 403 699 q 355 347 374 436 q 313 199 336 257 q 264 94 289 142 q 233 47 251 71 q 196 0 215 24 l 35 0 l 35 175 l 196 175 q 238 267 217 210 q 276 412 260 325 q 303 618 293 499 q 314 894 314 738 l 169 894 l 169 972 l 982 972 l 982 894 l 856 894 l 856 78 l 982 78 l 982 0 l 581 0 l 581 78 l 700 78 l 700 894 l 410 894 z "},"М":{"ha":1367,"x_min":44,"x_max":1322,"o":"m 44 894 l 44 972 l 361 972 l 689 350 l 1024 972 l 1322 972 l 1322 894 l 1196 894 l 1196 78 l 1322 78 l 1322 0 l 919 0 l 919 78 l 1046 78 l 1046 697 q 1048 730 1047 704 q 1050 785 1049 756 q 1053 860 1051 819 l 1040 860 l 981 711 l 696 208 l 611 208 l 333 711 l 272 874 l 258 874 l 258 788 q 259 727 258 756 q 260 697 260 699 l 260 78 l 378 78 l 378 0 l 44 0 l 44 78 l 171 78 l 171 894 l 44 894 z "},"Н":{"ha":1139,"x_min":44,"x_max":1094,"o":"m 442 78 l 442 0 l 44 0 l 44 78 l 171 78 l 171 894 l 44 894 l 44 972 l 442 972 l 442 894 l 326 894 l 326 538 l 813 538 l 813 894 l 697 894 l 697 972 l 1094 972 l 1094 894 l 968 894 l 968 78 l 1094 78 l 1094 0 l 697 0 l 697 78 l 813 78 l 813 460 l 326 460 l 326 78 l 442 78 z "},"О":{"ha":1153,"x_min":79,"x_max":1074,"o":"m 79 486 q 113 687 79 594 q 209 847 146 779 q 365 951 272 914 q 575 989 457 989 q 786 951 693 989 q 943 847 879 914 q 1040 687 1007 779 q 1074 486 1074 594 q 1040 285 1074 378 q 943 126 1007 193 q 786 21 879 58 q 575 -17 693 -17 q 365 21 457 -17 q 209 126 272 58 q 113 285 146 193 q 79 486 79 378 m 253 486 q 273 319 253 397 q 335 185 293 242 q 440 94 376 128 q 589 61 503 61 q 726 94 668 61 q 823 185 785 128 q 881 319 861 242 q 900 486 900 397 q 880 653 900 575 q 818 788 860 731 q 713 878 776 844 q 563 911 650 911 q 420 878 479 911 q 324 788 361 844 q 269 653 286 731 q 253 486 253 575 z "},"П":{"ha":1122,"x_min":44,"x_max":1078,"o":"m 326 894 l 326 78 l 442 78 l 442 0 l 44 0 l 44 78 l 171 78 l 171 894 l 44 894 l 44 972 l 1078 972 l 1078 894 l 951 894 l 951 78 l 1078 78 l 1078 0 l 681 0 l 681 78 l 796 78 l 796 894 l 326 894 z "},"Р":{"ha":926,"x_min":44,"x_max":874,"o":"m 44 894 l 44 972 l 189 972 q 324 978 251 972 q 465 983 397 983 q 615 969 542 983 q 746 919 689 954 q 838 827 803 885 q 874 683 874 769 q 838 542 874 601 q 742 446 801 483 q 606 390 683 408 q 447 372 529 372 q 422 372 439 372 q 387 373 406 372 q 351 375 368 374 q 326 378 335 376 l 326 78 l 465 78 l 465 0 l 44 0 l 44 78 l 171 78 l 171 894 l 44 894 m 326 457 q 348 453 333 454 q 379 451 363 453 q 412 450 396 450 q 436 450 428 450 q 538 463 490 450 q 622 504 586 476 q 679 576 658 532 q 700 683 700 621 q 628 851 700 797 q 433 906 557 906 q 371 903 396 906 q 326 897 346 901 l 326 457 z "},"С":{"ha":971,"x_min":79,"x_max":879,"o":"m 790 256 l 879 256 l 879 38 q 765 -1 836 14 q 625 -17 694 -17 q 396 13 497 -17 q 224 103 294 42 q 117 260 154 165 q 79 486 79 354 q 121 717 79 622 q 233 873 163 813 q 397 961 304 933 q 593 989 490 989 q 683 985 643 989 q 756 975 724 982 q 817 958 789 968 q 871 938 844 949 l 871 700 l 782 700 l 782 846 l 763 874 q 715 890 747 881 q 610 900 682 900 q 469 876 535 900 q 356 803 404 853 q 281 674 308 753 q 253 486 253 596 q 353 180 253 288 q 636 72 454 72 q 720 80 686 72 q 771 100 754 88 l 790 126 l 790 256 z "},"Т":{"ha":969,"x_min":31,"x_max":939,"o":"m 706 0 l 264 0 l 264 78 l 407 78 l 407 894 l 158 894 l 131 864 l 131 685 l 31 685 l 31 972 l 939 972 l 939 685 l 839 685 l 839 864 l 811 894 l 563 894 l 563 78 l 706 78 l 706 0 z "},"У":{"ha":1031,"x_min":0,"x_max":1031,"o":"m 811 894 l 682 894 l 682 972 l 1031 972 l 1031 894 l 918 894 l 619 279 q 535 120 576 192 q 453 0 494 49 l 321 0 l 321 171 l 475 171 q 507 235 497 204 l 118 894 l 0 894 l 0 972 l 417 972 l 417 894 l 292 894 l 546 442 l 578 353 l 581 353 l 613 444 l 811 894 z "},"Ф":{"ha":1229,"x_min":53,"x_max":1176,"o":"m 440 838 q 492 836 461 838 q 543 832 524 835 l 543 894 l 435 894 l 435 972 l 794 972 l 794 894 l 686 894 l 686 828 q 753 835 714 833 q 819 838 793 838 q 960 817 894 838 q 1073 755 1025 796 q 1149 653 1121 714 q 1176 514 1176 593 q 1142 357 1176 425 q 1053 243 1108 289 q 930 174 999 197 q 792 150 861 150 q 769 151 783 150 q 740 152 756 151 q 710 155 725 153 q 686 160 696 157 l 686 78 l 794 78 l 794 0 l 435 0 l 435 78 l 543 78 l 543 157 q 476 151 513 153 q 410 150 440 150 q 283 171 347 150 q 168 235 219 192 q 85 344 117 278 q 53 500 53 410 q 85 647 53 583 q 170 752 117 710 q 294 816 224 794 q 440 838 364 838 m 768 763 q 725 761 744 763 q 685 754 706 760 l 685 229 q 722 226 700 226 q 758 225 744 225 q 854 242 808 225 q 934 295 900 260 q 989 385 968 331 q 1010 514 1010 439 q 948 701 1010 640 q 768 763 886 763 m 469 225 q 506 226 489 225 q 544 232 522 228 l 544 758 q 469 763 504 763 q 376 749 421 763 q 297 706 332 736 q 240 624 261 675 q 219 500 219 574 q 238 384 219 435 q 289 298 256 333 q 368 244 322 263 q 469 225 414 225 z "},"Х":{"ha":1050,"x_min":14,"x_max":1033,"o":"m 624 972 l 974 972 l 974 894 l 860 894 l 588 521 l 907 78 l 1033 78 l 1033 0 l 629 0 l 629 78 l 731 78 l 486 421 l 256 78 l 363 78 l 363 0 l 14 0 l 14 78 l 131 78 l 435 489 l 143 894 l 19 894 l 19 972 l 433 972 l 433 894 l 322 894 l 538 585 l 746 894 l 624 894 l 624 972 z "},"Ц":{"ha":1124,"x_min":44,"x_max":1100,"o":"m 790 78 l 790 894 l 675 894 l 675 972 l 1072 972 l 1072 894 l 946 894 l 946 78 l 1100 78 l 1100 -225 l 1004 -225 l 1004 -31 l 976 0 l 44 0 l 44 78 l 171 78 l 171 894 l 44 894 l 44 972 l 442 972 l 442 894 l 326 894 l 326 78 l 790 78 z "},"Ч":{"ha":1039,"x_min":17,"x_max":994,"o":"m 868 78 l 994 78 l 994 0 l 568 0 l 568 78 l 713 78 l 713 431 q 600 388 669 408 q 440 368 531 368 q 321 379 375 368 q 227 419 267 390 q 165 499 188 449 q 143 626 143 549 l 143 894 l 17 894 l 17 972 l 400 972 l 400 894 l 299 894 l 299 658 q 342 503 299 561 q 488 446 385 446 q 611 463 553 446 q 713 503 669 479 l 713 894 l 597 894 l 597 972 l 994 972 l 994 894 l 868 894 l 868 78 z "},"Ш":{"ha":1492,"x_min":44,"x_max":1447,"o":"m 44 894 l 44 972 l 426 972 l 426 894 l 326 894 l 326 78 l 668 78 l 668 894 l 568 894 l 568 972 l 924 972 l 924 894 l 824 894 l 824 78 l 1165 78 l 1165 894 l 1065 894 l 1065 972 l 1447 972 l 1447 894 l 1321 894 l 1321 78 l 1447 78 l 1447 0 l 44 0 l 44 78 l 171 78 l 171 894 l 44 894 z "},"Щ":{"ha":1500,"x_min":44,"x_max":1476,"o":"m 44 894 l 44 972 l 426 972 l 426 894 l 326 894 l 326 78 l 668 78 l 668 894 l 568 894 l 568 972 l 924 972 l 924 894 l 824 894 l 824 78 l 1165 78 l 1165 894 l 1065 894 l 1065 972 l 1447 972 l 1447 894 l 1321 894 l 1321 78 l 1476 78 l 1476 -225 l 1381 -225 l 1381 -31 l 1353 0 l 44 0 l 44 78 l 171 78 l 171 894 l 44 894 z "},"Ъ":{"ha":1115,"x_min":28,"x_max":1063,"o":"m 515 579 q 583 586 543 583 q 656 589 624 589 q 807 576 733 589 q 938 531 881 564 q 1028 443 994 499 q 1063 303 1063 388 q 1026 163 1063 221 q 931 68 990 106 q 793 13 871 31 q 631 -4 715 -4 q 601 -3 624 -4 q 549 -2 578 -3 q 488 -1 519 -1 q 433 0 457 0 l 233 0 l 233 78 l 360 78 l 360 894 l 144 894 l 117 864 l 117 685 l 28 685 l 28 972 l 654 972 l 654 894 l 515 894 l 515 579 m 621 511 q 559 509 583 511 q 515 503 535 507 l 515 81 q 538 77 524 78 q 569 75 553 76 q 601 74 586 74 q 625 74 617 74 q 726 86 678 74 q 810 126 774 99 q 867 198 846 154 q 889 304 889 242 q 870 399 889 360 q 817 464 851 439 q 732 500 782 489 q 621 511 682 511 z "},"Ы":{"ha":1324,"x_min":44,"x_max":1279,"o":"m 44 894 l 44 972 l 464 972 l 464 894 l 326 894 l 326 579 q 396 586 357 583 q 467 589 435 589 q 613 576 543 589 q 737 532 683 564 q 822 444 790 500 q 854 303 854 389 q 819 163 854 221 q 725 68 783 106 q 592 13 667 31 q 442 -4 518 -4 q 413 -3 435 -4 q 361 -2 390 -3 q 301 -1 332 -1 q 247 0 271 0 l 44 0 l 44 78 l 171 78 l 171 894 l 44 894 m 876 894 l 876 972 l 1279 972 l 1279 894 l 1153 894 l 1153 78 l 1279 78 l 1279 0 l 876 0 l 876 78 l 997 78 l 997 894 l 876 894 m 431 511 q 370 509 394 511 q 326 503 346 507 l 326 81 q 348 77 333 78 q 379 75 363 76 q 411 74 396 74 q 435 74 426 74 q 534 88 489 74 q 612 130 579 101 q 663 202 644 158 q 681 304 681 246 q 431 511 681 511 z "},"Ь":{"ha":926,"x_min":44,"x_max":874,"o":"m 326 579 q 394 586 354 583 q 467 589 435 589 q 618 576 544 589 q 749 531 692 564 q 840 443 806 499 q 874 303 874 388 q 838 163 874 221 q 742 68 801 106 q 604 13 682 31 q 442 -4 526 -4 q 412 -3 435 -4 q 360 -2 389 -3 q 299 -1 331 -1 q 244 0 268 0 l 44 0 l 44 78 l 171 78 l 171 894 l 44 894 l 44 972 l 465 972 l 465 894 l 326 894 l 326 579 m 432 511 q 370 509 394 511 q 326 503 346 507 l 326 81 q 349 77 335 78 q 381 75 364 76 q 413 74 397 74 q 436 74 428 74 q 537 86 489 74 q 621 126 585 99 q 678 198 657 154 q 700 304 700 242 q 681 399 700 360 q 628 464 663 439 q 543 500 593 489 q 432 511 493 511 z "},"Э":{"ha":953,"x_min":90,"x_max":874,"o":"m 281 456 l 281 544 l 704 544 q 338 900 679 900 q 258 892 292 900 q 210 874 225 883 l 190 846 l 190 718 l 101 718 l 101 932 q 220 976 151 964 q 356 989 289 989 q 574 960 478 989 q 736 872 669 932 q 838 718 803 811 q 874 497 874 625 q 833 269 874 365 q 723 108 792 172 q 563 14 654 44 q 371 -17 471 -17 q 280 -14 321 -17 q 206 -5 239 -11 q 144 10 172 1 q 90 32 117 19 l 90 272 l 179 272 l 179 126 l 200 97 q 259 80 219 88 q 336 72 299 72 q 472 93 406 72 q 589 160 538 114 q 672 278 640 206 q 704 456 703 351 l 281 456 z "},"Ю":{"ha":1511,"x_min":44,"x_max":1432,"o":"m 44 894 l 44 972 l 444 972 l 444 894 l 326 894 l 326 538 l 510 538 q 547 716 515 633 q 637 859 579 799 q 777 954 694 919 q 967 989 860 989 q 1171 951 1083 989 q 1316 847 1258 914 q 1403 687 1374 779 q 1432 486 1432 594 q 1403 287 1432 379 q 1315 127 1374 194 q 1169 22 1257 60 q 967 -17 1082 -17 q 767 19 851 -17 q 626 117 682 54 q 540 268 569 181 q 508 460 511 356 l 326 460 l 326 78 l 444 78 l 444 0 l 44 0 l 44 78 l 171 78 l 171 894 l 44 894 m 676 486 q 692 318 676 396 q 744 183 708 240 q 839 94 781 126 q 981 61 897 61 q 1112 94 1058 61 q 1198 185 1165 128 q 1244 319 1231 242 q 1258 486 1258 397 q 1243 653 1258 575 q 1192 788 1228 731 q 1099 878 1157 844 q 953 911 1040 911 q 816 878 869 911 q 731 788 763 844 q 688 653 700 731 q 676 486 676 575 z "},"Я":{"ha":986,"x_min":14,"x_max":942,"o":"m 942 972 l 942 894 l 815 894 l 815 78 l 942 78 l 942 0 l 525 0 l 525 78 l 660 78 l 660 406 l 504 406 l 239 0 l 14 0 l 14 78 l 100 78 l 364 415 q 274 449 315 426 q 201 505 232 471 q 151 585 169 539 q 133 689 133 631 q 169 820 133 765 q 266 910 206 875 q 405 960 326 944 q 567 976 483 976 q 645 974 599 976 q 740 972 692 972 l 942 972 m 553 478 q 610 480 581 478 q 660 486 640 482 l 660 892 q 617 897 644 894 q 565 899 589 899 q 377 851 447 899 q 307 689 307 803 q 367 531 307 585 q 553 478 428 478 z "},"а":{"ha":790,"x_min":60,"x_max":742,"o":"m 644 193 q 646 128 644 161 q 650 69 647 96 l 742 69 l 742 0 l 524 0 l 510 132 l 503 132 q 477 78 496 104 q 430 31 458 51 q 363 -3 401 10 q 276 -15 324 -15 q 190 -1 229 -15 q 121 38 150 13 q 76 98 92 63 q 60 178 60 133 q 88 290 60 246 q 172 360 117 335 q 311 397 228 386 q 506 410 394 408 q 508 452 508 432 q 508 492 508 472 q 479 623 508 578 q 375 668 450 668 q 315 665 347 668 q 257 649 283 663 l 257 521 l 132 521 l 132 675 q 250 722 182 701 q 410 743 318 743 q 537 723 489 743 q 610 670 585 703 q 644 597 636 638 q 651 515 651 556 q 648 348 651 428 q 644 193 644 268 m 340 78 q 400 88 374 78 q 447 115 426 99 q 481 150 467 131 q 506 188 496 169 l 506 353 q 359 341 415 353 q 271 310 303 329 q 227 263 239 290 q 215 206 215 236 q 249 110 215 143 q 340 78 282 78 z "},"б":{"ha":844,"x_min":63,"x_max":782,"o":"m 63 383 q 99 690 63 569 q 208 881 136 811 q 385 978 279 951 q 628 1006 490 1006 l 628 1056 l 717 1056 l 717 872 l 526 872 q 382 858 449 872 q 265 805 315 843 q 183 701 215 767 q 146 532 151 635 l 154 532 q 274 660 192 608 q 467 711 356 711 q 697 624 613 711 q 782 368 782 538 q 757 213 782 283 q 684 92 732 143 q 567 14 636 42 q 411 -14 499 -14 q 269 13 333 -14 q 158 90 204 39 q 88 215 113 140 q 63 383 63 289 m 219 382 q 236 228 219 290 q 283 126 253 165 q 352 69 313 86 q 438 51 392 51 q 577 128 529 51 q 625 350 625 204 q 609 474 625 422 q 566 558 593 525 q 503 607 539 592 q 425 622 467 622 q 307 601 354 622 q 235 551 260 579 q 223 474 226 514 q 219 382 219 433 z "},"в":{"ha":826,"x_min":60,"x_max":753,"o":"m 753 213 q 725 113 753 154 q 651 46 697 72 q 542 7 604 19 q 411 -6 479 -6 q 331 -5 361 -6 q 280 -3 300 -4 q 245 -1 260 -1 q 213 0 231 0 l 60 0 l 60 69 l 163 69 l 163 660 l 60 660 l 60 729 l 204 729 q 267 730 240 729 q 319 732 294 731 q 366 734 343 733 q 418 735 389 735 q 632 697 554 735 q 710 561 710 658 q 694 498 710 526 q 652 449 678 469 q 595 414 626 428 q 535 394 564 400 q 617 378 578 390 q 688 343 657 365 q 735 288 718 321 q 753 213 753 256 m 308 65 q 363 60 331 61 q 417 60 394 60 q 551 97 507 60 q 596 203 596 135 q 542 308 596 274 q 404 343 489 343 l 308 343 l 308 65 m 308 400 l 479 400 q 508 419 493 406 q 535 450 522 432 q 556 492 547 468 q 564 546 564 517 q 519 643 564 617 q 386 669 474 669 q 347 669 369 669 q 308 664 324 668 l 308 400 z "},"г":{"ha":675,"x_min":60,"x_max":640,"o":"m 640 729 l 640 486 l 551 486 l 551 632 l 524 660 l 308 660 l 308 69 l 449 69 l 449 0 l 60 0 l 60 69 l 163 69 l 163 660 l 60 660 l 60 729 l 640 729 z "},"д":{"ha":896,"x_min":26,"x_max":838,"o":"m 154 0 l 126 -28 l 126 -208 l 26 -208 l 26 69 l 119 69 q 161 131 138 90 q 206 240 185 171 q 241 413 226 310 q 256 660 256 515 l 147 660 l 147 729 l 815 729 l 815 660 l 713 660 l 713 69 l 838 69 l 838 -208 l 738 -208 l 738 -28 l 710 0 l 154 0 m 344 656 q 329 426 343 524 q 296 259 315 329 q 255 143 276 189 q 217 69 233 97 l 567 69 l 567 656 l 344 656 z "},"е":{"ha":786,"x_min":63,"x_max":714,"o":"m 693 96 q 591 15 657 44 q 438 -15 525 -15 q 276 12 346 -15 q 158 88 206 39 q 87 208 111 138 q 63 364 63 278 q 156 647 63 550 q 417 743 249 743 q 526 729 472 743 q 621 683 579 715 q 688 599 663 651 q 714 468 714 546 q 711 418 714 444 q 703 363 708 392 l 219 363 q 235 251 219 301 q 284 165 251 201 q 365 109 317 129 q 481 89 414 89 q 581 107 535 89 q 656 149 628 125 l 693 96 m 411 678 q 335 665 368 678 q 279 624 303 653 q 242 547 256 594 q 224 428 228 499 l 558 428 q 560 453 560 440 q 561 478 561 467 q 524 624 561 569 q 411 678 488 678 z "},"ж":{"ha":1131,"x_min":0,"x_max":1131,"o":"m 825 729 l 1101 729 l 1101 660 l 1014 660 l 811 406 l 1065 69 l 1131 69 l 1131 0 l 942 0 l 710 339 l 635 339 l 635 69 l 717 69 l 717 0 l 414 0 l 414 69 l 496 69 l 496 339 l 414 339 l 190 0 l 0 0 l 0 69 l 72 69 l 317 400 l 103 660 l 31 660 l 31 729 l 303 729 l 303 660 l 221 660 l 418 394 l 496 394 l 496 660 l 414 660 l 414 729 l 717 729 l 717 660 l 635 660 l 635 394 l 713 394 l 907 660 l 825 660 l 825 729 z "},"з":{"ha":739,"x_min":97,"x_max":660,"o":"m 339 61 q 410 74 379 61 q 461 107 440 86 q 492 154 482 128 q 503 207 503 181 q 471 297 503 271 q 383 331 439 322 l 238 331 l 238 406 l 394 406 q 424 423 408 411 q 452 453 439 435 q 474 494 465 471 q 482 549 482 518 q 442 643 482 618 q 333 668 401 668 q 272 665 299 668 q 238 658 246 663 l 211 628 l 211 507 l 122 507 l 122 693 q 208 726 154 710 q 360 743 261 743 q 558 702 489 743 q 628 576 628 661 q 613 511 628 540 q 572 459 597 482 q 517 420 547 436 q 456 396 486 404 q 535 378 499 392 q 600 343 572 365 q 644 289 628 321 q 660 217 660 257 q 637 115 660 158 q 572 44 614 72 q 472 1 531 15 q 342 -14 414 -14 q 199 12 261 -14 q 97 74 138 38 l 97 213 l 186 213 l 186 117 l 210 86 q 256 69 225 76 q 339 61 286 61 z "},"и":{"ha":960,"x_min":60,"x_max":900,"o":"m 60 729 l 393 729 l 393 660 l 301 660 l 301 232 l 293 82 l 301 82 l 354 206 l 629 729 l 900 729 l 900 660 l 797 660 l 797 69 l 900 69 l 900 0 l 567 0 l 567 69 l 658 69 l 658 514 l 674 657 l 665 657 l 607 519 l 328 0 l 60 0 l 60 69 l 163 69 l 163 660 l 60 660 l 60 729 z "},"й":{"ha":960,"x_min":60,"x_max":900,"o":"m 60 729 l 393 729 l 393 660 l 301 660 l 301 232 l 293 82 l 301 82 l 354 206 l 629 729 l 900 729 l 900 660 l 797 660 l 797 69 l 900 69 l 900 0 l 567 0 l 567 69 l 658 69 l 658 514 l 674 657 l 665 657 l 607 519 l 328 0 l 60 0 l 60 69 l 163 69 l 163 660 l 60 660 l 60 729 m 496 817 q 401 826 446 817 q 323 851 357 835 q 266 887 289 867 q 235 931 243 907 l 235 1011 l 393 1011 l 393 901 q 436 884 411 889 q 497 879 461 879 q 558 883 535 879 q 603 897 581 886 l 603 1011 l 754 1011 l 754 931 q 728 886 750 907 q 670 850 706 865 q 590 826 635 835 q 496 817 546 817 z "},"к":{"ha":847,"x_min":60,"x_max":846,"o":"m 510 729 l 797 729 l 797 660 l 708 660 l 493 411 l 776 69 l 846 69 l 846 0 l 646 0 l 388 344 l 308 344 l 308 69 l 408 69 l 408 0 l 60 0 l 60 69 l 163 69 l 163 660 l 60 660 l 60 729 l 386 729 l 386 660 l 308 660 l 308 401 l 381 401 l 597 660 l 510 660 l 510 729 z "},"л":{"ha":850,"x_min":31,"x_max":790,"o":"m 161 149 q 206 241 188 183 q 235 368 224 299 q 251 513 246 438 q 256 660 256 589 l 147 660 l 147 729 l 790 729 l 790 660 l 688 660 l 688 69 l 790 69 l 790 0 l 450 0 l 450 69 l 542 69 l 542 660 l 339 660 q 323 421 338 529 q 283 228 308 313 q 226 87 258 144 q 156 0 193 29 l 31 0 l 31 149 l 161 149 z "},"м":{"ha":1150,"x_min":54,"x_max":1082,"o":"m 332 0 l 54 0 l 54 69 l 157 69 l 157 660 l 58 660 l 58 729 l 367 729 l 568 282 l 572 282 l 781 729 l 1082 729 l 1082 660 l 979 660 l 979 69 l 1082 69 l 1082 0 l 749 0 l 749 69 l 840 69 l 840 660 l 828 660 l 561 97 l 518 97 l 253 660 l 240 660 l 240 69 l 332 69 l 332 0 z "},"н":{"ha":957,"x_min":60,"x_max":897,"o":"m 400 0 l 60 0 l 60 69 l 163 69 l 163 660 l 60 660 l 60 729 l 400 729 l 400 660 l 308 660 l 308 407 l 649 407 l 649 660 l 557 660 l 557 729 l 897 729 l 897 660 l 794 660 l 794 69 l 897 69 l 897 0 l 557 0 l 557 69 l 649 69 l 649 332 l 308 332 l 308 69 l 400 69 l 400 0 z "},"о":{"ha":864,"x_min":63,"x_max":801,"o":"m 63 364 q 89 526 63 456 q 163 645 115 597 q 280 718 211 693 q 432 743 349 743 q 599 716 529 743 q 714 640 669 689 q 780 520 758 590 q 801 364 801 450 q 776 202 801 272 q 702 84 750 132 q 585 11 654 36 q 432 -14 517 -14 q 268 13 338 -14 q 153 90 199 40 q 85 208 107 139 q 63 364 63 278 m 219 364 q 232 240 219 297 q 273 142 244 183 q 347 76 301 100 q 457 51 392 51 q 592 126 539 51 q 644 364 644 201 q 632 488 644 431 q 592 588 619 546 q 523 654 565 631 q 419 678 481 678 q 274 603 328 678 q 219 364 219 528 z "},"п":{"ha":956,"x_min":60,"x_max":896,"o":"m 400 0 l 60 0 l 60 69 l 163 69 l 163 660 l 60 660 l 60 729 l 896 729 l 896 660 l 793 660 l 793 69 l 896 69 l 896 0 l 556 0 l 556 69 l 647 69 l 647 660 l 308 660 l 308 69 l 400 69 l 400 0 z "},"р":{"ha":883,"x_min":47,"x_max":821,"o":"m 399 -278 l 47 -278 l 47 -208 l 150 -208 l 150 660 l 47 660 l 47 729 l 296 729 l 296 583 l 297 583 q 384 700 328 657 q 532 743 440 743 q 745 658 669 743 q 821 381 821 574 q 795 215 821 289 q 722 90 769 142 q 606 12 674 39 q 456 -15 539 -15 q 406 -14 428 -15 q 367 -10 385 -12 q 331 -1 349 -7 q 296 11 314 4 l 296 -208 l 399 -208 l 399 -278 m 478 650 q 359 608 403 650 q 296 488 315 565 l 296 81 q 358 56 324 63 q 449 50 392 50 q 540 74 500 50 q 608 142 581 99 q 651 247 636 186 q 665 381 665 307 q 656 490 665 440 q 624 574 646 539 q 567 630 603 610 q 478 650 531 650 z "},"с":{"ha":726,"x_min":63,"x_max":669,"o":"m 669 93 q 577 19 640 53 q 428 -15 514 -15 q 267 12 336 -15 q 153 88 199 39 q 85 208 107 138 q 63 364 63 278 q 160 646 63 549 q 426 743 258 743 q 553 733 503 743 q 644 703 603 724 l 644 522 l 519 522 l 519 656 q 436 668 499 668 q 343 653 383 668 q 275 603 303 638 q 233 510 247 568 q 219 367 219 451 q 235 260 219 311 q 281 172 250 210 q 358 111 311 133 q 467 89 404 89 q 526 96 500 89 q 571 110 551 103 q 606 128 590 118 q 635 149 621 138 l 669 93 z "},"т":{"ha":776,"x_min":57,"x_max":719,"o":"m 564 0 l 213 0 l 213 69 l 315 69 l 315 660 l 174 660 l 146 632 l 146 486 l 57 486 l 57 729 l 719 729 l 719 486 l 631 486 l 631 632 l 603 660 l 461 660 l 461 69 l 564 69 l 564 0 z "},"у":{"ha":789,"x_min":-17,"x_max":806,"o":"m 65 660 l -17 660 l -17 729 l 342 729 l 342 660 l 225 660 l 414 199 l 442 93 l 449 93 l 475 200 l 624 660 l 539 660 l 539 729 l 806 729 l 806 660 l 717 660 l 489 0 q 447 -105 469 -57 q 402 -190 424 -153 q 360 -249 381 -226 q 326 -278 340 -272 l 186 -278 l 186 -153 l 328 -153 q 346 -131 338 -142 q 363 -103 354 -119 q 381 -62 371 -86 q 403 0 390 -37 l 351 0 l 65 660 z "},"ф":{"ha":1133,"x_min":63,"x_max":1071,"o":"m 739 -278 l 394 -278 l 394 -208 l 497 -208 l 497 39 q 440 -1 474 14 q 361 -15 406 -15 q 240 6 294 -15 q 145 69 185 26 q 84 179 106 113 q 63 339 63 246 q 85 519 63 443 q 148 645 107 596 q 247 719 189 694 q 378 743 306 743 q 449 728 417 743 q 497 697 482 713 l 497 972 l 378 972 l 378 1042 l 636 1042 l 636 689 q 699 728 660 713 q 781 743 738 743 q 899 723 846 743 q 991 662 953 703 q 1050 558 1029 621 q 1071 408 1071 494 q 1047 217 1071 297 q 983 85 1024 138 q 885 9 942 33 q 761 -15 828 -15 q 690 -3 724 -15 q 636 29 656 10 l 636 -208 l 739 -208 l 739 -278 m 397 60 q 450 67 422 60 q 499 93 478 74 l 499 643 q 457 662 479 656 q 394 668 435 668 q 323 653 356 668 q 266 605 290 638 q 228 521 242 572 q 215 396 215 469 q 229 233 215 297 q 267 129 243 168 q 325 75 292 90 q 397 60 358 60 m 742 668 q 683 662 710 668 q 635 638 656 656 l 635 86 q 677 65 654 71 q 738 60 700 60 q 805 75 772 60 q 863 126 838 90 q 903 218 888 161 q 918 357 918 275 q 907 506 918 446 q 874 602 896 567 q 818 653 851 638 q 742 668 785 668 z "},"х":{"ha":811,"x_min":15,"x_max":796,"o":"m 468 390 l 714 69 l 796 69 l 796 0 l 457 0 l 457 69 l 550 69 l 379 311 l 207 69 l 283 69 l 283 0 l 15 0 l 15 69 l 103 69 l 335 361 l 101 660 l 25 660 l 25 729 l 358 729 l 358 660 l 268 660 l 428 439 l 583 660 l 507 660 l 507 729 l 768 729 l 768 660 l 682 660 l 468 390 z "},"ц":{"ha":960,"x_min":60,"x_max":913,"o":"m 60 0 l 60 69 l 163 69 l 163 660 l 60 660 l 60 729 l 400 729 l 400 660 l 308 660 l 308 69 l 632 69 l 632 660 l 540 660 l 540 729 l 881 729 l 881 660 l 778 660 l 778 69 l 913 69 l 913 -208 l 824 -208 l 824 -28 l 796 0 l 60 0 z "},"ч":{"ha":874,"x_min":22,"x_max":814,"o":"m 22 729 l 361 729 l 361 660 l 271 660 l 271 479 q 301 372 271 413 q 404 331 332 331 q 488 344 447 331 q 565 379 529 358 l 565 660 l 475 660 l 475 729 l 814 729 l 814 660 l 711 660 l 711 69 l 814 69 l 814 0 l 440 0 l 440 69 l 565 69 l 565 331 q 476 269 528 293 q 347 244 424 244 q 183 300 242 244 q 125 450 125 356 l 125 660 l 22 660 l 22 729 z "},"ш":{"ha":1304,"x_min":60,"x_max":1244,"o":"m 996 69 l 996 660 l 911 660 l 911 729 l 1244 729 l 1244 660 l 1142 660 l 1142 69 l 1244 69 l 1244 0 l 60 0 l 60 69 l 163 69 l 163 660 l 60 660 l 60 729 l 390 729 l 390 660 l 308 660 l 308 69 l 579 69 l 579 660 l 497 660 l 497 729 l 807 729 l 807 660 l 725 660 l 725 69 l 996 69 z "}}}
